<svg width="120" height="72" viewBox="0 0 120 72" fill="none" xmlns="http://www.w3.org/2000/svg">
<path d="M76.4041 3.3558C94.5704 9.13007 82.2858 22.4553 103.319 18.9759C124.351 15.4966 133.844 46.2927 126.585 56.7678C119.326 67.2059 131.648 76.6446 122.527 93.0421C113.407 109.403 98.5908 97.2617 93.677 111.734C88.7631 126.207 71.3041 125.504 54.5151 124.578C37.6889 123.653 45.3202 105.035 27.4517 105.183C9.58312 105.331 -4.41392 86.6385 2.95686 74.9049C10.3276 63.1713 -8.06208 49.9941 4.55759 35.9286C17.1773 21.9001 24.8086 28.2666 30.3925 20.5306C35.9392 12.7575 40.4064 -8.08169 76.4041 3.3558Z" fill="#E2D2E5"/>
</svg>
