<svg width="105" height="75" viewBox="0 0 105 75" fill="none" xmlns="http://www.w3.org/2000/svg">
<path d="M52.4041 3.3558C70.5704 9.13007 58.2858 22.4553 79.3186 18.9759C100.351 15.4966 109.844 46.2927 102.585 56.7678C95.3258 67.2059 107.648 76.6446 98.5273 93.0421C89.4069 109.403 74.5908 97.2617 69.677 111.734C64.7631 126.207 47.3041 125.504 30.5151 124.578C13.6889 123.653 21.3202 105.035 3.45167 105.183C-14.4169 105.331 -28.4139 86.6385 -21.0431 74.9049C-13.6724 63.1713 -32.0621 49.9941 -19.4424 35.9286C-6.82275 21.9001 0.808611 28.2666 6.39253 20.5306C11.9392 12.7575 16.4064 -8.08169 52.4041 3.3558Z" fill="#FBEEB8"/>
</svg>
