<svg width="62" height="71" viewBox="0 0 62 71" fill="none" xmlns="http://www.w3.org/2000/svg">
<path d="M27.9703 19.8786C29.7094 22.1667 29.7094 26.1305 25.0075 29.5787C18.5342 34.3482 12.8661 32.8658 9.80664 29.772C9.80664 29.772 12.1898 28.6119 12.9627 27.0973C15.8934 21.2966 22.9141 13.1756 27.9703 19.8786Z" fill="#3C283A"/>
<path d="M50.192 24.4226C51.9311 26.7106 51.9311 30.6744 47.2291 34.1226C40.7559 38.8921 35.0878 37.4097 32.0283 34.316C32.0283 34.316 34.4115 33.1558 35.1844 31.6412C38.1151 25.8405 45.1358 17.7195 50.192 24.4226Z" fill="#3C283A"/>
<path d="M10.1935 47.2073C10.1935 47.2073 13.575 51.9123 18.3736 51.3644L20.9822 58.3575C20.9822 58.3575 11.8037 58.0352 7.06956 49.7531C7.10177 49.7853 6.61869 46.9817 10.1935 47.2073Z" fill="#E78B6A"/>
<path d="M35.5065 60.9033L34.7014 73.6971C34.7014 73.6971 32.5437 75.824 30.9012 75.1151L26.2637 61.1289L35.5065 60.9033Z" fill="#E78B6A"/>
<path d="M10.0639 47.0138C10.0639 47.0138 7.71292 49.5596 6.45692 49.8819C5.20092 50.2042 -0.757025 50.9454 0.0803081 49.4307C0.917642 47.9161 5.10431 44.6935 6.94 44.1457C8.77569 43.5978 10.7402 46.2726 10.0639 47.0138Z" fill="#D65C69"/>
<path d="M5.84551 48.0771L6.19977 47.9482C6.23197 47.9805 6.61843 49.1084 5.84551 50.0429L5.55566 49.7851C6.19977 49.0439 5.84551 48.1094 5.84551 48.0771Z" fill="#3C283A"/>
<path d="M4.81417 48.3994C4.81417 48.3994 4.68535 49.914 4.39551 50.4297L4.81417 48.3994Z" fill="#E47438"/>
<path d="M4.62083 48.3994L5.0073 48.4316C5.0073 48.5928 4.87848 50.0107 4.55643 50.5263L4.23438 50.333C4.45981 49.9463 4.58863 48.7861 4.62083 48.3994Z" fill="#3C283A"/>
<path d="M3.39718 48.4316C3.39718 48.4316 3.26836 49.9463 2.97852 50.4619L3.39718 48.4316Z" fill="#E47438"/>
<path d="M3.20482 48.3994L3.59128 48.4316C3.59128 48.5928 3.46246 50.0107 3.14041 50.5263L2.81836 50.333C3.0438 49.9785 3.17261 48.8184 3.20482 48.3994Z" fill="#3C283A"/>
<path d="M10.2249 46.6913C10.2249 46.6913 12.5759 48.9149 12.125 49.366C11.6741 49.8172 9.19434 52.2019 8.58244 52.073C7.97054 51.9441 6.55351 50.075 6.77895 49.7205C7.00438 49.3338 9.87065 46.5301 10.2249 46.6913Z" fill="white"/>
<path d="M27.4869 58.0995L21.7544 59.5497C21.7544 59.5497 18.5661 58.6151 18.083 50.8808L21.4968 48.5928L27.4869 58.0995Z" fill="#89C3BD"/>
<path d="M36.7945 53.1044L38.0505 61.0321C38.0505 61.0321 32.0925 64.0291 24.943 61.2899L24.8786 58.0672C24.8786 58.0672 20.3377 54.329 21.4004 47.1748L36.7945 53.1044Z" fill="#89C3BD"/>
<path d="M31.2548 62.5468C31.3192 62.5468 31.3514 62.4823 31.3192 62.4179C30.6107 59.0019 29.9344 53.9424 29.9344 53.8779C29.9344 53.8135 29.87 53.7812 29.8056 53.7812C29.7412 53.7812 29.709 53.8457 29.709 53.9102C29.709 53.9746 30.3853 59.0341 31.0938 62.4501C31.1582 62.5145 31.1904 62.5468 31.2548 62.5468Z" fill="#3C283A"/>
<path d="M41.4639 33.1244C41.4639 33.1244 49.322 33.1567 53.7663 31.4165C53.7663 31.4165 56.1817 27.646 56.5681 28.5161C56.9546 29.4184 56.6325 30.1274 56.6325 30.1274C56.6325 30.1274 60.1107 28.3227 60.0141 29.3218C59.9175 30.3208 57.3732 31.0297 57.3732 31.0297C57.3732 31.0297 60.8836 30.1274 61.0124 30.9008C61.1413 31.6743 57.6309 32.3832 57.6309 32.3832C57.6309 32.3832 60.7548 32.1254 60.6582 32.8989C60.5616 33.6723 51.0288 38.9574 38.5977 39.0863L41.4639 33.1244Z" fill="#E78B6A"/>
<path d="M34.5714 32.7699C35.3765 31.0619 38.8547 29.7407 44.4262 31.3197C44.4262 31.3197 45.9076 36.2826 42.9447 39.6985C42.9447 39.7308 31.061 40.1819 34.5714 32.7699Z" fill="#3D80D9"/>
<path d="M37.8568 30.8685C37.8568 30.8685 40.1111 31.8352 40.4976 35.3157C40.884 38.7961 41.2061 52.5889 40.1433 53.2979C32.1242 58.4863 19.371 48.6251 20.4016 46.047C21.4321 43.4689 23.8475 35.3801 24.9103 33.4788C25.9731 31.5774 28.0342 28.5482 30.6106 28.8704C33.187 29.2249 37.8568 30.8685 37.8568 30.8685Z" fill="#599BF1"/>
<path d="M33.7028 38.0547C33.7028 38.0547 38.6946 44.1132 42.9135 46.4013C42.9135 46.4013 47.3578 45.8534 46.9391 46.6913C46.4882 47.5614 45.7475 47.7548 45.7475 47.7548C45.7475 47.7548 49.3545 49.2694 48.5494 49.8172C47.7442 50.3651 45.5543 48.8827 45.5543 48.8827C45.5543 48.8827 48.5172 51.0096 48.0019 51.6219C47.4866 52.2342 44.717 49.9784 44.717 49.9784C44.717 49.9784 46.9069 52.202 46.2628 52.6209C45.6187 53.0398 35.4419 49.1083 27.3584 39.6338L33.7028 38.0547Z" fill="#E78B6A"/>
<path d="M28.6781 30.0956C30.5782 29.9345 33.4444 32.287 34.8614 37.8943C34.8614 37.8943 31.3189 41.6648 26.8746 40.8269C26.8746 40.8269 20.498 30.7401 28.6781 30.0956Z" fill="#599BF1"/>
<path d="M34.669 37.7646C34.7012 37.7646 34.7012 37.7646 34.669 37.7646C34.7334 37.7323 34.7656 37.6679 34.7334 37.6034C34.7334 37.6034 34.3148 36.8944 32.8977 33.7685C31.4485 30.5781 27.5839 30.127 27.5517 30.127C27.4873 30.127 27.4551 30.1592 27.4229 30.2236C27.4229 30.2881 27.4551 30.3203 27.5195 30.3203C27.5517 30.3203 31.3197 30.7715 32.7045 33.833C34.1215 36.9589 34.5402 37.6356 34.5724 37.6679C34.6046 37.7646 34.6368 37.7646 34.669 37.7646Z" fill="#3C283A"/>
<path d="M38.5645 32.9951C38.5967 32.9951 38.5967 32.9951 38.5645 32.9951C38.9832 32.8984 39.2408 32.705 39.3374 32.4472C39.4341 32.0927 39.1764 31.7705 39.1442 31.7705C39.112 31.7382 39.0476 31.7382 39.0154 31.7705C38.9832 31.8027 38.9832 31.8672 39.0154 31.8994C39.0154 31.8994 39.2408 32.1572 39.1442 32.3828C39.0798 32.5439 38.8866 32.705 38.5323 32.8017C37.0187 33.1884 32.0913 31.9961 30.4166 30.3525C29.7081 29.6435 29.6759 29.3213 29.7081 29.1924C29.7725 29.0312 29.9658 28.999 29.9658 28.999C30.0302 28.999 30.0624 28.9346 30.0624 28.8701C30.0624 28.8057 29.998 28.7734 29.9336 28.7734C29.9336 28.7734 29.5793 28.8379 29.5149 29.1279C29.4183 29.4502 29.6759 29.9014 30.2878 30.5137C32.0269 32.2216 36.9865 33.3818 38.5645 32.9951Z" fill="#3C283A"/>
<path d="M30.8682 28.5478C31.3512 27.8066 31.8021 26.5498 31.5767 24.6162L37.9533 28.4511C37.9533 28.4511 37.438 29.3212 37.7601 30.4814C35.2159 30.5458 32.9615 29.8046 30.8682 28.5478Z" fill="#CF6844"/>
<path d="M37.7273 30.5136C37.8884 31.0293 38.2104 31.6416 38.8867 32.2216C38.8867 32.2216 33.8627 32.7373 30.0947 29.4502C30.0947 29.4502 30.4812 29.1924 30.8676 28.5801C32.961 29.8047 35.2153 30.5459 37.7273 30.5136Z" fill="#E78B6A"/>
<path d="M33.8318 2.38028C33.8318 2.38028 43.1713 -3.32375 48.8716 2.92812C55.8601 10.5657 55.1838 20.4914 43.9764 23.714C35.3132 26.1954 27.8416 26.8399 23.9448 17.3654C21.3684 11.0491 26.6501 -0.230043 33.8318 2.38028Z" fill="#3C283A"/>
<path d="M50.5784 16.5917C50.5784 16.5917 49.258 20.5233 49.1291 22.8113C49.0003 25.0994 44.8781 29.6755 37.5031 28.4187C30.1603 27.1619 28.0348 19.0409 28.0348 19.0409C28.0348 19.0409 24.2024 18.5897 24.4922 14.787C24.8143 10.9843 28.7111 11.1777 30.0959 12.9501C30.0959 12.9501 32.8655 10.7587 34.4758 6.56934C34.4758 6.56934 39.4676 13.2079 50.5784 16.5917Z" fill="#E78B6A"/>
<path d="M39.2101 18.6547C38.8881 19.557 37.9219 20.0404 37.0202 19.7181C36.1184 19.3959 35.6353 18.4291 35.9574 17.5268C36.2794 16.6244 37.2456 16.141 38.1473 16.4633C39.0491 16.7856 39.5322 17.7523 39.2101 18.6547Z" fill="#3C283A"/>
<path d="M47.6798 20.4594C47.3578 21.3617 46.3916 21.8451 45.4899 21.5228C44.5881 21.2006 44.1051 20.2338 44.4271 19.3315C44.7492 18.4291 45.7153 17.9457 46.617 18.268C47.5188 18.5902 48.0019 19.557 47.6798 20.4594Z" fill="#3C283A"/>
<path d="M35.216 21.9739C34.9262 23.1985 33.7024 23.9397 32.4786 23.6819C31.2548 23.4241 30.5141 22.1672 30.7717 20.9426C31.0616 19.7181 32.2854 18.9769 33.5092 19.2347C34.7652 19.5569 35.5059 20.7815 35.216 21.9739Z" fill="#DE7060"/>
<path d="M47.7624 25.2094C48.3055 24.0883 47.8375 22.7389 46.7171 22.1954C45.5967 21.652 44.2481 22.1203 43.705 23.2415C43.1619 24.3626 43.63 25.712 44.7504 26.2555C45.8708 26.7989 47.2193 26.3306 47.7624 25.2094Z" fill="#DE7060"/>
<path d="M41.1428 22.8437C41.2394 22.8437 41.336 22.8437 41.4326 22.8115C42.3344 22.6181 42.8497 21.7158 42.9141 21.6191C42.9785 21.4902 42.9785 21.3935 42.9141 21.2646C42.7531 20.9423 42.0123 20.749 41.5293 20.6523L42.3988 17.6553L41.9801 17.5264L40.9818 20.9746L41.2394 21.0068C41.8191 21.1035 42.3988 21.2646 42.5276 21.3935C42.3344 21.7158 41.8835 22.2314 41.336 22.3603C40.9818 22.4247 40.6275 22.3281 40.2733 22.038L40.0156 22.3603C40.4021 22.6826 40.7563 22.8437 41.1428 22.8437Z" fill="#3C283A"/>
<path d="M39.8867 25.5507C40.4986 25.5507 41.1749 25.0351 42.0122 24.0361L41.6902 23.7783C40.8528 24.8095 40.1765 25.2607 39.7256 25.0996C39.0171 24.874 38.7917 23.2305 38.7595 22.6182L38.3408 22.6504C38.3408 22.9082 38.4696 25.164 39.5968 25.5185C39.6934 25.5507 39.79 25.5507 39.8867 25.5507Z" fill="#3C283A"/>
<path d="M36.5701 13.2081C36.5701 13.2081 36.9887 12.5958 37.6006 12.5314C37.9227 12.4991 38.2447 12.628 38.5668 12.9181L38.8566 12.5958C38.438 12.2413 37.9871 12.0802 37.5362 12.1124C36.7311 12.2091 36.2158 12.9181 36.2158 12.9503L36.5701 13.2081Z" fill="#3C283A"/>
<path d="M28.0992 17.5266C28.2602 17.5266 28.3891 17.4622 28.5179 17.3655C29.0976 16.8499 29.2586 15.2386 29.001 14.2718C28.7111 13.2083 27.8738 13.015 27.5195 13.0472L27.5517 13.4661C27.5839 13.4661 28.3246 13.4017 28.6145 14.4007C28.8721 15.303 28.6789 16.6887 28.2602 17.0432C28.1636 17.1077 28.0992 17.1399 27.9704 17.0755L27.7772 17.4622C27.906 17.4944 28.0026 17.5266 28.0992 17.5266Z" fill="#3C283A"/>
<path d="M30.6434 16.785C30.1925 19.3953 31.9316 21.8767 34.5402 22.3601C36.9234 22.7791 39.2422 21.3289 39.9507 19.0731C42.4305 18.2029 43.3966 19.2986 43.6221 19.5564C43.4289 22.0056 45.1035 24.2292 47.5511 24.6482C50.1597 25.0993 52.6395 23.3591 53.1226 20.781C53.5735 18.1707 51.8344 15.6893 49.2258 15.2059C46.6816 14.7547 44.234 16.4305 43.6865 18.9441C43.1712 18.4608 42.0762 17.8807 40.0795 18.493V18.4608C40.5304 15.8504 38.7913 13.369 36.1827 12.8856C33.6063 12.4345 31.1265 14.1747 30.6434 16.785ZM44.1374 19.202C44.556 16.8494 46.8104 15.3026 49.1292 15.7215C51.4801 16.1405 53.026 18.3963 52.6073 20.7166C52.1886 23.0691 49.9343 24.6159 47.6155 24.197C45.2967 23.7781 43.7187 21.5222 44.1374 19.202ZM31.1265 16.8817C31.5451 14.5292 33.7995 12.9823 36.1183 13.4012C38.4692 13.8202 40.0151 16.076 39.5964 18.3963C39.1778 20.7488 36.9234 22.2957 34.6046 21.8767C32.2859 21.4578 30.7078 19.202 31.1265 16.8817Z" fill="#3C283A"/>
</svg>
