<svg width="79" height="83" viewBox="0 0 79 83" fill="none" xmlns="http://www.w3.org/2000/svg">
<path d="M53.1879 98.8845L50.6719 63.9103L39.8666 60.499L34.2202 95.36L53.1879 98.8845Z" fill="white"/>
<path d="M48.6285 67.2578C48.3583 68.4028 48.0477 69.5312 47.734 70.6584C47.417 71.7842 47.0765 72.9004 46.7312 74.0152L46.6267 74.3526L46.4808 74.0399C46.1839 73.4045 45.8943 72.7647 45.6118 72.1202C45.3235 71.4793 45.0489 70.8299 44.7832 70.1743C45.1234 70.7816 45.4547 71.3948 45.7726 72.0165C46.096 72.6346 46.4123 73.2574 46.7216 73.885L46.4712 73.9097C46.8019 72.7894 47.137 71.6706 47.4957 70.5618C47.8579 69.4541 48.2233 68.3478 48.6285 67.2578Z" fill="#E2DCD7"/>
<path d="M43.4152 69.9401C42.9049 70.3188 42.3894 70.6868 41.8664 71.0393C41.3468 71.3985 40.8231 71.7488 40.2956 72.0914L39.9312 72.3281L40.1044 71.8845C40.5084 70.8513 40.9161 69.8199 41.3468 68.8006C41.7804 67.7833 42.2177 66.7677 42.6933 65.7725C42.3477 66.837 41.9638 67.881 41.5762 68.9231C41.1856 69.9637 40.7721 70.9918 40.3548 72.018L40.1637 71.8111C40.6979 71.4833 41.2363 71.1632 41.7784 70.852C42.3174 70.5341 42.8638 70.2318 43.4152 69.9401Z" fill="#E2DCD7"/>
<path d="M43.4159 71.9512C42.8371 72.6717 42.2994 73.4361 41.8404 74.2584C41.3797 75.0738 40.9758 75.9499 40.792 76.8876C40.7063 77.3548 40.6776 77.8361 40.7554 78.2941C40.8312 78.7524 41.0239 79.1757 41.2995 79.5161C41.8541 80.206 42.6575 80.5799 43.4538 80.8418L43.5539 80.8746L43.5593 80.9907C43.602 81.92 43.6169 82.8496 43.6013 83.7781C43.5816 84.7063 43.551 85.6337 43.4777 86.5574C43.3433 88.4052 43.1417 90.2456 42.8371 92.0639C43.0273 90.2261 43.1716 88.3838 43.2605 86.5401C43.3423 84.6967 43.3834 82.8489 43.2732 81.0125L43.3787 81.1615C43.1719 81.087 42.9639 81.0176 42.76 80.9317C42.5613 80.8285 42.352 80.7562 42.1621 80.6268C41.7671 80.4118 41.4055 80.0984 41.1029 79.7219C40.8016 79.342 40.5875 78.859 40.5082 78.3483C40.425 77.8375 40.4642 77.3154 40.5716 76.8264C40.7936 75.8452 41.2319 74.9716 41.7209 74.1626C42.2255 73.3646 42.7887 72.6175 43.4159 71.9512Z" fill="#E2DCD7"/>
<path d="M43.8015 63.1494C44.005 63.6649 43.3721 72.0485 43.3721 72.0485L49.4972 63.9098L43.8015 63.1494Z" fill="#9E663F"/>
<path d="M41.7064 53.6558C39.5488 54.7075 39.0589 49.33 41.1594 49.841C40.5418 49.9786 40.4628 49.0165 41.0094 48.8852C39.2863 49.001 39.0159 47.3866 38.7413 45.6978C38.5508 44.5251 38.6196 43.5867 39.7384 43.1689C40.1592 43.0118 40.8463 42.9093 41.1613 43.3341C40.1474 42.4524 40.7342 40.4243 41.5009 39.5736C42.2033 38.7944 43.4444 38.8832 43.5827 40.1945C42.929 38.1605 45.365 36.7419 46.7045 36.4384C47.5617 36.2441 48.534 36.2644 49.2227 36.9683C49.4848 37.236 49.761 37.6597 49.9133 38.0215C50.149 38.5809 49.9751 39.2129 50.1796 39.7753C50.1579 39.339 50.3806 38.8032 50.7963 38.7641C51.3688 38.7107 51.3512 39.4478 51.3382 39.9368C51.3172 39.1082 51.6019 38.1174 52.4914 37.8957C53.2275 37.7125 54.0548 37.881 54.6706 38.3637C55.423 38.9533 55.8323 40.3844 55.4749 41.3893C55.7081 40.1632 56.3892 40.9357 56.0649 41.7883C56.2758 41.2333 56.8288 40.8797 57.327 40.8494C57.7634 40.8229 58.5592 40.8752 58.9242 41.1603C60.0554 42.0438 59.6827 44.2615 58.806 45.1469C59.1679 45.1424 59.5432 44.9315 59.9168 44.958C60.8078 45.0215 61.7648 46.072 62.2346 46.8962C63.219 48.622 62.4888 49.9922 60.955 50.7297C61.4198 51.3588 60.7916 51.6107 60.3157 51.8109C61.084 52.0628 63.0355 53.1277 62.3974 54.432C62.1486 54.9405 61.3513 55.1507 60.9518 55.2805C62.2464 55.4977 62.4382 56.8562 62.3926 58.1593C62.3582 59.145 62.1279 60.1605 61.5998 60.9615C60.9142 62.0006 59.9203 61.9523 58.8478 61.8966C59.203 61.9884 59.1565 63.0353 58.9892 63.4693C58.5773 64.5365 56.8036 65.4407 55.8881 65.6177C53.3575 66.1066 48.0208 64.0988 48.2976 60.2453" fill="#0B2123"/>
<path d="M70.781 5.01523C70.781 5.01523 52.4552 0.981835 39.7073 0.517578C38.233 8.80599 36.8989 20.3888 36.8989 20.3888C36.8989 20.3888 65.0986 24.0052 67.7999 24.4587C69.4325 16.6751 70.781 5.01523 70.781 5.01523Z" fill="white"/>
<path d="M69.2248 8.64411C69.4501 6.89476 69.5791 5.77855 69.5791 5.77855C69.5791 5.77855 68.0497 5.44556 65.5962 4.96582" stroke="#E97A43" stroke-width="0.5453" stroke-miterlimit="10"/>
<path d="M62.5112 22.8036C64.7316 23.1034 66.3501 23.3287 66.8748 23.4168C67.129 22.2051 67.3755 20.8894 67.6097 19.542" stroke="#E97A43" stroke-width="0.5453" stroke-miterlimit="10"/>
<path d="M38.4116 16.8936C38.2055 18.5555 38.0854 19.5972 38.0854 19.5972C38.0854 19.5972 39.5976 19.7927 41.9307 20.0962" stroke="#E97A43" stroke-width="0.5453" stroke-miterlimit="10"/>
<path d="M43.8105 1.7564C42.7165 1.67196 41.6519 1.60853 40.6326 1.57129C40.4828 2.41352 40.3344 3.29335 40.1895 4.19163" stroke="#E97A43" stroke-width="0.5453" stroke-miterlimit="10"/>
<path d="M62.4638 7.30226L46.4507 5.02817L46.5373 4.48242L62.5507 6.75688L62.4638 7.30226Z" fill="#E2E1E0"/>
<path d="M61.9025 10.2872L45.8892 8.01316L45.9761 7.46777L61.9892 9.74186L61.9025 10.2872Z" fill="#E2E1E0"/>
<path d="M61.7318 11.1948L45.7188 8.92038L45.8054 8.375L61.8188 10.6495L61.7318 11.1948Z" fill="#E2E1E0"/>
<path d="M61.5858 11.9689L45.5728 9.6948L45.6594 9.14941L61.6728 11.4235L61.5858 11.9689Z" fill="#E2E1E0"/>
<path d="M45.1074 11.9523C45.2995 12.0459 45.5091 11.9663 45.6824 11.8626C45.8595 11.7546 46.0191 11.6115 46.1676 11.4566C46.3147 11.2992 46.4508 11.1285 46.5772 10.95C46.6999 10.7719 46.8222 10.5772 46.8827 10.3766L46.9668 10.45C46.74 10.631 46.5527 10.8873 46.3957 11.1565C46.2443 11.4272 46.101 11.7244 46.0628 12.0271L46.0331 11.9464C46.1602 12.0444 46.3558 12.0385 46.533 12.0013C46.7136 11.9622 46.8936 11.8944 47.0649 11.8059C47.2363 11.7177 47.4029 11.6137 47.5561 11.492C47.7036 11.374 47.8613 11.217 47.9059 11.0695L48.0413 11.169C47.853 11.3346 47.6546 11.5013 47.5329 11.7059C47.4768 11.8132 47.4628 11.8977 47.5323 11.9626C47.5998 12.0301 47.7151 12.0813 47.817 12.1005C48.0327 12.1388 48.2646 12.0684 48.4758 11.9648C48.687 11.8578 48.8925 11.7159 49.0565 11.5337L49.14 11.6502C48.9772 11.7712 48.8329 11.943 48.8036 12.1554L48.767 12.085C48.8985 12.1399 49.0648 12.0817 49.2257 12.0437C49.3079 12.0253 49.3939 12.0024 49.4901 12.0216C49.593 12.0345 49.6697 12.1517 49.6831 12.2532L49.6452 12.2196C49.8803 12.2244 50.1154 12.2259 50.3505 12.2214C50.468 12.2189 50.5856 12.2155 50.7028 12.2071C50.8175 12.1919 50.9427 12.2019 51.0456 12.1366C50.9449 12.2093 50.8188 12.2071 50.7044 12.2296C50.5872 12.2454 50.4696 12.2565 50.3521 12.2664C50.117 12.286 49.8816 12.2992 49.6459 12.3099C49.628 12.3107 49.6127 12.297 49.6083 12.2782L49.608 12.2764C49.5876 12.1897 49.5426 12.1333 49.4738 12.1241C49.4054 12.1119 49.3254 12.1326 49.247 12.154C49.0897 12.1927 48.9215 12.2742 48.7291 12.2082C48.7039 12.1997 48.6886 12.1709 48.6918 12.1418L48.6921 12.1377C48.7233 11.8674 48.8925 11.6631 49.067 11.5241C49.097 11.5005 49.1378 11.509 49.1582 11.5437C49.1763 11.5743 49.1722 11.6152 49.1505 11.6407C48.9724 11.8497 48.7628 12.0072 48.5351 12.1237C48.3083 12.2366 48.0576 12.3221 47.7935 12.2801C47.661 12.2528 47.5396 12.2089 47.4233 12.099C47.3641 12.0485 47.3207 11.943 47.3233 11.8475C47.323 11.7469 47.3618 11.6746 47.3946 11.6045C47.5466 11.3475 47.7486 11.1841 47.9378 11.0116L47.9448 11.0049C47.9805 10.9725 48.0321 10.9795 48.0601 11.0208C48.0779 11.047 48.0818 11.0816 48.0732 11.1111C47.9881 11.3921 47.8126 11.5182 47.6527 11.655C47.487 11.7841 47.3115 11.8907 47.1302 11.9814C46.9487 12.0721 46.7588 12.1422 46.5603 12.1827C46.3654 12.2159 46.1427 12.2421 45.9408 12.0876C45.9175 12.0699 45.9067 12.0367 45.9111 12.0068C45.9627 11.6458 46.1131 11.3449 46.2813 11.0654C46.4539 10.7896 46.6524 10.5311 46.9063 10.3408L46.9098 10.3382C46.9353 10.3194 46.9691 10.3275 46.9853 10.357C46.9952 10.3747 46.9964 10.3961 46.9904 10.4142C46.9101 10.6546 46.7808 10.8379 46.6492 11.02C46.5158 11.2 46.3679 11.3641 46.2106 11.5149C46.0516 11.6628 45.8825 11.7985 45.6964 11.8973C45.5155 11.9924 45.2947 12.0585 45.1074 11.9523Z" fill="#E2E1E0"/>
<path d="M52.0347 12.9803C52.2427 12.9844 52.4466 12.9309 52.6447 12.8653C52.8428 12.7978 53.0365 12.713 53.2229 12.6116C53.4092 12.5105 53.5892 12.3944 53.758 12.2624C53.9234 12.1296 54.0858 11.9722 54.1696 11.7782L54.2416 11.8641C54.0454 11.9703 53.8683 12.1385 53.7163 12.3243C53.5682 12.5091 53.4283 12.7311 53.3962 12.9541L53.3605 12.8701C53.6561 13.067 54.0368 12.9973 54.3662 12.8575C54.701 12.7126 55.0173 12.4976 55.3033 12.2461C55.3406 12.2133 55.3938 12.2218 55.4222 12.265C55.4445 12.2989 55.4448 12.3446 55.4254 12.3785L55.4241 12.3807C55.3556 12.5002 55.325 12.6145 55.3938 12.6588C55.4617 12.7229 55.599 12.7421 55.7194 12.7366C55.8439 12.7314 55.9701 12.7063 56.0902 12.6643C56.2093 12.6226 56.3272 12.56 56.4068 12.4718L56.4094 12.4692C56.4415 12.4338 56.4925 12.4349 56.5231 12.4722C56.5377 12.4899 56.5451 12.5131 56.5454 12.536C56.547 12.8262 56.4457 13.081 56.4769 13.3011L56.4122 13.2285C56.7512 13.2967 57.0898 13.1352 57.3892 12.9165C57.4205 12.8929 57.4625 12.9029 57.4845 12.9372C57.5705 13.0744 57.6151 13.2462 57.6074 13.4147L57.5555 13.338C57.769 13.3941 57.9958 13.331 58.2207 13.2602C58.3341 13.2252 58.4497 13.1883 58.5714 13.1702C58.6319 13.1614 58.6937 13.1559 58.7558 13.1606C58.8221 13.1595 58.8874 13.1901 58.9412 13.2178L59.0218 13.2639C59.018 13.2746 59.0674 13.2705 59.0906 13.2746L59.2665 13.2853C59.384 13.2923 59.5022 13.3008 59.6198 13.3159C59.8526 13.3476 60.0963 13.3955 60.2954 13.5523L60.283 13.5574L60.3547 13.2038L60.2989 13.5626C60.2983 13.5674 60.2941 13.5707 60.29 13.57L60.2865 13.5681C60.0861 13.4273 59.8466 13.3948 59.6159 13.3775C59.4993 13.3697 59.3824 13.3686 59.2652 13.3686H59.0887C59.055 13.3624 59.0403 13.3815 58.9849 13.3535L58.9062 13.3126C58.7103 13.2115 58.4695 13.3118 58.2509 13.383C58.0286 13.4604 57.783 13.543 57.5294 13.4866C57.4982 13.4796 57.4765 13.4475 57.4775 13.4121V13.4099C57.48 13.2753 57.4412 13.1415 57.3708 13.0356L57.466 13.0563C57.1634 13.2912 56.7821 13.4804 56.389 13.4077L56.3855 13.407C56.3527 13.4011 56.3288 13.3708 56.3243 13.3347C56.2867 13.0275 56.3934 12.7768 56.3836 12.5415L56.5221 12.6057C56.4078 12.7325 56.2743 12.7985 56.1405 12.8487C56.0058 12.8974 55.8672 12.9269 55.7254 12.9342C55.585 12.935 55.434 12.9401 55.2855 12.8159C55.2049 12.7591 55.1718 12.6171 55.1883 12.5183C55.2059 12.4169 55.247 12.3431 55.2861 12.2686L55.4069 12.4029C55.1046 12.6632 54.7771 12.8815 54.4203 13.0316C54.2419 13.105 54.054 13.1581 53.859 13.1684C53.6657 13.1787 53.4599 13.1393 53.2856 13.0183L53.2818 13.0157C53.257 12.9984 53.2452 12.9656 53.2499 12.9342C53.2984 12.6289 53.4631 12.4165 53.623 12.2196C53.7902 12.0278 53.9769 11.8582 54.1989 11.7469L54.2018 11.7454C54.2292 11.7317 54.261 11.7461 54.2731 11.7778C54.2798 11.7963 54.2786 11.8166 54.2709 11.8328C54.1607 12.0677 53.9845 12.2185 53.81 12.3527C53.6325 12.4858 53.4424 12.5898 53.2493 12.6816C53.0559 12.7731 52.8565 12.8468 52.6536 12.9029C52.4504 12.9556 52.2424 12.9966 52.0347 12.9803Z" fill="#E2E1E0"/>
<path d="M44.8687 13.2217L61.0843 15.4213" stroke="#E2E1E0" stroke-width="0.3272" stroke-miterlimit="10" stroke-linecap="round" stroke-linejoin="round"/>
<path d="M42.4922 17.4729C42.8573 18.019 45.1636 16.5351 45.0521 15.9042C44.3758 15.7777 43.1306 17.2384 43.5183 17.7609C44.0821 18.5212 45.4471 17.2299 45.6417 16.7254C45.2693 16.7999 44.8141 17.5127 45.062 17.8284C45.448 18.3206 46.4996 17.752 46.6633 17.3044C46.4235 17.3958 46.2906 17.6458 46.2922 17.8999C46.6856 18.1521 47.3011 17.9832 47.4046 17.5241C47.2574 17.6558 47.1536 17.8236 47.0822 18.0028C47.3441 18.1178 47.6916 18.0492 47.978 18.0326" stroke="#E2E1E0" stroke-width="0.3272" stroke-miterlimit="10" stroke-linecap="round" stroke-linejoin="round"/>
<path d="M53.9893 18.5896C54.6818 18.8462 55.4699 18.6714 55.9452 18.1091C56.767 17.137 55.6636 16.8656 54.871 17.473C54.1514 18.0246 54.0055 18.8182 55.1329 18.8598C55.8534 18.8868 56.9228 18.2735 57.2334 17.6684C56.9422 17.8897 56.6654 18.3381 56.704 18.7042C57.1627 18.9166 57.8396 18.4494 58.2604 18.278C58.2295 18.5954 58.0276 18.893 57.9632 19.1685C58.2158 19.1301 58.4535 19.0457 58.6946 18.9675C58.7924 19.2035 58.8886 19.1342 59.081 19.1659C59.5448 19.243 59.5353 19.0387 59.7793 19.5616" stroke="#E2E1E0" stroke-width="0.3272" stroke-miterlimit="10" stroke-linecap="round" stroke-linejoin="round"/>
<path d="M42.3276 18.3477L47.7969 18.9948" stroke="#E2E1E0" stroke-width="0.3272" stroke-miterlimit="10" stroke-linecap="round" stroke-linejoin="round"/>
<path d="M53.8916 19.668L59.8909 20.4995" stroke="#E2E1E0" stroke-width="0.3272" stroke-miterlimit="10" stroke-linecap="round" stroke-linejoin="round"/>
<path d="M36.1183 20.7568C36.1183 20.7568 38.0573 18.1471 38.0573 16.8063C39.7947 15.1304 42.4011 12.4484 41.822 10.7725C41.2429 9.09649 37.4782 10.1021 36.3196 11.4429C35.1613 12.7836 34.0028 16.8063 34.2926 21.1642" fill="#BC8158"/>
<path d="M68.6094 27.5223C68.6094 27.5223 68.1749 25.1874 68.4645 23.8462C66.7271 21.1643 66.1476 18.1475 66.7271 17.1416C67.3062 16.136 68.1749 16.136 69.623 17.4768C71.0709 18.8176 73.6773 21.8347 71.3604 28.2037" fill="#BC8158"/>
<path d="M39.8658 60.4983C39.3953 60.1351 36.1015 20.5556 36.1015 20.5556C36.1015 20.5556 28.7295 20.1976 25.7494 25.0964C27.1609 41.9786 34.5329 73.117 34.5329 73.117L31.2391 92.091C31.2391 92.091 28.1019 90.82 29.5138 94.6329C23.2399 101.533 20.5732 108.25 20.5732 108.25C20.5732 108.25 29.0433 98.809 34.2191 95.3593C39.3953 91.9096 41.7478 61.7064 41.7478 61.7064L39.8658 60.4983Z" fill="#12353B"/>
<path d="M53.5756 62.4961L68.7563 27.1827C68.7563 27.1827 76.4127 26.766 78.7656 35.7344L54.4796 76.658L57.7477 99.1728C57.7477 99.1728 60.571 97.7203 58.3749 102.441C65.1193 118.056 66.1706 120.598 66.1706 120.598C66.1706 120.598 53.0073 100.444 51.4563 94.8153C49.9052 89.1867 49.9243 65.0685 49.9243 65.0685L53.5756 62.4961Z" fill="#12353B"/>
<path d="M40.8577 62.8835C40.5561 62.8835 25.9529 79.1897 14.103 71.7988C14.5818 76.0468 20.5732 81.6987 20.5732 81.6987C20.5732 81.6987 35.0553 81.7558 43.3718 64.422C42.8305 61.0822 40.8577 62.8835 40.8577 62.8835Z" fill="#4BB7A0"/>
<path d="M47.9194 64.0145C47.9194 64.0145 49.3956 92.6152 58.4926 100.097C63.6394 97.7419 63.7592 95.3513 63.7592 95.3513C63.7592 95.3513 53.2176 85.0882 51.0075 63.1494" fill="#4BB7A0"/>
<path d="M53.9533 52.6403C53.9533 52.6403 49.4206 44.6199 44.2403 49.7168C39.06 54.8137 37.3764 60.2107 39.06 62.5346C40.7435 64.8581 46.2475 66.1325 48.9027 65.6826C51.5575 65.2327 53.0467 63.7338 53.9533 59.0864C54.8599 54.4394 53.9533 52.6403 53.9533 52.6403Z" fill="#BC8158"/>
<path d="M46.0225 53.8486C45.9757 54.196 45.8527 54.4906 45.7122 54.7727C45.5638 55.0497 45.3969 55.3137 45.1538 55.5246C45.2003 55.1769 45.323 54.8822 45.4641 54.6005C45.6128 54.324 45.7798 54.0599 46.0225 53.8486Z" fill="#A0663F"/>
<path d="M53.116 51C53.116 51 51.7873 60.7365 54.4788 60.3939C55.5179 56.3561 55.4329 51 55.4329 51H53.116Z" fill="#0B2123"/>
<path d="M49.9307 58.3748C49.9307 58.3748 46.7452 54.0169 40.9536 54.6873C38.6367 59.0452 38.6367 60.386 38.6367 60.386C38.6367 60.386 40.9536 63.4031 47.6139 64.4087C49.3516 61.0564 49.9307 58.3748 49.9307 58.3748Z" fill="white"/>
<path d="M49.0619 58.375C49.0619 58.375 54.564 59.0454 53.9849 60.3862C53.4057 61.7269 52.6517 63.1499 52.6517 63.1499C52.6517 63.1499 51.0889 65.0793 47.3242 63.7385" stroke="white" stroke-width="0.9091" stroke-miterlimit="10"/>
<path d="M53.2418 60.1363C53.2418 60.1363 55.7023 58.4872 56.6089 60.5109C57.5155 62.5346 53.8894 65.8327 52.2056 62.4598" fill="#BC8158"/>
<path d="M40.7868 55.0037L40.23 54.5195" stroke="white" stroke-width="0.9091" stroke-miterlimit="10" stroke-linecap="round" stroke-linejoin="round"/>
<path d="M38.7816 60.2186L38.2021 59.5479" stroke="white" stroke-width="0.9091" stroke-miterlimit="10" stroke-linecap="round" stroke-linejoin="round"/>
<path d="M47.0342 54.6876C47.218 54.494 47.4371 54.3509 47.6748 54.2536C47.9118 54.1577 48.1778 54.1046 48.4527 54.1809C48.5193 54.2082 48.5849 54.2407 48.6502 54.272C48.7101 54.3166 48.7684 54.3671 48.8245 54.418C48.9178 54.5416 49.0035 54.6732 49.0379 54.8244C49.0975 54.9667 49.086 55.1209 49.1054 55.2643C49.0994 55.4103 49.0847 55.5542 49.0618 55.6932C49.0204 55.5549 48.9974 55.4196 48.9649 55.2898C48.9152 55.1677 48.8971 55.032 48.8315 54.9313C48.7298 54.7101 48.5779 54.5578 48.3804 54.5054C48.1845 54.4431 47.957 54.4667 47.7312 54.5062C47.5037 54.5493 47.2737 54.6168 47.0342 54.6876Z" fill="#0B2123"/>
<path d="M45.1529 54.1844C45.0618 53.9742 44.9844 53.7706 44.8965 53.5815C44.8079 53.3967 44.7092 53.2149 44.5913 53.129C44.4827 53.0457 44.346 53.0623 44.1851 53.1559C44.109 53.2035 44.03 53.2621 43.9497 53.32C43.8726 53.3856 43.7949 53.4531 43.7051 53.514C43.7449 53.4067 43.7968 53.306 43.8491 53.2035C43.9125 53.1113 43.9787 53.0165 44.0615 52.9369C44.1065 52.8996 44.153 52.8628 44.2014 52.8296C44.2508 52.7975 44.3151 52.7835 44.3734 52.7621C44.432 52.7392 44.5027 52.7617 44.5671 52.765C44.6311 52.7779 44.6888 52.8174 44.7483 52.8476C44.957 53.0191 45.0478 53.2581 45.1058 53.4848C45.1615 53.7146 45.1797 53.9506 45.1529 54.1844Z" fill="#0B2123"/>
<path d="M48.6274 51.8373C48.6274 51.8373 51.5234 50.4965 50.3648 54.184L48.6274 51.8373Z" fill="#0B2123"/>
<path d="M47.0346 51.6697C47.0346 51.6697 46.1659 48.6526 44.4282 51.3345L47.0346 51.6697Z" fill="#0B2123"/>
<path d="M55.8662 61.5588C55.7796 61.5544 55.741 61.4427 55.7022 61.3737C55.664 61.2955 55.6257 61.2196 55.5815 61.151C55.4939 61.0123 55.3808 60.9117 55.2537 60.8545C54.9931 60.7483 54.6949 60.7999 54.4111 60.8833C53.838 61.0595 53.2891 61.3796 52.7422 61.6894L52.7285 61.4205C52.8683 61.4913 53.0066 61.5699 53.1378 61.682C53.2022 61.7417 53.2697 61.8026 53.3194 61.9095C53.3446 61.9611 53.357 62.0345 53.3471 62.1038C53.3334 62.1717 53.3028 62.2274 53.2694 62.2653C53.1324 62.4132 52.9814 62.4494 52.8352 62.4932C52.688 62.5323 52.5402 62.5578 52.3915 62.5644C52.5326 62.5106 52.6721 62.4549 52.8049 62.3878C52.9333 62.3203 53.0725 62.2366 53.1413 62.1348C53.1729 62.0795 53.1671 62.0614 53.1442 62.0212C53.1203 61.9788 53.0671 61.9331 53.0126 61.894C52.898 61.8173 52.7654 61.7554 52.6329 61.6967L52.3848 61.5872L52.6192 61.4275C52.8878 61.245 53.1655 61.0802 53.4516 60.9301C53.7402 60.7881 54.0371 60.6572 54.3534 60.5875C54.6631 60.5167 55.0147 60.4861 55.3276 60.6698C55.4814 60.7634 55.5999 60.9201 55.6665 61.0909C55.7019 61.1753 55.728 61.262 55.7528 61.3464C55.7825 61.4242 55.7879 61.5326 55.8662 61.5588Z" fill="#A0663F"/>
<path d="M53.8402 63.4024C53.8402 63.6801 53.6456 63.9054 53.4057 63.9054C53.1658 63.9054 52.9712 63.6801 52.9712 63.4024C52.9712 63.1247 53.1658 62.8994 53.4057 62.8994C53.6456 62.8994 53.8402 63.1247 53.8402 63.4024Z" fill="#4BB7A0"/>
<path d="M41.4022 12.8721C40.8189 13.3787 40.1984 13.7998 39.5705 14.2066C38.9385 14.6048 38.3005 14.985 37.6235 15.2981C38.1836 14.7564 38.8019 14.3205 39.4307 13.9131C40.0653 13.5155 40.7122 13.1449 41.4022 12.8721Z" fill="#A0663F"/>
<path d="M41.8394 11.8037L40.7063 12.3325L39.585 12.8712C38.8383 13.2334 38.1012 13.6158 37.3335 13.9568C37.6635 13.6736 38.0076 13.4126 38.3675 13.1862C38.7243 12.952 39.097 12.7525 39.4726 12.5626C40.2304 12.2045 41.0182 11.9007 41.8394 11.8037Z" fill="#A0663F"/>
<path d="M41.8219 10.7725C41.0022 11.0973 40.1749 11.351 39.3524 11.6213C38.9399 11.7504 38.5296 11.8865 38.1203 12.0251C37.7125 12.17 37.3016 12.3035 36.8989 12.4879C37.2484 12.1881 37.6443 11.9665 38.0454 11.7784C38.4465 11.5867 38.8593 11.4344 39.275 11.2987C40.1084 11.0361 40.9563 10.8392 41.8219 10.7725Z" fill="#A0663F"/>
<path d="M66.5347 17.8164C67.0294 18.3647 67.4464 18.9831 67.8382 19.6222C68.0293 19.9456 68.2154 20.2741 68.382 20.6171C68.5473 20.9596 68.7066 21.3144 68.8012 21.6979L68.1927 20.7601C67.9895 20.4497 67.7949 20.1322 67.6009 19.8139C67.2189 19.1716 66.8456 18.5222 66.5347 17.8164Z" fill="#A0663F"/>
<path d="M67.0806 16.6914C67.6543 17.3223 68.1477 18.0307 68.6103 18.7656C68.8368 19.1373 69.0556 19.516 69.2525 19.9117C69.4468 20.307 69.6341 20.7189 69.7351 21.1647C69.5245 20.7779 69.2913 20.4206 69.0632 20.0544L68.3752 18.9607C67.9235 18.2243 67.4743 17.4853 67.0806 16.6914Z" fill="#A0663F"/>
<path d="M68.1929 16.5068C68.7258 17.0463 69.188 17.6551 69.6292 18.2835C69.8458 18.6017 70.059 18.9229 70.2549 19.2603C70.4505 19.5966 70.6438 19.941 70.7827 20.3201C70.3017 19.7246 69.8392 19.1246 69.4034 18.4929C68.9708 17.859 68.5497 17.2145 68.1929 16.5068Z" fill="#A0663F"/>
</svg>
