<svg width="37" height="43" viewBox="0 0 37 43" fill="none" xmlns="http://www.w3.org/2000/svg">
<path d="M6.73206 4.22466L33.3613 1.44336L36.3627 39.191L8.08096 43.0004L6.73206 4.22466Z" fill="#DD706D"/>
<path d="M6.73131 4.22376L5.36736 3.57812L4.84802 40.8062L8.08021 42.9995L6.73131 4.22376Z" fill="#B35A59"/>
<path d="M5.36762 3.57961L2.53951 3.29102C2.53951 3.29102 1.96232 35.9594 0 40.8077H4.84829L5.36762 3.57961Z" fill="#C56462"/>
<path d="M6.73161 4.22428L5.36766 3.57865L2.53955 3.29005L29.6093 0L30.0132 0.808166L33.3608 1.44299L6.73161 4.22428Z" fill="#914846"/>
<path d="M2.53955 3.29019C3.48508 3.3584 4.42942 3.43861 5.37424 3.51552L5.38389 3.51622L5.39494 3.52116L6.77066 4.1421L6.72244 4.13387L10.0468 3.74578C10.601 3.68204 11.1546 3.61359 11.7095 3.5555L13.3731 3.3751L16.7003 3.01406C17.2549 2.95502 17.8091 2.89058 18.3644 2.83718L20.0294 2.67018L23.3594 2.33596C23.9145 2.28139 24.4691 2.22165 25.0249 2.17273L26.6914 2.01937C27.8025 1.91917 28.9129 1.8098 30.0247 1.71737C31.1367 1.62517 32.2481 1.52568 33.3611 1.44336C32.2549 1.59271 31.1471 1.7249 30.04 1.86461C28.9329 2.00385 27.8241 2.12639 26.7161 2.25787L25.0539 2.45215C24.5 2.51918 23.9451 2.57517 23.3907 2.63656L20.0635 2.99783L18.3999 3.17846C17.8455 3.24079 17.2902 3.29231 16.7354 3.34923L13.4053 3.68345L11.7403 3.85068C11.1855 3.90854 10.6297 3.95582 10.0744 4.00804L6.74149 4.31521L6.71468 4.31757L6.69304 4.30674L5.34084 3.63641L5.36154 3.64229C4.42049 3.52657 3.47943 3.41438 2.53955 3.29019Z" fill="#DF9392"/>
<path d="M6.90495 4.21875L8.08074 43.0006L6.55896 4.23075L6.90495 4.21875Z" fill="#DF9392"/>
<path d="M14.9058 8.00448C15.3666 8.00448 15.7401 7.63097 15.7401 7.17021C15.7401 6.70945 15.3666 6.33594 14.9058 6.33594C14.4451 6.33594 14.0715 6.70945 14.0715 7.17021C14.0715 7.63097 14.4451 8.00448 14.9058 8.00448Z" fill="#D0D2D3"/>
<path d="M14.9057 7.70133C15.1992 7.70133 15.437 7.46345 15.437 7.17C15.437 6.87656 15.1992 6.63867 14.9057 6.63867C14.6123 6.63867 14.3744 6.87656 14.3744 7.17C14.3744 7.46345 14.6123 7.70133 14.9057 7.70133Z" fill="#914846"/>
<path d="M25.2943 5.88701C25.2943 6.34777 24.9208 6.72128 24.46 6.72128C23.9992 6.72128 23.6257 6.34777 23.6257 5.88701C23.6257 5.42624 23.9992 5.05273 24.46 5.05273C24.9208 5.0525 25.2943 5.426 25.2943 5.88701Z" fill="#D0D2D3"/>
<path d="M24.9912 5.8868C24.9912 6.1801 24.7535 6.41813 24.4599 6.41813C24.1666 6.41813 23.9286 6.18033 23.9286 5.8868C23.9286 5.59326 24.1664 5.35547 24.4599 5.35547C24.7535 5.35547 24.9912 5.59326 24.9912 5.8868Z" fill="#914846"/>
<path d="M21.762 18.6917C21.0879 18.6917 20.4585 18.4906 19.8839 18.0902C17.7085 16.5751 16.8361 12.5836 16.5096 10.3393C16.1881 8.12859 14.8378 7.35806 14.7804 7.32631C14.6553 7.25716 14.6092 7.09933 14.6778 6.97397C14.7465 6.8486 14.9029 6.80204 15.029 6.87025C15.0956 6.90647 16.6627 7.78331 17.0236 10.2645C17.2766 12.0043 18.0909 16.2084 20.1807 17.6641C20.8567 18.1347 21.5912 18.2775 22.4265 18.0996C25.3345 17.4808 26.4393 14.4629 25.7104 9.12916L25.6862 8.9511C25.4025 6.81873 24.3027 6.1143 24.2916 6.10747C24.1696 6.03197 24.1322 5.8718 24.2077 5.74996C24.2832 5.62813 24.4431 5.59026 24.5652 5.666C24.619 5.6994 25.8854 6.50921 26.201 8.88266L26.225 9.05883C26.9974 14.7096 25.7558 17.9223 22.5346 18.6077C22.2712 18.6637 22.0134 18.6917 21.762 18.6917Z" fill="#D6DE23"/>
</svg>
