<svg width="63" height="65" viewBox="0 0 63 65" fill="none" xmlns="http://www.w3.org/2000/svg">
<path d="M8.3502 9.57819C8.3502 9.57819 1.03822 13.9414 2.84944 20.7547C4.66067 27.5345 7.57875 28.0043 7.94771 30.1859C8.31666 32.3675 7.34397 35.4889 10.2956 38.5096C10.2956 38.5096 14.4547 37.8719 16.5007 35.5896L15.5951 32.6696L17.6747 35.019C17.6747 35.019 23.8127 33.1731 27.6364 31.4613C31.4601 29.7161 34.8478 28.9105 35.5521 28.4071C36.223 27.9036 36.0553 24.9501 35.6863 24.346C35.6863 24.346 37.0615 25.9906 37.2292 27.6687C37.2292 27.6687 40.1473 27.2324 41.4889 25.9906C42.8306 24.7487 41.8579 21.6609 40.2144 19.8485C38.5373 18.0361 36.659 16.8949 36.3236 14.2435C35.9882 11.592 35.1161 1.5566 26.3283 0.281205C17.507 -1.06132 11.5366 2.46281 8.3502 9.57819Z" fill="#5D2A3A"/>
<path d="M11.2355 23.2717C11.2355 23.2717 6.50616 14.0418 15.9648 6.85934C24.9874 1.15361 30.8571 9.24232 31.9639 10.954C32.0981 11.1554 32.1652 11.2561 32.1652 11.2561C32.1652 11.2561 31.4608 4.74487 24.7861 3.4359C18.1114 2.12694 10.9671 6.92647 9.12238 12.6993C7.27761 18.5393 11.2355 23.2717 11.2355 23.2717Z" fill="#D83B4D"/>
<path d="M20.3911 61.3662C19.519 63.1451 18.6805 64.6218 17.2046 65.2931C14.8232 66.4342 12.3747 66.4678 12.3747 66.4678C10.1274 69.6227 13.0455 70.7639 13.0455 70.7639C18.3115 71.1666 21.3638 70.3947 24.0471 68.5823C27.4683 66.2664 28.9441 63.4136 28.9441 63.4136L20.3911 61.3662Z" fill="#E78B6A"/>
<path d="M33.0361 60.6953L35.6188 73.7514C37.2623 74.7918 39.8785 75.1946 39.8785 75.1946L42.9308 61.9707L33.0361 60.6953Z" fill="#E78B6A"/>
<path d="M17.4395 39.7852C17.4395 39.7852 11.2009 44.8868 5.53239 46.3971C5.53239 46.3971 2.54722 44.5511 2.68138 45.4909C2.84909 46.4642 3.25158 46.867 3.25158 46.867C3.25158 46.867 -0.538577 46.867 0.0651647 47.6725C0.668907 48.478 3.08388 48.1759 3.08388 48.1759C3.08388 48.1759 -0.270247 48.8472 0.031624 49.5856C0.333495 50.324 3.72116 49.5856 3.72116 49.5856C3.72116 49.5856 0.937236 50.4918 1.44035 51.0959C1.94347 51.7001 11.5027 51.4987 23.7117 44.4169L17.4395 39.7852Z" fill="#E78B6A"/>
<path d="M42.6624 33.2071C42.6624 33.2071 50.7123 33.2742 56.0789 30.8912C56.0789 30.8912 57.2528 27.5685 57.7224 28.4075C58.192 29.2466 58.1249 29.8508 58.1249 29.8508C58.1249 29.8508 61.0765 27.4678 61.1101 28.4747C61.1101 29.4816 59.064 30.757 59.064 30.757C59.064 30.757 62.0827 29.1795 62.3175 29.9515C62.5523 30.7234 59.433 32.2673 59.433 32.2673C59.433 32.2673 62.1834 31.2269 62.1834 31.9988C62.1834 32.8043 54.6031 38.6443 40.6499 40.7588L42.6624 33.2071Z" fill="#E78B6A"/>
<path d="M28.8098 32.9046C28.8098 32.9046 25.1538 33.8779 22.6718 34.6499C20.1897 35.3883 16.0977 38.2076 14.2529 40.7248C14.2529 40.7248 17.7412 45.4572 21.7997 45.2894C21.7997 45.2894 22.6047 50.2903 22.9066 51.5993C22.9066 51.5993 34.0087 54.7206 40.8176 48.8471C40.8176 48.8471 40.9517 44.4839 40.1468 40.8255C40.1468 40.8255 43.7021 38.4761 45.0102 31.6292C45.0102 31.6292 39.543 29.6825 34.21 31.5285C29.8161 32.9382 28.8098 32.9046 28.8098 32.9046Z" fill="#D83B4D"/>
<path d="M32.3983 30.5215C32.3648 30.4543 32.3313 30.3872 32.2977 30.3201C32.0629 29.8166 31.8617 29.3132 31.694 28.8097C31.2579 27.5343 30.9896 26.4268 30.9896 26.4268L24.8851 29.5481C24.8851 29.5481 25.4553 30.79 25.7236 31.9647C25.7907 32.2332 25.8578 32.5352 25.8578 32.7702C25.8913 33.1394 25.8578 33.4414 25.7236 33.6428C25.1534 34.5826 23.9795 35.2203 23.9795 35.2203C23.9795 35.2203 27.1324 36.6635 30.084 35.4888C33.0021 34.3141 34.176 31.5955 34.176 31.5955C34.176 31.5955 33.2704 32.3339 32.3983 30.5215Z" fill="#E78B6A"/>
<path d="M32.6001 30.8911C32.533 30.7904 32.4659 30.6897 32.3988 30.5554C32.3653 30.4883 32.3318 30.4212 32.2982 30.3541C32.0634 29.8506 31.8622 29.3472 31.6945 28.8437C31.4932 28.2731 31.3255 27.7361 31.2249 27.2998C30.3864 27.7361 27.0658 29.5485 26.2608 29.5821C25.3887 29.6492 26.831 33.3076 32.6001 30.8911Z" fill="#CF6844"/>
<path d="M13.2798 22.2988C13.2798 22.2988 10.3282 24.4133 12.0052 27.199C13.6823 29.9512 17.0029 28.5751 17.0029 28.5751C17.0029 28.5751 22.5037 32.6027 29.5473 28.7429C35.5177 24.816 33.8406 17.6671 33.4381 15.9889C33.0356 14.3108 32.0964 12.6998 32.0964 12.6998C32.0964 12.6998 29.1113 12.1292 27.7025 10.2832C27.7025 10.2832 28.1386 11.9949 26.9646 12.7333C25.7572 13.4717 22.7049 12.6662 20.8601 11.5922C20.8601 11.5922 22.7049 14.445 21.3968 15.754C20.0887 17.063 15.2588 13.5053 15.2588 13.5053C15.2588 13.5053 16.0637 19.2446 13.2798 22.2988Z" fill="#E78B6A"/>
<path d="M23.3075 19.8147C23.5758 20.6873 23.0727 21.6271 22.2007 21.8956C21.3286 22.1641 20.3894 21.6606 20.1211 20.788C19.8528 19.9154 20.3559 18.9756 21.228 18.7071C22.1 18.4386 23.0392 18.942 23.3075 19.8147Z" fill="#3C283A"/>
<path d="M30.184 16.9963C30.4523 17.8689 29.9492 18.8087 29.0771 19.0772C28.2051 19.3457 27.2659 18.8423 26.9976 17.9696C26.7292 17.097 27.2324 16.1572 28.1044 15.8887C28.9765 15.6202 29.9157 16.1237 30.184 16.9963Z" fill="#3C283A"/>
<path d="M23.7456 24.1446C24.2152 25.2522 23.6785 26.5276 22.5717 26.9975C21.4648 27.4674 20.1902 26.9303 19.7207 25.8228C19.2511 24.7152 19.7877 23.4398 20.8946 22.9699C22.0015 22.5336 23.276 23.037 23.7456 24.1446Z" fill="#DE7060"/>
<path d="M33.5381 19.6134C34.0077 20.7209 33.471 21.9963 32.3641 22.4662C31.2573 22.9361 29.9827 22.3991 29.5131 21.2915C29.0436 20.1839 29.5802 18.9085 30.6871 18.4386C31.7939 18.0023 33.0685 18.5058 33.5381 19.6134Z" fill="#DE7060"/>
<path d="M27.1659 21.9964C27.233 21.9293 27.3001 21.8622 27.3672 21.795C27.9709 21.1574 27.8703 20.1505 27.8703 20.0162C27.8703 19.882 27.8032 19.7813 27.669 19.7477C27.3672 19.5799 26.6628 19.8484 26.2603 20.0498L25.2541 17.2305L24.8516 17.3647L26.0255 20.6539L26.2268 20.5532C26.7299 20.2847 27.3001 20.0833 27.4342 20.1169C27.4678 20.4525 27.4342 21.1238 27.0653 21.5265C26.8305 21.795 26.4951 21.8957 26.059 21.8957V22.2985C26.5286 22.2985 26.8976 22.1978 27.1659 21.9964Z" fill="#3C283A"/>
<path d="M27.7361 24.816C28.2057 24.4803 28.474 23.6748 28.5411 22.433L28.1386 22.3994C28.0715 23.6748 27.8032 24.4132 27.3336 24.5475C26.6292 24.7824 25.5224 23.6077 25.187 23.1378L24.8516 23.4063C25.0193 23.6077 26.3609 25.2858 27.4678 24.9502C27.5684 24.9167 27.669 24.8831 27.7361 24.816Z" fill="#3C283A"/>
<path d="M18.3444 18.2714C18.3444 18.2714 18.3444 17.5665 18.7804 17.1638C19.0152 16.9624 19.3506 16.8617 19.7531 16.8953L19.7867 16.4925C19.25 16.4254 18.814 16.5597 18.5121 16.8617C17.9419 17.3652 17.9419 18.2378 17.9419 18.2714H18.3444Z" fill="#3C283A"/>
<path d="M28.071 13.9411L28.3058 13.6055C27.8697 13.3034 27.4337 13.2028 26.9977 13.2699C26.2598 13.4377 25.8237 14.2096 25.8237 14.2096L26.1927 14.411C26.1927 14.411 26.5281 13.7733 27.0983 13.6726C27.4337 13.6391 27.7356 13.7062 28.071 13.9411Z" fill="#3C283A"/>
<path d="M15.5939 27.6015C15.7281 27.5009 15.7952 27.4002 15.8287 27.2323C15.9964 26.494 15.225 25.1514 14.4535 24.5473C13.615 23.9096 12.8771 24.1781 12.5752 24.4466L12.8435 24.7487C12.8771 24.7151 13.4137 24.2788 14.1852 24.8829C14.8895 25.4199 15.5268 26.6282 15.4262 27.1652C15.3927 27.2659 15.3256 27.333 15.225 27.3666L15.292 27.7694C15.3927 27.7022 15.4933 27.6687 15.5939 27.6015Z" fill="#3C283A"/>
<path d="M21.9333 34.8847C21.9333 34.8847 24.1805 42.3357 24.4489 44.6515C24.7507 46.9338 22.5035 49.4511 22.5035 49.4511C22.5035 49.4511 22.5035 53.0423 20.8935 55.3582C19.317 57.674 17.6064 61.0639 17.6064 61.0639C17.6064 61.0639 21.5979 67.0717 29.9161 64.9236L31.0565 59.5536L32.2975 59.3857L32.9012 65.1922C32.9012 65.1922 39.0393 65.7292 43.4332 61.0639L40.8505 48.8134C40.8505 48.8134 41.0518 44.92 40.012 39.9862C38.9722 35.0525 36.6243 31.1256 36.6243 31.1256C36.6243 31.1256 35.3833 30.9578 35.2156 31.2598C35.2491 31.4948 37.3958 37.0327 37.3958 37.0327L25.9247 40.4897L23.1743 34.5155C23.1743 34.5155 22.4699 34.247 21.8326 34.9853" fill="#89C3BD"/>
<path d="M29.9164 64.9234C29.9164 64.9234 25.4889 66.0645 21.7659 64.185C18.9149 62.7418 17.6403 61.0972 17.6403 61.0972C17.6403 61.0972 16.8018 61.03 16.7682 62.4733C16.7347 63.9165 22.5373 68.4139 29.7151 66.8029C29.7151 66.7693 30.5201 66.4673 29.9164 64.9234Z" fill="#A5E0D7"/>
<path d="M43.367 60.6611C43.367 60.6611 41.4551 63.4469 37.3631 64.3866C34.4785 65.0579 32.7009 64.2524 32.7009 64.2524C32.7009 64.2524 32.0971 64.588 32.8686 65.7963C33.5058 66.7696 39.0401 67.8772 43.7695 63.2791C43.803 63.2791 44.239 61.4666 43.367 60.6611Z" fill="#A5E0D7"/>
<path d="M33.9735 59.6543C31.9945 59.8557 29.2777 59.9228 27.0304 59.2851C26.9634 59.2851 26.9298 59.218 26.9634 59.1509C26.9634 59.0837 27.0304 59.0502 27.0975 59.0837C31.1225 60.2584 36.6568 59.0502 36.7238 59.0166C36.7909 59.0166 36.858 59.0502 36.858 59.0837C36.858 59.1508 36.8245 59.218 36.7909 59.218C36.7239 59.2515 35.5834 59.4865 33.9735 59.6543Z" fill="#3C283A" stroke="#3C283A" stroke-width="0.5" stroke-miterlimit="10"/>
<path d="M27.265 61.4326C27.1979 61.4326 27.1644 61.3991 27.1309 61.332C27.1309 61.2648 27.1644 61.2313 27.2315 61.1977C28.7408 61.0299 30.9881 59.7545 31.0216 59.7209C31.0887 59.6874 31.1558 59.7209 31.1558 59.7545C31.1893 59.8216 31.1558 59.8888 31.1223 59.8888C31.0552 59.9894 28.8079 61.2648 27.265 61.4326Z" fill="#3C283A" stroke="#3C283A" stroke-width="0.5" stroke-miterlimit="10"/>
<path d="M32.3982 57.7078C32.2976 57.7078 32.2305 57.7078 32.2305 57.7078H32.1299L32.4988 52.7405C32.4988 52.6734 32.5659 52.6398 32.633 52.6398C32.7001 52.6398 32.7336 52.7069 32.7336 52.7741L32.3982 57.4729C32.5995 57.4393 33.069 57.3722 33.4045 57.003C33.7063 56.6674 33.8405 56.1975 33.8069 55.5934V52.2706C33.8069 52.2035 33.874 52.1699 33.9076 52.1699C33.9747 52.1699 34.0082 52.237 34.0082 52.2706V55.5934C34.0753 56.2646 33.9076 56.8016 33.5386 57.1708C33.1697 57.5736 32.6665 57.6743 32.3982 57.7078Z" fill="#3C283A" stroke="#3C283A" stroke-width="0.5" stroke-miterlimit="10"/>
<path d="M30.083 53.1096C25.4208 53.5794 22.2679 52.4719 22.2008 52.4719C22.1338 52.4383 22.1002 52.3712 22.1338 52.3376C22.1673 52.2705 22.2344 52.2369 22.2679 52.2705C22.3686 52.304 31.0222 55.3247 40.8162 49.0484C40.8833 49.0148 40.9504 49.0149 40.9839 49.082C41.0175 49.1491 41.0175 49.2162 40.9504 49.2498C36.959 51.767 33.1688 52.8075 30.083 53.1096Z" fill="#3C283A" stroke="#3C283A" stroke-width="0.5" stroke-miterlimit="10"/>
<path d="M41.8907 53.8809C38.805 53.8138 38.5366 50.4575 38.5366 50.4239C38.5366 50.3568 38.5702 50.3232 38.6372 50.3232C38.7043 50.3232 38.7379 50.3568 38.7379 50.4239C38.7379 50.5582 38.9727 53.6124 41.8572 53.6796C41.9243 53.6796 41.9578 53.7467 41.9578 53.7802C41.9914 53.8138 41.9578 53.8474 41.8907 53.8809Z" fill="#3C283A" stroke="#3C283A" stroke-width="0.5" stroke-miterlimit="10"/>
<path d="M21.0963 56.1302C20.7274 56.1638 20.4926 56.1302 20.459 56.1302C20.3919 56.1302 20.3584 56.0631 20.3584 55.996C20.3584 55.9288 20.4255 55.8953 20.4926 55.8953C20.5932 55.8953 23.31 56.2309 24.4504 52.841C24.484 52.7739 24.5175 52.7403 24.5846 52.7739C24.6517 52.8075 24.6852 52.841 24.6517 52.9082C23.8131 55.4925 22.0355 56.0295 21.0963 56.1302Z" fill="#3C283A" stroke="#3C283A" stroke-width="0.5" stroke-miterlimit="10"/>
<path d="M35.0142 49.0819L28.742 47.9744L27.6016 42.8056L27.6686 42.7721C31.593 40.7583 37.5968 39.9863 37.6639 39.9863H37.7646L37.7981 40.087C37.9658 40.624 38.8714 44.9872 38.905 45.1886V45.2557L38.8714 45.2893L35.0142 49.0819ZM28.9432 47.8065L34.9471 48.847L38.6702 45.1215C38.5695 44.618 37.7981 40.9597 37.5968 40.1877C36.8254 40.2884 31.4923 41.0939 27.8699 42.9063L28.9432 47.8065Z" fill="#3C283A" stroke="#3C283A" stroke-width="0.5" stroke-miterlimit="10"/>
<path d="M27.9722 43.8793C27.9386 43.8793 27.8716 43.8458 27.8716 43.8122C27.838 43.7451 27.8716 43.678 27.9386 43.678C28.0057 43.6444 34.5463 41.1607 37.9339 40.9258C38.001 40.9258 38.0345 40.9593 38.0681 41.0265C38.0681 41.0936 38.0345 41.1272 37.9675 41.1272C34.5463 41.3621 28.0728 43.8458 27.9722 43.8793Z" fill="#3C283A" stroke="#3C283A" stroke-width="0.5" stroke-miterlimit="10"/>
</svg>
