<svg width="30" height="35" viewBox="0 0 30 35" fill="none" xmlns="http://www.w3.org/2000/svg">
<path d="M5.47949 3.43759L27.1544 1.17383L29.5974 31.8986L6.57721 34.9993L5.47949 3.43759Z" fill="#00A69C"/>
<path d="M5.47956 3.43762L4.36922 2.91211L3.94641 33.2141L6.57729 34.9993L5.47956 3.43762Z" fill="#00817A"/>
<path d="M4.36912 2.91265L2.06718 2.67773C2.06718 2.67773 1.59736 29.2684 0 33.2146H3.94631L4.36912 2.91265Z" fill="#009289"/>
<path d="M5.47967 3.43832L4.36932 2.9128L2.06738 2.67789L24.1009 0L24.4298 0.65772L27.1546 1.17456L5.47967 3.43832Z" fill="#00726B"/>
<path d="M2.06738 2.67716C2.83696 2.7327 3.60574 2.79786 4.37468 2.86065L4.38257 2.86128L4.39156 2.86538L5.51138 3.37085L5.47209 3.36407L8.17807 3.04807C8.62911 2.99632 9.07984 2.94047 9.53136 2.8933L10.8855 2.74642L13.5936 2.45251C14.0452 2.40455 14.4962 2.35201 14.948 2.30847L16.3032 2.17248L19.0138 1.90049C19.4656 1.85616 19.917 1.80741 20.3695 1.76765L21.7259 1.64271C22.6304 1.56114 23.534 1.47216 24.4391 1.39691C25.3442 1.32197 26.2489 1.24104 27.1547 1.17383C26.2545 1.29531 25.3528 1.40306 24.4516 1.51665C23.5505 1.62993 22.6479 1.72963 21.7461 1.83675L20.3931 1.99483C19.9424 2.04926 19.4906 2.09501 19.0393 2.14487L16.3312 2.43878L14.9771 2.58582C14.5259 2.63662 14.0737 2.67842 13.6222 2.72481L10.9116 2.99695L9.55645 3.13294C9.10493 3.17996 8.65246 3.21861 8.20031 3.26105L5.48755 3.51111L5.46578 3.51316L5.44827 3.50448L4.34755 2.95877L4.36443 2.9635C3.59833 2.86964 2.83238 2.77813 2.06738 2.67716Z" fill="#7CCBBB"/>
<path d="M5.62011 3.43359L6.57711 35.0002L5.3385 3.44338L5.62011 3.43359Z" fill="#7CCBBB"/>
<path d="M12.8119 5.83527C12.8119 6.21027 12.5079 6.51428 12.1329 6.51428C11.7579 6.51428 11.4539 6.21027 11.4539 5.83527C11.4539 5.46026 11.7579 5.15625 12.1329 5.15625C12.5077 5.15609 12.8119 5.4601 12.8119 5.83527Z" fill="#D0D2D3"/>
<path d="M12.5649 5.83478C12.5649 6.07363 12.3714 6.26721 12.1325 6.26721C11.8937 6.26721 11.7001 6.07363 11.7001 5.83478C11.7001 5.59592 11.8937 5.40234 12.1325 5.40234C12.3714 5.40234 12.5649 5.59592 12.5649 5.83478Z" fill="#00726B"/>
<path d="M19.91 5.47132C20.285 5.47132 20.589 5.16731 20.589 4.7923C20.589 4.41729 20.285 4.11328 19.91 4.11328C19.535 4.11328 19.231 4.41729 19.231 4.7923C19.231 5.16731 19.535 5.47132 19.91 5.47132Z" fill="#D0D2D3"/>
<path d="M20.3423 4.79181C20.3423 5.03067 20.1487 5.22424 19.9098 5.22424C19.671 5.22424 19.4774 5.03067 19.4774 4.79181C19.4774 4.55296 19.671 4.35938 19.9098 4.35938C20.1487 4.35938 20.3423 4.55296 20.3423 4.79181Z" fill="#00726B"/>
<path d="M17.7136 15.2146C17.1649 15.2146 16.6526 15.051 16.1848 14.7251C14.4142 13.4918 13.704 10.243 13.4383 8.41607C13.1766 6.61677 12.0774 5.9895 12.0309 5.96362C11.929 5.9073 11.8916 5.77888 11.9474 5.67681C12.0034 5.57489 12.1308 5.53687 12.2333 5.5924C12.2874 5.62175 13.5629 6.33563 13.8567 8.35517C14.0626 9.77142 14.7255 13.1933 16.4265 14.378C16.9766 14.761 17.5747 14.8771 18.2545 14.7325C20.6216 14.2289 21.5209 11.7723 20.9274 7.43099L20.9076 7.28601C20.6768 5.55028 19.7817 4.97697 19.7727 4.97129C19.6735 4.90976 19.6429 4.77945 19.7044 4.68021C19.7659 4.58098 19.8961 4.55021 19.9955 4.6119C20.0392 4.63904 21.07 5.29833 21.3268 7.23016L21.3464 7.37372C21.9752 11.9732 20.9644 14.5883 18.3426 15.1461C18.128 15.1919 17.9182 15.2146 17.7136 15.2146Z" fill="#FFF100"/>
</svg>
