<svg width="62" height="62" viewBox="0 0 62 62" fill="none" xmlns="http://www.w3.org/2000/svg">
<path d="M61.8718 4.56842L58.8636 0L4.0713 4.56842C4.0713 4.56842 0.346845 47.4246 32.9357 62C65.5962 47.4246 61.8718 4.56842 61.8718 4.56842Z" fill="#C6A900"/>
<path d="M58.8634 0H0.131741C0.131741 0 -3.66433 43.5813 29.4976 58.4468C62.5878 43.5088 58.8634 0 58.8634 0Z" fill="#FFDF00"/>
<path d="M49.9102 7.54199H9.01297C9.01297 7.54199 6.36289 37.8531 29.4974 48.2227C52.5603 37.8531 49.9102 7.54199 49.9102 7.54199Z" fill="#F7941E"/>
<path opacity="0.15" d="M31.1448 14.8652C33.0787 14.8652 36.5883 20.3038 36.5883 20.3038C36.5883 20.3038 42.8195 21.9717 43.3925 23.857C43.9655 25.6699 39.9546 30.7459 39.9546 30.7459C39.9546 30.7459 40.3127 37.2723 38.737 38.36C37.1613 39.5202 31.2165 37.1997 31.2165 37.1997C31.2165 37.1997 25.2001 39.5202 23.696 38.36C22.1202 37.1997 22.4783 30.7459 22.4783 30.7459C22.4783 30.7459 18.4674 25.6699 19.0404 23.857C19.6134 22.0442 25.8447 20.3038 25.8447 20.3038C25.8447 20.3038 29.2826 14.8652 31.1448 14.8652Z" fill="#231F20"/>
<path d="M29.4973 12.4727C31.4311 12.4727 35.0123 18.0563 35.0123 18.0563C35.0123 18.0563 41.3869 19.7966 41.9599 21.682C42.5329 23.5674 38.4503 28.7159 38.4503 28.7159C38.4503 28.7159 38.8084 35.3873 37.2327 36.5475C35.657 37.7077 29.4973 35.3148 29.4973 35.3148C29.4973 35.3148 23.3376 37.7077 21.7619 36.5475C20.1862 35.3873 20.5443 28.7159 20.5443 28.7159C20.5443 28.7159 16.3901 23.5674 17.0347 21.682C17.6077 19.7966 23.9823 18.0563 23.9823 18.0563C23.9823 18.0563 27.5635 12.4727 29.4973 12.4727Z" fill="white"/>
<path opacity="0.1" d="M13.9551 33.2114C16.9633 39.2301 21.8337 44.8137 29.4975 48.2219C46.9021 40.4628 49.6954 21.319 49.9819 12.3271C40.5992 19.7236 28.7096 27.1927 13.9551 33.2114Z" fill="#231F20"/>
</svg>
