<svg width="71" height="69" viewBox="0 0 71 69" fill="none" xmlns="http://www.w3.org/2000/svg">
<path d="M70.4375 34.6797C70.4375 53.6367 54.8945 69 35.7578 69C16.6211 69 1.07812 53.6367 1.07812 34.6797C1.07812 15.7226 16.6211 0.359375 35.7578 0.359375C54.8945 0.359375 70.4375 15.7226 70.4375 34.6797Z" fill="#CC6F0A"/>
<path d="M66.5742 33.332H1.07812C1.07812 33.7813 1.07812 34.1406 1.07812 34.5899C1.07812 53.5469 16.6211 68.9102 35.7578 68.9102C54.2656 68.9102 69.4492 54.5352 70.4375 36.4766L66.5742 33.332Z" fill="#C6A900"/>
<path d="M66.125 33.1523H0.0898438C0.0898438 50.6719 13.7461 64.957 30.9961 66.0352H35.2188C52.4688 64.957 66.125 50.6719 66.125 33.1523Z" fill="#FFDF00"/>
<path d="M66.125 33.0625C66.125 14.8242 51.3008 0 33.0625 0C14.8242 0 0 14.8242 0 33.0625C0 33.0625 0 33.0625 0 33.1523L66.125 33.0625C66.125 33.1523 66.125 33.1523 66.125 33.0625Z" fill="#F7941E"/>
<path d="M51.4805 33.0625C51.4805 43.2148 43.3047 51.3906 33.1523 51.3906C23 51.3906 14.8242 43.2148 14.8242 33.0625C14.8242 22.9102 23 14.7344 33.1523 14.7344C43.3047 14.7344 51.4805 23 51.4805 33.0625Z" fill="white"/>
<path opacity="0.15" d="M34.4102 22.5508L39.5312 28.3906L46.6289 31.4453L42.5859 38.0039L41.957 45.8203L34.4102 44.0235L26.8633 45.8203L26.2344 38.0039L22.1914 31.4453L29.3789 28.3906L34.4102 22.5508Z" fill="#231F20"/>
<path d="M33.1523 20.4844L38.1836 26.4141L45.3711 29.3789L41.3281 36.0273L40.6992 43.7539L33.1523 41.957L25.5156 43.7539L24.8867 36.0273L20.8438 29.3789L28.0313 26.4141L33.1523 20.4844Z" fill="#F7941E"/>
<path d="M33.1523 26.5039L35.5781 29.3789L38.9922 30.8164L37.0156 33.9609L36.7461 37.7344L33.1523 36.8359L29.4688 37.7344L29.1992 33.9609L27.2227 30.8164L30.6367 29.3789L33.1523 26.5039Z" fill="#FFDF00"/>
<path opacity="0.1" d="M25.5156 43.7539L33.0625 41.957L40.6094 43.7539L41.2383 36.0273L45.2813 29.3789L43.2149 28.4805C37.6445 31.8047 31.625 34.9492 25.0664 37.8242L25.5156 43.7539Z" fill="#231F20"/>
</svg>
