<svg width="60" height="72" viewBox="0 0 60 72" fill="none" xmlns="http://www.w3.org/2000/svg">
<path d="M59.7746 31.1231L55.2041 24.7672L55.9896 16.983L52.9188 14.4835L48.8481 13.6979L45.5631 6.55647L42.5637 4.12837L37.7789 7.34203L31.4229 2.77148L24.9956 7.34203L17.2114 6.55647L13.9978 13.6979L6.85627 16.983L7.57042 24.7672L3.07129 31.1231L7.57042 37.5505L3.78544 42.8352L6.85627 45.3347L13.9978 48.5484L10.9983 69.33L13.9978 71.8296L31.4229 63.3312L48.4197 71.8296L48.8481 48.5484L55.9896 45.3347L55.2041 37.5505L59.7746 31.1231Z" fill="#CC6F0A"/>
<path d="M56.7033 28.6231L52.2042 22.2672L52.9183 14.483L45.7769 11.1979L42.5632 4.12788L34.7076 4.84203L28.3517 0.271484L21.9957 4.84203L14.2115 4.05647L10.9265 11.1979L3.78498 14.483L4.57055 22.2672L0 28.6231L4.57055 35.0505L3.78498 42.8347L10.9265 46.0484V46.1198L10.9979 69.3296L28.3517 60.8312L45.4198 69.3296L45.7769 45.9769V46.0484L52.9183 42.8347L52.2042 35.0505L56.7033 28.6231Z" fill="#F7941E"/>
<path opacity="0.15" d="M50.1334 30.4798C50.1334 41.6205 41.1351 50.6187 29.9944 50.6187C18.8537 50.6187 9.85547 41.6205 9.85547 30.4798C9.85547 19.3391 18.8537 10.3408 29.9944 10.3408C41.1351 10.4122 50.1334 19.4105 50.1334 30.4798Z" fill="#231F20"/>
<path d="M28.6215 48.7596C39.7429 48.6094 48.6367 39.472 48.4864 28.3506C48.3361 17.2293 39.1987 8.33548 28.0774 8.48574C16.9561 8.636 8.06224 17.7734 8.2125 28.8948C8.36276 40.0161 17.5002 48.9099 28.6215 48.7596Z" fill="#FFDF00"/>
<path d="M28.3516 21.5537L31.351 25.053L35.5645 26.767L33.2078 30.6948L32.7793 35.2653L28.3516 34.1941L23.9238 35.2653L23.5668 30.6948L21.1387 26.767L25.3521 25.053L28.3516 21.5537Z" fill="white"/>
<path opacity="0.1" d="M48.491 28.6229C48.491 25.2664 47.6341 22.0528 46.2058 19.2676C40.4926 25.6235 29.2805 34.9074 10.8555 38.4067C14.2834 44.5484 20.8535 48.7619 28.4235 48.7619C39.4928 48.7619 48.491 39.7636 48.491 28.6229Z" fill="#231F20"/>
</svg>
