<svg width="77" height="73" viewBox="0 0 77 73" fill="none" xmlns="http://www.w3.org/2000/svg">
<path d="M39.6895 3.54395L54.8092 21.1049L72.9214 26.5385L76.3076 30.0822L64.1803 49.9269L62.2904 73.0003L39.6895 67.6453L17.1674 73.0003L13.7812 69.5353L15.2774 49.9269L3.30762 30.0822L24.6485 21.1049L39.6895 3.54395Z" fill="#CC6F0A"/>
<path d="M36.3819 0L51.5016 17.6397L72.9213 26.5383L60.8727 46.383L58.9827 69.5351L36.3819 64.1802L13.781 69.5351L11.9698 46.383L0 26.5383L21.2621 17.6397L36.3819 0Z" fill="#F7941E"/>
<path opacity="0.15" d="M38.4296 16.0645L47.8007 27.0105L61.1092 32.5229L53.5494 44.8077L52.4469 59.14L38.4296 55.8325L24.4124 59.14L23.3099 44.8077L15.75 32.5229L29.0585 27.0105L38.4296 16.0645Z" fill="#231F20"/>
<path d="M36.3821 13.2295L45.7532 24.1756L59.0617 29.688L51.5806 41.9728L50.3994 56.305L36.3821 52.9976L22.3649 56.305L21.2624 41.9728L13.7812 29.688L27.011 24.1756L36.3821 13.2295Z" fill="#FFDF00"/>
<path d="M36.3816 24.333L40.949 29.6092L47.4064 32.2866L43.784 38.2715L43.154 45.2014L36.3816 43.6264L29.6092 45.2014L29.058 38.2715L25.4355 32.2866L31.8142 29.6092L36.3816 24.333Z" fill="white"/>
<path opacity="0.1" d="M21.498 45.4383L22.3643 55.9906C22.5218 56.0693 22.6793 56.1481 22.8368 56.2268L36.3815 52.9982L50.3988 56.3056L51.58 41.9733L59.0612 29.6885L52.7613 27.0898C47.4851 34.886 37.7203 44.4145 21.498 45.4383Z" fill="#231F20"/>
</svg>
