<svg width="30" height="31" viewBox="0 0 30 31" fill="none" xmlns="http://www.w3.org/2000/svg">
<path d="M22.3785 10.0938C20.1181 9.7582 17.3248 9.75882 17.3248 9.75882C17.3248 9.75882 15.0402 3.90241 13.3869 3.95816C11.6385 4.05455 9.32401 10.1409 9.32401 10.1409C9.32401 10.1409 1.81698 10.6373 1.37512 12.5614C1.33056 15.1834 6.91174 17.3536 6.91174 17.3536C6.39433 19.093 6.14404 20.393 5.9511 21.56C10.1151 20.5398 17.2667 17.8093 22.3785 10.0938Z" fill="#F0BE46"/>
<path d="M25.4756 11.4159C25.3446 10.8227 24.0908 10.4926 22.5514 10.2843C17.4292 17.9887 10.3083 20.8126 6.00777 21.7832C5.57807 25.104 6.47079 25.372 6.47079 25.372C8.85966 27.3813 13.5775 21.1478 13.5775 21.1478C18.2563 26.2904 20.2378 25.1199 20.2378 25.1199C22.2193 23.9493 19.9424 17.0239 19.9424 17.0239C26.8191 13.3306 25.4756 11.4159 25.4756 11.4159Z" fill="#F0BE46"/>
</svg>
