<svg width="66" height="69" viewBox="0 0 66 69" fill="none" xmlns="http://www.w3.org/2000/svg">
<path d="M65.9999 35.0796C65.9999 39.2777 61.646 42.622 60.1255 46.2509C58.6051 50.0933 59.3653 55.5722 56.6009 58.4184C53.8365 61.2646 48.4459 60.4819 44.7831 62.0473C41.1894 63.5415 38.0103 68.0955 33.9329 68.0955C29.8554 68.0955 26.6072 63.6127 23.0826 62.0473C19.3507 60.4819 14.0292 61.2646 11.2648 58.4184C10.6428 57.778 8.15485 52.9395 7.8093 52.0856C6.56532 49.0971 8.91506 49.1682 7.74019 46.1797C6.28888 42.4797 3.24805 37.8546 3.24805 33.6565C3.24805 29.4583 6.28888 27.466 7.74019 23.8371C9.26061 19.9947 8.5004 14.5158 11.2648 11.6696C14.0292 8.82342 19.4198 9.60613 23.0826 8.04072C26.6763 6.54647 28.8878 2.7041 33.0344 2.7041C37.1119 2.7041 41.2585 6.47531 44.8522 8.04072C47.6857 9.25035 48.5842 7.11571 51.4177 8.25418C52.3161 8.60996 55.9789 11.0292 56.67 11.6696C59.4344 14.5158 58.6742 20.0659 60.1946 23.8371C61.646 27.5372 65.9999 30.8103 65.9999 35.0796Z" fill="#7B7B7B"/>
<path d="M61.9225 31.8774C61.9225 35.9332 57.7068 39.1352 56.2555 42.6929C54.8042 46.393 55.4953 51.6584 52.8691 54.4335C50.1738 57.2085 44.9906 56.4258 41.466 57.9201C38.0105 59.4143 34.9696 63.7548 30.9613 63.7548C27.022 63.7548 23.912 59.4143 20.4565 57.9201C16.8628 56.4258 11.7487 57.1374 9.0534 54.4335C6.35812 51.6584 7.11832 46.393 5.66702 42.6929C4.21571 39.1352 0 36.0044 0 31.8774C0 27.8216 4.21571 24.6196 5.66702 21.0619C7.11832 17.3618 6.42723 12.0963 9.0534 9.32129C11.7487 6.54625 16.9319 7.32895 20.4565 5.8347C23.912 4.34045 26.9529 0 30.9613 0C34.9005 0 38.0105 4.34045 41.466 5.8347C45.0597 7.32895 50.1738 6.61741 52.8691 9.32129C55.5644 12.0963 54.8042 17.433 56.2555 21.0619C57.7068 24.6196 61.9225 27.7504 61.9225 31.8774Z" fill="#D7D7D7"/>
<path d="M52.6613 31.8777C52.6613 44.2586 42.9168 54.2914 30.8917 54.2914C18.8666 54.2914 9.12207 44.2586 9.12207 31.8777C9.12207 19.4967 18.8666 9.46387 30.8917 9.46387C42.9168 9.53502 52.6613 19.5679 52.6613 31.8777Z" fill="#7E8083"/>
<path d="M47.6172 31.8777C47.6172 41.3413 40.1533 49.0972 30.8926 49.0972C21.701 49.0972 14.168 41.4124 14.168 31.8777C14.168 22.4141 21.6318 14.6582 30.8926 14.6582C40.1533 14.7294 47.6172 22.4141 47.6172 31.8777Z" fill="#D7D7D7"/>
<path opacity="0.15" d="M32.551 21.5596C34.417 21.5596 37.8034 26.8962 37.8034 26.8962C37.8034 26.8962 43.8159 28.5327 44.3688 30.3828C44.9217 32.1616 41.0515 37.1425 41.0515 37.1425C41.0515 37.1425 41.3971 43.5464 39.8767 44.6138C38.3563 45.7522 32.6201 43.4753 32.6201 43.4753C32.6201 43.4753 26.8149 45.7522 25.3636 44.6138C23.8432 43.4753 24.1887 37.1425 24.1887 37.1425C24.1887 37.1425 20.3186 32.1616 20.8714 30.3828C21.4243 28.6039 27.4369 26.8962 27.4369 26.8962C27.4369 26.8962 30.6851 21.5596 32.551 21.5596Z" fill="#231F20"/>
<path d="M30.9608 19.2119C32.8268 19.2119 36.2823 24.6908 36.2823 24.6908C36.2823 24.6908 42.4331 26.3986 42.9859 28.2486C43.5388 30.0986 39.5996 35.1506 39.5996 35.1506C39.5996 35.1506 39.9451 41.6969 38.4247 42.8353C36.9043 43.9738 30.9608 41.6257 30.9608 41.6257C30.9608 41.6257 25.0174 43.9738 23.4969 42.8353C21.9765 41.6969 22.3221 35.1506 22.3221 35.1506C22.3221 35.1506 18.3137 30.0986 18.9357 28.2486C19.4886 26.3986 25.6393 24.6908 25.6393 24.6908C25.6393 24.6908 29.0257 19.2119 30.9608 19.2119Z" fill="white"/>
<path opacity="0.1" d="M23.4969 42.7637C25.0173 43.9021 30.9608 41.554 30.9608 41.554C30.9608 41.554 36.9042 43.9021 38.4247 42.7637C39.9451 41.6252 39.5995 35.0789 39.5995 35.0789C39.5995 35.0789 43.6079 30.0269 42.9859 28.1769C42.7786 27.4654 41.7419 26.7538 40.498 26.1846C35.3838 29.9558 29.3021 33.5847 22.2529 36.7866C22.2529 38.8501 22.4603 42.0521 23.4969 42.7637Z" fill="#231F20"/>
</svg>
