<svg width="80" height="75" viewBox="0 0 80 75" fill="none" xmlns="http://www.w3.org/2000/svg">
<path d="M11.7736 12.5517C11.7736 12.5517 4.87629 29.1425 9.5366 49.5857C14.1969 70.029 39.7976 74.9999 39.8597 74.9999C39.8597 74.9999 65.5225 70.029 70.1828 49.5857C74.8431 29.1425 67.9459 12.5517 67.9459 12.5517L39.8597 4.84668L11.7736 12.5517Z" fill="#969696"/>
<path opacity="0.8" d="M11.7736 8.32616C11.7736 8.32616 4.87629 24.9169 9.5366 45.3601C14.1969 65.8034 39.7976 70.7744 39.8597 70.7744C39.8597 70.7744 65.5225 65.8034 70.1828 45.3601C74.8431 24.9169 67.9459 8.32616 67.9459 8.32616L39.8597 0.621094L11.7736 8.32616Z" fill="white"/>
<path d="M11.7736 7.70507C11.7736 7.70507 4.87629 24.2958 9.5366 44.739C14.1969 65.1823 39.7976 70.1533 39.8597 70.1533C39.8597 70.1533 65.5225 65.1823 70.1828 44.739C74.8431 24.2958 67.9459 7.70507 67.9459 7.70507L39.8597 0L11.7736 7.70507Z" fill="#E2E2E2"/>
<path d="M39.86 63.4428C35.1997 62.2001 19.044 56.9806 15.9371 43.3103C12.8923 29.9507 15.3778 18.331 16.9313 13.1115L39.9222 6.77344L62.913 13.1115C64.4043 18.2689 66.8898 29.9507 63.8451 43.3103C60.6761 56.9806 44.5203 62.2001 39.86 63.4428Z" fill="#929292"/>
<path d="M15.8751 17.3989L39.8602 11.0609L63.8453 17.3989C63.9074 17.6475 63.9696 17.896 64.0317 18.1446C63.6589 16.0941 63.2239 14.4163 62.789 13.1115L39.7981 6.77344L16.8072 13.1115C16.4344 14.4163 15.9994 16.0941 15.5645 18.1446C15.7509 17.896 15.813 17.6475 15.8751 17.3989Z" fill="#969696"/>
<path d="M67.1382 53.4382C66.5168 53.1896 65.8333 53.5003 65.5848 54.0596L59.7438 68.1026C59.4953 68.724 59.806 69.4075 60.3652 69.6561L71.6742 74.3785C73.1655 74.9999 74.2219 74.1921 73.9733 72.5766L73.6627 70.4017L73.352 68.2269L72.917 65.3065L75.3404 63.5666L77.0802 62.2617L78.8201 60.9568C80.1249 60.0248 80.0007 58.7199 78.5094 58.0985L67.1382 53.4382Z" fill="#676767"/>
<path d="M12.5814 53.4382C13.2028 53.1896 13.8863 53.5003 14.1349 54.0596L19.9758 68.1026C20.2243 68.724 19.9137 69.4075 19.3544 69.6561L8.04538 74.3785C6.55408 74.9999 5.49774 74.1921 5.74629 72.5766L6.05697 70.4017L6.36766 68.2269L6.80263 65.3065L4.37927 63.5666L2.63941 62.2617L0.899566 60.9568C-0.405322 60.0248 -0.281047 58.7199 1.21025 58.0985L12.5814 53.4382Z" fill="#676767"/>
<path d="M68.4433 66.6116C67.7598 68.1029 65.9578 68.7243 64.3422 68.1029C48.6214 61.8892 31.0986 61.8892 15.3778 68.1029C13.8244 68.7243 11.9603 68.1029 11.2768 66.6116C9.66118 63.0698 8.10773 59.5279 6.49216 56.0482C5.80864 54.5569 6.86497 52.6307 8.85337 51.8229C28.7374 43.9314 50.9205 43.9314 70.8045 51.8229C72.7929 52.6307 73.8492 54.5569 73.1657 56.0482C71.6123 59.5279 69.9967 63.0698 68.4433 66.6116Z" fill="#848484"/>
<path d="M23.6116 34.9106V23.8665H26.9547V34.9106H23.6116ZM19.7611 31.0601V27.717H30.8052V31.0601H19.7611ZM41.0769 21.7174V37H36.9279V25.538H36.8384L33.4953 27.5379V24.0157L37.2562 21.7174H41.0769ZM50.8711 37.4179C49.4831 37.4129 48.2842 37.092 47.2743 36.4553C46.2644 35.8185 45.4858 34.9006 44.9386 33.7017C44.3914 32.5028 44.1202 31.0651 44.1252 29.3885C44.1302 27.7071 44.4038 26.2793 44.9461 25.1052C45.4933 23.9312 46.2694 23.0382 47.2743 22.4263C48.2842 21.8144 49.4831 21.5084 50.8711 21.5084C52.259 21.5084 53.458 21.8169 54.4678 22.4338C55.4777 23.0457 56.2563 23.9386 56.8035 25.1127C57.3507 26.2867 57.6219 27.712 57.6169 29.3885C57.6169 31.075 57.3433 32.5177 56.796 33.7166C56.2488 34.9156 55.4703 35.8334 54.4604 36.4702C53.4555 37.102 52.259 37.4179 50.8711 37.4179ZM50.8711 34.045C51.5874 34.045 52.1745 33.6719 52.6321 32.9256C53.0948 32.1744 53.3236 30.9954 53.3187 29.3885C53.3187 28.3389 53.2142 27.4807 53.0052 26.8141C52.7963 26.1475 52.5078 25.6549 52.1396 25.3366C51.7715 25.0132 51.3486 24.8515 50.8711 24.8515C50.1547 24.8515 49.5701 25.2147 49.1174 25.941C48.6647 26.6673 48.4334 27.8165 48.4234 29.3885C48.4185 30.4581 48.5205 31.3387 48.7294 32.0302C48.9383 32.7167 49.2269 33.2241 49.595 33.5525C49.9681 33.8808 50.3935 34.045 50.8711 34.045Z" fill="#E2E2E2"/>
</svg>
