<svg width="114" height="72" viewBox="0 0 114 72" fill="none" xmlns="http://www.w3.org/2000/svg">
<path d="M79.8122 22.4371V17.6999H69.8186L65.7952 16.5967L62.9399 12.2489L59.4357 6.79786C57.8783 4.39681 55.3474 4.39681 53.79 6.79786L50.2857 12.2489L47.4304 16.5967L43.407 17.6999H33.5433V22.4371C33.4784 23.2808 33.8028 24.1893 34.5167 25.0329L38.6049 30.0946L41.8496 34.1179L41.2656 45.7987C41.1358 48.654 43.1475 50.1466 45.873 49.1083L56.7751 44.8902L67.6771 49.1083C70.3378 50.1466 72.4143 48.654 72.2197 45.7987L71.6356 34.1179L74.8803 30.0946L78.9686 25.0329C79.6175 24.1893 79.8771 23.2808 79.8122 22.4371Z" fill="#929292"/>
<path d="M77.1513 14.6497L65.8599 11.5997L63.0046 7.25183L59.5004 1.80079C57.9429 -0.600263 55.4121 -0.600263 53.8546 1.80079L50.3504 7.25183L47.4951 11.5997L36.2037 14.6497C33.4782 15.3635 32.6345 17.8294 34.4516 20.0358L38.5398 25.0975L41.7845 29.1209L41.2005 40.8017C41.0707 43.657 43.0824 45.1495 45.8079 44.1112L56.71 39.8932L67.612 44.1112C70.2726 45.1495 72.3492 43.657 72.1546 40.8017L71.5705 29.1209L74.8152 25.0975L78.9035 20.0358C80.6556 17.7645 79.8769 15.3635 77.1513 14.6497Z" fill="#E2E2E2"/>
<path opacity="0.2" d="M44.6401 12.3779L36.204 14.6492C35.2306 14.9088 34.5168 15.363 34.0625 16.012L54.3741 40.8012L56.7103 39.8927L67.6123 44.1107C68.7804 44.565 69.8187 44.5001 70.5974 44.1107L44.6401 12.3779Z" fill="white"/>
<path opacity="0.2" d="M74.8149 25.0322L54.8927 0.697266C54.5033 0.956839 54.1788 1.3462 53.8544 1.86535L50.415 7.1217L71.7 33.2088L71.5054 29.1205L74.8149 25.0322Z" fill="white"/>
<path d="M33.9326 27.5624L32.9592 24.5774L26.6645 26.589L23.939 26.7188L21.2784 24.5125L17.9688 21.7869C16.4763 20.554 14.9188 21.0731 14.3997 22.955L13.1667 27.0433L12.2582 30.3529L9.92204 31.9103L3.5625 33.922L4.5359 36.9071C4.66569 37.4262 5.05505 37.9454 5.63909 38.3996L9.20822 40.7358L12.0635 42.6177L14.0103 50.1453C14.4646 51.9623 16.0869 52.5464 17.5795 51.3134L23.6145 46.4464L31.3368 46.9006C33.2187 47.0304 34.257 45.6677 33.5432 43.8507L31.0124 36.6475L32.2453 33.4028L33.8028 29.3795C34.1272 28.7305 34.1272 28.0816 33.9326 27.5624Z" fill="#929292"/>
<path d="M30.6228 23.1502L22.9005 23.4747L20.2399 21.2683L16.9304 18.5428C15.4378 17.3098 13.8804 17.829 13.3612 19.7109L12.1931 23.8641L11.2197 27.1736L4.73042 31.3917C3.10809 32.43 3.10809 34.1172 4.73042 35.1555L8.29955 37.4916L11.1549 39.3735L13.1017 46.9012C13.5559 48.7182 15.1782 49.3022 16.6708 48.0692L22.7059 43.2022L30.4282 43.6565C32.3101 43.7863 33.3484 42.4235 32.6345 40.6065L29.9739 33.4034L31.2069 30.1587L32.7643 26.1353C33.543 24.4481 32.5047 23.0853 30.6228 23.1502Z" fill="#E2E2E2"/>
<path opacity="0.2" d="M9.59714 28.2764L4.73014 31.3912C4.1461 31.7806 3.82163 32.17 3.62695 32.6891L21.4726 44.305L22.7705 43.2667L30.4928 43.721C31.3364 43.7859 31.9853 43.5263 32.3747 43.1369L9.59714 28.2764Z" fill="white"/>
<path opacity="0.2" d="M31.272 30.1585L13.7508 18.7373C13.5561 18.9969 13.4263 19.3213 13.2965 19.7107L12.1934 23.7341L30.9475 35.934L29.9741 33.4032L31.272 30.1585Z" fill="white"/>
<path d="M79.9419 27.499L80.9153 24.5139L87.21 26.5256L89.9355 26.6554L92.5961 24.449L95.9057 21.7235C97.3982 20.4905 98.9557 21.0096 99.4748 22.8915L100.643 27.0447L101.551 30.3543L103.888 31.8468L110.247 33.8585L109.274 36.8436C109.144 37.3627 108.755 37.8819 108.171 38.3361L104.601 40.6723L101.746 42.5542L99.7993 50.0818C99.345 51.8988 97.7227 52.4829 96.2302 51.2499L90.1951 46.3829L82.4728 46.8372C80.5909 46.9669 79.5526 45.6042 80.2664 43.7872L82.9919 36.5191L81.7589 33.2745L80.2015 29.2511C79.7473 28.667 79.7473 28.0181 79.9419 27.499Z" fill="#929292"/>
<path d="M83.1871 23.0858L90.9094 23.4102L93.57 21.2039L96.8796 18.4783C98.3721 17.2454 99.9295 17.7645 100.449 19.6464L101.617 23.7996L102.525 27.1092L109.079 31.2623C110.702 32.3006 110.702 33.9878 109.079 35.0261L105.51 37.3623L102.655 39.2442L100.708 46.7718C100.254 48.5888 98.6317 49.1729 97.1391 47.9399L91.1041 43.0729L83.3818 43.5271C81.4998 43.6569 80.4616 42.2942 81.1754 40.4772L83.9009 33.2091L82.6679 29.9645L81.1105 25.9411C80.3318 24.3836 81.3052 22.956 83.1871 23.0858Z" fill="#E2E2E2"/>
<path opacity="0.2" d="M104.277 28.1475L109.144 31.2623C109.728 31.6517 110.052 32.0411 110.247 32.5602L92.4011 44.1761L91.1032 43.1378L83.3809 43.5921C82.5373 43.657 81.8884 43.3974 81.499 43.008L104.277 28.1475Z" fill="white"/>
<path opacity="0.2" d="M82.6025 30.0941L100.124 18.6729C100.318 18.9324 100.448 19.2569 100.578 19.6463L101.681 23.6696L82.927 35.8696L83.9004 33.3387L82.6025 30.0941Z" fill="white"/>
<path d="M95.4518 41.9703C94.6082 41.6458 93.6348 42.0352 93.2454 42.8788L84.9391 62.8011C84.6146 63.6447 85.004 64.6181 85.8476 65.0074L101.876 71.6914C104.018 72.5999 105.51 71.4319 105.121 69.1606L104.667 66.1106L104.212 63.0606L103.563 58.9075L107.003 56.4415L109.534 54.6245L112.064 52.8075C113.946 51.4447 113.752 49.6277 111.61 48.7192L95.4518 41.9703Z" fill="#676767"/>
<path d="M17.9041 41.9703C18.7477 41.6458 19.7211 42.0352 20.1105 42.8788L28.4168 62.8011C28.7413 63.6447 28.3519 64.6181 27.5083 65.0074L11.4797 71.6914C9.33821 72.5999 7.91056 71.4319 8.23503 69.1606L8.68928 66.1106L9.14353 63.0606L9.79247 58.9075L6.35312 56.4415L3.82228 54.6245L1.29145 52.8075C-0.590459 51.4447 -0.395779 49.6277 1.7457 48.7192L17.9041 41.9703Z" fill="#676767"/>
<path d="M97.2687 60.7241C96.2953 62.8007 93.6996 63.7092 91.4932 62.8656C69.1699 53.9752 44.2509 53.9752 21.9276 62.8656C19.7212 63.7741 17.1255 62.8656 16.1521 60.7241C13.8808 55.7273 11.6096 50.6656 9.33829 45.6688C8.36489 43.5923 9.85744 40.8019 12.7127 39.6338C40.9413 28.4072 72.4146 28.4072 100.708 39.6338C103.563 40.737 105.056 43.5274 104.082 45.6688C101.811 50.6656 99.54 55.6624 97.2687 60.7241Z" fill="#848484"/>
</svg>
