<svg width="80" height="75" viewBox="0 0 80 75" fill="none" xmlns="http://www.w3.org/2000/svg">
<path d="M11.7736 12.5517C11.7736 12.5517 4.87629 29.1425 9.5366 49.5857C14.1969 70.029 39.7976 74.9999 39.8597 74.9999C39.8597 74.9999 65.5225 70.029 70.1828 49.5857C74.8431 29.1425 67.9459 12.5517 67.9459 12.5517L39.8597 4.84668L11.7736 12.5517Z" fill="#969696"/>
<path opacity="0.8" d="M11.7736 8.32616C11.7736 8.32616 4.87629 24.9169 9.5366 45.3601C14.1969 65.8034 39.7976 70.7744 39.8597 70.7744C39.8597 70.7744 65.5225 65.8034 70.1828 45.3601C74.8431 24.9169 67.9459 8.32616 67.9459 8.32616L39.8597 0.621094L11.7736 8.32616Z" fill="white"/>
<path d="M11.7736 7.70507C11.7736 7.70507 4.87629 24.2958 9.5366 44.739C14.1969 65.1823 39.7976 70.1533 39.8597 70.1533C39.8597 70.1533 65.5225 65.1823 70.1828 44.739C74.8431 24.2958 67.9459 7.70507 67.9459 7.70507L39.8597 0L11.7736 7.70507Z" fill="#E2E2E2"/>
<path d="M39.86 63.4428C35.1997 62.2001 19.044 56.9806 15.9371 43.3103C12.8923 29.9507 15.3778 18.331 16.9313 13.1115L39.9222 6.77344L62.913 13.1115C64.4043 18.2689 66.8898 29.9507 63.8451 43.3103C60.6761 56.9806 44.5203 62.2001 39.86 63.4428Z" fill="#929292"/>
<path d="M15.8751 17.3989L39.8602 11.0609L63.8453 17.3989C63.9074 17.6475 63.9696 17.896 64.0317 18.1446C63.6589 16.0941 63.2239 14.4163 62.789 13.1115L39.7981 6.77344L16.8072 13.1115C16.4344 14.4163 15.9994 16.0941 15.5645 18.1446C15.7509 17.896 15.813 17.6475 15.8751 17.3989Z" fill="#969696"/>
<path d="M67.1382 53.4382C66.5168 53.1896 65.8333 53.5003 65.5848 54.0596L59.7438 68.1026C59.4953 68.724 59.806 69.4075 60.3652 69.6561L71.6742 74.3785C73.1655 74.9999 74.2219 74.1921 73.9733 72.5766L73.6627 70.4017L73.352 68.2269L72.917 65.3065L75.3404 63.5666L77.0802 62.2617L78.8201 60.9568C80.1249 60.0248 80.0007 58.7199 78.5094 58.0985L67.1382 53.4382Z" fill="#676767"/>
<path d="M12.5814 53.4382C13.2028 53.1896 13.8863 53.5003 14.1349 54.0596L19.9758 68.1026C20.2243 68.724 19.9137 69.4075 19.3544 69.6561L8.04538 74.3785C6.55408 74.9999 5.49774 74.1921 5.74629 72.5766L6.05697 70.4017L6.36766 68.2269L6.80263 65.3065L4.37927 63.5666L2.63941 62.2617L0.899566 60.9568C-0.405322 60.0248 -0.281047 58.7199 1.21025 58.0985L12.5814 53.4382Z" fill="#676767"/>
<path d="M68.4433 66.6116C67.7598 68.1029 65.9578 68.7243 64.3422 68.1029C48.6214 61.8892 31.0986 61.8892 15.3778 68.1029C13.8244 68.7243 11.9603 68.1029 11.2768 66.6116C9.66118 63.0698 8.10773 59.5279 6.49216 56.0482C5.80864 54.5569 6.86497 52.6307 8.85337 51.8229C28.7374 43.9314 50.9205 43.9314 70.8045 51.8229C72.7929 52.6307 73.8492 54.5569 73.1657 56.0482C71.6123 59.5279 69.9967 63.0698 68.4433 66.6116Z" fill="#848484"/>
<path d="M33.2727 35.0287V23.9847H36.6158V35.0287H33.2727ZM29.4222 31.1782V27.8352H40.4663V31.1782H29.4222ZM49.365 37.3271C48.1909 37.3271 47.1487 37.1207 46.2383 36.7077C45.3329 36.2899 44.619 35.7153 44.0967 34.984C43.5793 34.2527 43.3156 33.4119 43.3057 32.4617H47.3353C47.3502 32.9891 47.5542 33.4094 47.9472 33.7229C48.3451 34.0363 48.8178 34.193 49.365 34.193C49.7878 34.193 50.161 34.1034 50.4843 33.9243C50.8077 33.7403 51.0614 33.4816 51.2455 33.1483C51.4295 32.815 51.5191 32.4269 51.5141 31.9842C51.5191 31.5364 51.4295 31.1484 51.2455 30.8201C51.0614 30.4867 50.8077 30.2305 50.4843 30.0514C50.161 29.8674 49.7878 29.7753 49.365 29.7753C48.9272 29.7753 48.5218 29.8823 48.1486 30.0962C47.7805 30.3052 47.5094 30.5962 47.3353 30.9693L43.6937 30.2529L44.2907 21.8356H54.5587V25.1488H47.6934L47.395 28.5217H47.4845C47.7233 28.059 48.1362 27.676 48.7232 27.3725C49.3103 27.0641 49.9918 26.9099 50.7679 26.9099C51.6783 26.9099 52.4892 27.1213 53.2006 27.5441C53.9169 27.967 54.4816 28.5515 54.8945 29.2978C55.3124 30.039 55.5188 30.8947 55.5138 31.8648C55.5188 32.9294 55.2651 33.8746 54.7527 34.7004C54.2453 35.5213 53.5314 36.1655 52.611 36.6331C51.6907 37.0958 50.6087 37.3271 49.365 37.3271Z" fill="#E2E2E2"/>
</svg>
