<svg width="67" height="67" viewBox="0 0 67 67" fill="none" xmlns="http://www.w3.org/2000/svg">
<path d="M66.1328 33.6792C66.1328 51.6465 51.7084 66.1553 33.9942 66.1553C16.2799 66.1553 1.85547 51.5622 1.85547 33.6792C1.85547 15.7119 16.2799 1.20312 33.9942 1.20312C51.7927 1.20313 66.1328 15.7119 66.1328 33.6792Z" fill="#C1C1C1"/>
<path d="M31.0421 62.4435C48.1862 62.4435 62.0842 48.5455 62.0842 31.4015C62.0842 14.2574 48.1862 0.359375 31.0421 0.359375C13.898 0.359375 0 14.2574 0 31.4015C0 48.5455 13.898 62.4435 31.0421 62.4435Z" fill="#7E8083"/>
<path opacity="0.15" d="M58.6253 33.7638C58.6253 47.8508 47.2376 59.2386 33.1505 59.2386C19.0635 59.2386 7.67578 47.8508 7.67578 33.7638C7.67578 19.6768 19.0635 8.28906 33.1505 8.28906C47.2376 8.28906 58.6253 19.6768 58.6253 33.7638Z" fill="#231F20"/>
<path d="M31.0421 56.8763C45.1115 56.8763 56.5169 45.4708 56.5169 31.4015C56.5169 17.3322 45.1115 5.92676 31.0421 5.92676C16.9728 5.92676 5.56738 17.3322 5.56738 31.4015C5.56738 45.4708 16.9728 56.8763 31.0421 56.8763Z" fill="#D7D7D7"/>
<path d="M31.0421 18.3262L36.3563 24.484L43.7794 27.6051L39.5618 34.522L38.8869 42.62L31.0421 40.6798L23.1128 42.62L22.5224 34.522L18.3047 27.6051L25.7278 24.484L31.0421 18.3262Z" fill="white"/>
<path d="M31.0424 26.0029L33.2356 28.5335L36.2723 29.7988L34.5853 32.6669L34.3322 35.9566L31.0424 35.1975L27.837 35.9566L27.4996 32.6669L25.8125 29.7988L28.8492 28.5335L31.0424 26.0029Z" fill="#7E8083"/>
<path opacity="0.1" d="M53.311 19.0859C44.2008 27.69 29.6077 37.7281 8.35059 42.958C12.5683 51.2246 21.1723 56.8763 31.0417 56.8763C45.1287 56.8763 56.5164 45.4886 56.5164 31.4015C56.5164 26.9308 55.3355 22.7131 53.311 19.0859Z" fill="#231F20"/>
</svg>
