<svg width="60" height="67" viewBox="0 0 60 67" fill="none" xmlns="http://www.w3.org/2000/svg">
<path d="M57.391 39.4354L59.9997 34.6473L57.391 29.7928V18.8866L53.478 15.6946L48.5711 13.4336L46.0245 8.64554L42.1115 5.4535L40.8071 8.64554L31.9252 3.12598L23.1053 8.57904H17.95L15.3413 13.4336L6.45933 18.8866V29.7263L3.85063 34.5808L6.45933 39.3689L2.6084 47.2159L6.45933 50.3415L15.2792 55.7945L13.9749 57.457L17.8879 60.5826H23.1053L31.9252 66.1021L40.745 60.6491H45.9003L48.509 55.7945L57.391 50.3415V39.4354Z" fill="#C1C1C1"/>
<path d="M57.3914 29.7926L53.4784 26.6006L52.0498 32.4526L53.4784 36.2432L57.3914 39.5017V39.4352L60.0001 34.6472L57.3914 29.7926Z" fill="#A3A3A3"/>
<path d="M41.4287 7.11564L42.4846 8.84466L47.9504 12.3027L46.025 8.64516L42.1119 5.45312L41.4287 7.11564Z" fill="#A3A3A3"/>
<path d="M18.7582 55.5947L14.0377 57.4568H13.9756L17.8886 60.5823H23.106L19.193 57.4568L18.7582 55.5947Z" fill="#A3A3A3"/>
<path d="M48.51 55.7946L44.6591 52.6025L38.0131 53.9991L36.833 57.4571L40.7461 60.6491H45.9013L48.51 55.7946Z" fill="#A3A3A3"/>
<path d="M42.1118 5.45321L14.0994 5.38672L0 31.3885L13.9752 57.4568H42.0497L56.0869 31.5215L42.1118 5.45321Z" fill="#F1F2F2"/>
<path d="M28.0742 62.9096L2.6084 47.2155V15.6942L28.0742 0L53.478 15.6942V47.149L28.0742 62.9096Z" fill="#7E8083"/>
<path opacity="0.15" d="M48.3855 33.3834C48.3855 44.622 39.8761 53.7326 29.3792 53.7326C18.8824 53.7326 10.373 44.622 10.373 33.3834C10.373 22.1448 18.8824 13.0342 29.3792 13.0342C39.8761 13.0342 48.3855 22.1448 48.3855 33.3834Z" fill="#231F20"/>
<path d="M41.1174 45.4032C48.3214 37.6902 48.3214 25.1848 41.1174 17.4718C33.9134 9.75872 22.2334 9.75872 15.0294 17.4718C7.82536 25.1848 7.82536 37.6902 15.0294 45.4032C22.2334 53.1163 33.9134 53.1163 41.1174 45.4032Z" fill="#D7D7D7"/>
<path d="M28.0744 18.8193C29.7514 18.8193 32.857 23.9399 32.857 23.9399C32.857 23.9399 38.385 25.5359 38.8818 27.2649C39.3787 28.9939 35.8384 33.7155 35.8384 33.7155C35.8384 33.7155 36.1489 39.8336 34.7825 40.8976C33.416 41.9616 28.0744 39.7671 28.0744 39.7671C28.0744 39.7671 22.7328 41.9616 21.3663 40.8976C19.9999 39.8336 20.3104 33.7155 20.3104 33.7155C20.3104 33.7155 16.7079 28.9939 17.2669 27.2649C17.7638 25.5359 23.2918 23.9399 23.2918 23.9399C23.2918 23.9399 26.3974 18.8193 28.0744 18.8193Z" fill="white"/>
<path opacity="0.1" d="M28.0741 51.2061C38.2604 51.2061 46.5213 42.3615 46.5213 31.4554C46.5213 27.5983 45.4654 24.0073 43.6642 20.9482C34.9685 27.5318 24.1611 33.9159 10.8691 38.7704C13.6021 46.0855 20.248 51.2061 28.0741 51.2061Z" fill="#231F20"/>
</svg>
