<svg width="59" height="79" viewBox="0 0 59 79" fill="none" xmlns="http://www.w3.org/2000/svg">
<path d="M59.0001 48.0639C59.0001 69.6604 46.1341 78.2072 30.3272 78.2072C14.5204 78.2072 1.6543 69.6604 1.6543 48.0639C1.6543 26.4673 12.2228 0 28.1216 0C46.1341 0 59.0001 26.4673 59.0001 48.0639Z" fill="#7B7B7B"/>
<path d="M53.8536 46.042C53.8536 66.7196 41.8146 74.8988 26.9268 74.8988C12.0389 74.8988 0 66.7196 0 46.042C0 25.3645 12.0389 0 26.9268 0C41.8146 0 53.8536 25.3645 53.8536 46.042Z" fill="#D7D7D7"/>
<path d="M49.2591 51.0052C49.2591 68.1905 39.2419 74.8992 27.0192 74.8992C14.7045 74.8992 4.7793 68.0986 4.7793 51.0052C4.7793 33.8198 14.7964 12.8665 27.0192 12.8665C39.2419 12.7746 49.2591 33.8198 49.2591 51.0052Z" fill="#7E8083"/>
<path opacity="0.15" d="M28.4896 31.9814L34.0036 38.4145L41.8152 41.7229L37.4039 48.8911L36.6687 57.3459L28.4896 55.416L20.2186 57.3459L19.5753 48.8911L15.1641 41.7229L22.9756 38.4145L28.4896 31.9814Z" fill="#231F20"/>
<path d="M27.0189 29.7754L32.5329 36.2084L40.3445 39.4249L35.9333 46.685L35.2899 55.1399L27.0189 53.21L18.7479 55.1399L18.1046 46.685L13.6934 39.4249L21.5049 36.2084L27.0189 29.7754Z" fill="white"/>
<path opacity="0.1" d="M27.0191 74.8983C39.3337 74.8983 49.259 68.0977 49.259 51.0042C49.259 44.9388 48.0643 38.5057 45.8587 32.5322C34.9225 40.5276 21.3213 48.3391 4.87109 54.5883C6.2496 69.1086 15.6234 74.8983 27.0191 74.8983Z" fill="#231F20"/>
</svg>
