<svg width="60" height="61" viewBox="0 0 60 61" fill="none" xmlns="http://www.w3.org/2000/svg">
<path d="M59.9999 54.7078C59.9999 57.8829 57.3948 60.488 54.2197 60.488H10.0949C6.91986 60.488 0.244141 54.0565 0.244141 50.8815L4.3147 10.6644C4.3147 7.48936 6.91986 4.8842 10.0949 4.8842L51.2889 0.325195C54.4639 0.325195 59.9999 7.40794 59.9999 10.583V54.7078Z" fill="#C1C1C1"/>
<path d="M55.6852 49.905C55.6852 53.0801 53.08 55.6852 49.905 55.6852H5.78019C2.60515 55.6852 0 53.0801 0 49.905V5.78019C0 2.60516 2.60515 0 5.78019 0H49.905C53.08 0 55.6852 2.60516 55.6852 5.78019V49.905Z" fill="#7E8083"/>
<path d="M47.0559 43.0668C47.0559 45.2649 45.2649 47.0559 43.0668 47.0559H12.619C10.4209 47.0559 8.62988 45.2649 8.62988 43.0668V12.619C8.62988 10.4209 10.4209 8.62988 12.619 8.62988H43.0668C45.2649 8.62988 47.0559 10.4209 47.0559 12.619V43.0668Z" fill="#D7D7D7"/>
<path opacity="0.15" d="M29.0639 18.1543L33.8672 23.6902L40.6243 26.5396L36.798 32.8083L36.2281 40.0539L29.0639 38.4257L21.9812 40.0539L21.3299 32.8083L17.585 26.5396L24.3421 23.6902L29.0639 18.1543Z" fill="#231F20"/>
<path d="M27.8426 16.2822L32.5644 21.8182L39.3216 24.5862L35.5767 30.8548L34.9254 38.1818L27.8426 36.4722L20.6784 38.1818L20.1085 30.8548L16.2822 24.5862L23.0393 21.8182L27.8426 16.2822Z" fill="white"/>
<path opacity="0.1" d="M8.62988 40.0542V42.985C8.62988 45.1831 10.4209 46.9741 12.619 46.9741H43.0668C45.2649 46.9741 47.0559 45.1831 47.0559 42.985V17.4219C36.8795 25.4002 24.1794 33.4599 8.62988 40.0542Z" fill="#231F20"/>
</svg>
