<svg width="116" height="193" viewBox="0 0 116 193" fill="none" xmlns="http://www.w3.org/2000/svg">
<path d="M76.0549 70.1866L53.6306 110.33L37.1326 66.8203" stroke="#B28862" stroke-width="5.0164" stroke-miterlimit="10"/>
<path d="M113.429 60.9742C114.078 51.9657 89.6987 42.8675 58.9768 40.6529C28.2548 38.4383 2.82377 43.9458 2.17489 52.9543C1.52602 61.9628 25.9051 71.0609 56.627 73.2756C87.3489 75.4902 112.78 69.9827 113.429 60.9742Z" fill="#ACBFC1"/>
<mask id="mask0_45_2665" style="mask-type:luminance" maskUnits="userSpaceOnUse" x="2" y="40" width="112" height="34">
<path d="M113.429 60.9742C114.078 51.9657 89.6987 42.8675 58.9768 40.6529C28.2548 38.4383 2.82377 43.9458 2.17489 52.9543C1.52602 61.9628 25.9051 71.0609 56.627 73.2756C87.3489 75.4902 112.78 69.9827 113.429 60.9742Z" fill="white"/>
</mask>
<g mask="url(#mask0_45_2665)">
<path d="M73.1168 74.2066C73.1168 74.2066 79.7964 40.3433 60.2096 25.8484L61.4401 25.7479C61.4401 25.7479 99.6844 33.2592 96.6711 74.8346C93.6829 116.41 73.1419 73.5786 73.1419 73.5786" fill="#58A899"/>
</g>
<mask id="mask1_45_2665" style="mask-type:luminance" maskUnits="userSpaceOnUse" x="2" y="40" width="112" height="34">
<path d="M113.429 60.9742C114.078 51.9657 89.6987 42.8675 58.9768 40.6529C28.2548 38.4383 2.82377 43.9458 2.17489 52.9543C1.52602 61.9628 25.9051 71.0609 56.627 73.2756C87.3489 75.4902 112.78 69.9827 113.429 60.9742Z" fill="white"/>
</mask>
<g mask="url(#mask1_45_2665)">
<path d="M39.4931 71.7953C39.4931 71.7953 37.7353 37.3291 59.2054 25.7985L58.0001 25.5222C58.0001 25.5222 19.0777 27.4565 16.0895 69.0571C13.1012 110.658 39.5433 71.1673 39.5433 71.1673" fill="#58A899"/>
</g>
<path d="M3.38306 49.9638L53.6306 110.33L59.0546 39.4883" stroke="#8C6444" stroke-width="5.0164" stroke-miterlimit="10" stroke-linecap="round"/>
<path d="M112.868 58.2539L53.6306 110.33" stroke="#8C6444" stroke-width="5.0164" stroke-miterlimit="10" stroke-linecap="round"/>
<path d="M98.5042 113.547L29.6744 108.598L24.9033 172.154L94.1098 177.153L98.5042 113.547Z" fill="#F4C69D"/>
<mask id="mask2_45_2665" style="mask-type:luminance" maskUnits="userSpaceOnUse" x="24" y="108" width="75" height="70">
<path d="M98.5042 113.547L29.6744 108.598L24.9033 172.154L94.1098 177.153L98.5042 113.547Z" fill="white"/>
</mask>
<g mask="url(#mask2_45_2665)">
<path d="M51.4757 179.945L67.6052 181.107L72.6693 110.801L56.5397 109.638L51.4757 179.945Z" fill="#B28862"/>
<mask id="mask3_45_2665" style="mask-type:luminance" maskUnits="userSpaceOnUse" x="49" y="105" width="27" height="73">
<path d="M75.6545 108.072L59.6482 105.752L49.549 175.511L65.5552 177.831L75.6545 108.072Z" fill="white"/>
</mask>
<g mask="url(#mask3_45_2665)">
<path opacity="0.38" d="M59.3043 177.846L60.3315 177.92L65.2722 109.317L64.245 109.243L59.3043 177.846Z" fill="#8C6444"/>
</g>
</g>
<mask id="mask4_45_2665" style="mask-type:luminance" maskUnits="userSpaceOnUse" x="24" y="108" width="75" height="70">
<path d="M98.5042 113.547L29.6744 108.598L24.9033 172.154L94.1098 177.153L98.5042 113.547Z" fill="white"/>
</mask>
<g mask="url(#mask4_45_2665)">
<path d="M46.6497 152.359L31.6583 151.279C30.905 151.228 30.2521 151.781 30.2018 152.535L29.1221 167.532C29.0718 168.286 29.6243 168.939 30.3776 168.989L45.369 170.069C46.1224 170.119 46.7752 169.567 46.8255 168.813L47.9052 153.816C47.9555 153.062 47.403 152.409 46.6497 152.359Z" fill="white"/>
</g>
<path d="M7.40088 187.503L25.1043 172.179L29.6745 108.598L11.9711 123.922L7.40088 187.503Z" fill="#EFBB84"/>
<path d="M76.4316 192.478L94.1099 177.154L25.1043 172.18L7.40088 187.504L76.4316 192.478Z" fill="#CE9867"/>
<path d="M50.316 190.593L68.0194 175.269L51.898 174.113L34.1946 189.437L50.316 190.593Z" fill="#B28862"/>
<mask id="mask5_45_2665" style="mask-type:luminance" maskUnits="userSpaceOnUse" x="34" y="174" width="35" height="17">
<path d="M50.316 190.593L68.0194 175.269L51.898 174.113L34.1946 189.437L50.316 190.593Z" fill="white"/>
</mask>
<g mask="url(#mask5_45_2665)">
<path opacity="0.38" d="M59.5068 174.666L37.5596 191.974L38.8402 191.849L60.5363 174.741L59.5068 174.666Z" fill="#8C6444"/>
</g>
<path d="M85.2707 184.815L17.822 179.942C16.9431 179.866 16.2651 179.112 16.3154 178.233L19.7807 117.139" stroke="#8C6444" stroke-width="5.0164" stroke-miterlimit="10" stroke-linecap="round"/>
<path d="M58.9794 40.6697C28.8711 38.4842 3.86029 43.7345 2.25317 52.4013C2.25317 52.2003 2.25317 51.9993 2.25317 51.7733C4.46296 21.0501 31.1562 -2.08646 61.8923 0.149318C92.6033 2.35998 115.731 29.0637 113.496 59.812C113.471 60.013 113.446 60.2391 113.42 60.44C113.069 51.5974 89.0626 42.8301 58.9794 40.6697Z" fill="#FFFFFD"/>
<mask id="mask6_45_2665" style="mask-type:luminance" maskUnits="userSpaceOnUse" x="2" y="0" width="112" height="61">
<path d="M58.9794 40.6697C28.8711 38.4842 3.86029 43.7345 2.25317 52.4013C2.25317 52.2003 2.25317 51.9993 2.25317 51.7733C4.46296 21.0501 31.1562 -2.08646 61.8923 0.149318C92.6033 2.35998 115.731 29.0637 113.496 59.812C113.471 60.013 113.446 60.2391 113.42 60.44C113.069 51.5974 89.0626 42.8301 58.9794 40.6697Z" fill="white"/>
</mask>
<g mask="url(#mask6_45_2665)">
<path d="M75.2263 42.5542C75.2263 42.5542 81.479 14.4437 61.8922 0.149732L63.1227 0.0492411C63.1227 0.0492411 101.367 7.48511 98.4039 48.4326C95.4659 89.4051 75.2263 42.5542 75.2263 42.5542Z" fill="#6CC0B0"/>
</g>
<mask id="mask7_45_2665" style="mask-type:luminance" maskUnits="userSpaceOnUse" x="2" y="0" width="112" height="61">
<path d="M58.9794 40.6697C28.8711 38.4842 3.86029 43.7345 2.25317 52.4013C2.25317 52.2003 2.25317 51.9993 2.25317 51.7733C4.46296 21.0501 31.1562 -2.08646 61.8923 0.149318C92.6033 2.35998 115.731 29.0637 113.496 59.812C113.471 60.013 113.446 60.2391 113.42 60.44C113.069 51.5974 89.0626 42.8301 58.9794 40.6697Z" fill="white"/>
</mask>
<g mask="url(#mask7_45_2665)">
<path d="M41.6277 40.1175C41.6277 40.1175 39.4681 11.4041 60.9131 0.0744548L59.7078 -0.201887C59.7078 -0.201887 20.7854 1.65708 17.8474 42.6297C14.8843 83.6022 41.6277 40.1175 41.6277 40.1175Z" fill="#6CC0B0"/>
</g>
<path d="M38.5638 159.418C38.5638 159.418 42.0291 153.992 44.1384 156.881C47.2773 161.201 37.8104 166.879 37.8104 166.879C37.8104 166.879 29.4735 158.765 33.8428 155.725C36.6553 153.791 38.5638 159.418 38.5638 159.418Z" fill="#D87166"/>
</svg>
