<svg width="180" height="189" viewBox="0 0 180 189" fill="none" xmlns="http://www.w3.org/2000/svg">
<path d="M179.869 31.2741L153.698 32.2166C152.804 30.6399 151.171 30.0529 150.175 30.4014C148.938 30.8344 148.066 32.4194 148.066 32.4194C148.066 32.4194 147.159 30.6528 146.537 29.6752C145.211 27.5883 142.278 27.8377 140.969 29.1184C139.595 30.4633 138.482 32.7646 138.482 32.7646C138.482 32.7646 137.69 30.6652 136.515 29.0566C135.223 27.289 132.369 26.953 130.699 29.1184C128.851 31.5137 128.461 33.1254 128.461 33.1254C128.461 33.1254 128.1 32.2738 127.11 30.4176C126.09 28.5051 121.79 27.5716 120.676 32.3975C120.611 32.6766 120.556 33.0189 120.508 33.4117L99.2559 34.1771L92.8085 34.4093C92.8085 34.4093 89.2671 33.419 84.2203 32.0856C84.0473 32.0399 83.8724 31.9937 83.6961 31.9473C82.7514 31.6984 81.7597 31.4391 80.7304 31.1724C80.136 31.0184 79.53 30.8624 78.9141 30.7046C77.7575 30.4084 76.5697 30.1071 75.3617 29.8053C74.9215 29.6953 74.479 29.5852 74.0348 29.4754C70.4816 28.5969 66.8268 27.7318 63.4663 27.0061C62.6262 26.8247 61.8045 26.6519 61.0073 26.49C60.551 26.3972 60.0886 26.3082 59.6215 26.2225C59.5878 26.2164 59.5543 26.2101 59.5205 26.204C59.0883 26.1253 58.6516 26.0496 58.2116 25.9765C58.1579 25.9677 58.1044 25.9585 58.0506 25.9497C57.5901 25.8742 57.1257 25.8019 56.6579 25.7323C56.6495 25.731 56.6412 25.7298 56.6328 25.7285C54.6585 25.4355 52.6263 25.1954 50.5852 24.9988L51.8563 0H21.0598L22.2897 24.6921C20.5302 25.5768 20.8703 27.9719 21.5474 29.0403C21.7903 29.4236 22.2094 29.8889 22.5671 30.2577L22.6066 31.0513C21.9299 31.2488 20.8481 31.6476 20.1862 32.3193C18.8237 33.7021 18.4538 38.0114 20.3718 39.4962C21.7697 40.5785 22.6295 40.9433 23.1051 41.0611L23.1185 41.3299C22.5093 41.6333 21.3966 42.2287 20.3099 43.0228C18.5422 44.3145 18.7426 47.8173 20.908 49.4878C22.2542 50.5263 23.1098 50.8959 23.6011 51.0204L23.6142 51.2814C23.1406 51.4839 22.362 51.84 21.2867 52.4134C19.4937 53.3697 18.5613 57.2095 22.428 58.6033C22.6858 58.6963 22.965 58.7782 23.2665 58.8479C23.4766 58.8963 23.7226 58.9385 23.9973 58.9756L25.3182 85.4916C25.3182 85.4916 23.0441 105.138 22.484 118.141C22.3415 121.449 22.4228 124.906 22.6397 128.308L0 129.497V155.604L26.2237 152.979C26.271 153.175 26.305 153.307 26.3228 153.364C27.355 156.709 29.6808 155.969 30.6342 154.872C31.1111 154.324 31.5284 153.302 31.8265 152.418L32.799 152.32C33.3157 153.786 34.1957 155.936 35.2454 157.085C36.9134 158.91 39.6664 158.888 40.8321 156.761C41.9563 154.71 42.3904 152.325 42.53 151.346L42.7386 151.325C43.1082 152.368 44.119 155.009 45.2413 156.124C46.7942 157.667 49.6652 157.551 50.9754 155.151C51.8156 153.612 52.1172 151.708 52.2236 150.376L52.792 150.319C53.1442 151.263 53.6636 152.442 54.3157 153.305C55.6231 155.034 60.017 155.281 60.3602 150.341C60.3759 150.114 60.3813 149.852 60.378 149.559L78.3455 147.76C78.3455 147.76 97.8677 150.928 110.832 152.081C113.576 152.325 116.431 152.418 119.275 152.408L117.067 189H148.249L146.832 149.651C149.489 148.656 148.876 146.549 147.897 145.616C147.47 145.208 147.028 144.853 146.649 144.569L146.609 143.454C147.571 142.969 149.1 142.124 150.317 141.11C152.217 139.527 152.321 136.776 150.249 135.514C148.473 134.433 147.004 133.91 146.258 133.688L146.244 133.313C147.08 132.916 148.748 132.059 149.813 131.081C151.426 129.6 151.441 126.727 149.103 125.308C147.697 124.455 146.606 124.005 145.9 123.77L145.87 122.937C146.247 122.683 146.754 122.339 147.411 121.887C149.082 120.74 149.581 116.838 145.616 115.871L145.114 101.939C145.114 101.939 150.441 82.8928 153.034 70.1383C153.636 67.1718 154.054 64.0412 154.337 60.916L179.869 62.4567V31.2741H179.869ZM121.435 116.617C119.989 116.513 119.098 116.263 119.084 115.791C119.047 114.57 121.669 112.748 121.669 112.748L121.845 109.822L121.435 116.617ZM119.578 58.8183C119.398 59.4928 119.167 59.8517 118.869 59.7895C117.426 59.4899 115.643 58.5809 115.642 58.5808L119.578 58.8183ZM48.64 63.2571L48.8388 59.349C49.917 59.5189 50.5203 59.777 50.4406 60.1608C50.1409 61.6039 48.64 63.2571 48.64 63.2571ZM58.5383 123.665C59.9976 123.734 60.0844 126.296 60.0859 126.341L57.8869 126.457C57.8531 124.718 58.0266 123.641 58.5383 123.665ZM102.095 106.612C91.4388 109.234 75.6961 125.521 75.6961 125.521L68.3908 125.905C68.3868 125.864 67.4776 116.22 65.0669 108.05C61.9615 97.5244 47.7387 80.9821 47.7387 80.9821L48.2484 70.9594C48.7887 70.9768 56.1474 71.189 64.2961 70.1285C64.9763 70.04 65.6864 69.9122 66.4202 69.7505C67.1541 69.5888 67.9113 69.3932 68.686 69.1688C69.0732 69.0566 69.4647 68.9373 69.8599 68.8114C80.5274 65.4127 93.7463 57.2596 93.7463 57.2596L108.565 58.1539C108.565 58.1541 108.293 64.9612 109.395 73.4271C110.812 84.3091 122.264 102.877 122.264 102.877L122.233 103.389C122.233 103.389 110.385 104.573 102.095 106.612Z" fill="#F8B894"/>
<path d="M146.649 144.568L146.609 143.453C146.05 143.735 145.682 143.896 145.682 143.896C145.682 143.896 146.096 144.153 146.649 144.568Z" fill="#E2946A"/>
<path d="M119.275 152.407L117.067 188.999H148.25L146.833 149.65C146.637 149.724 146.427 149.793 146.194 149.853C145.435 150.05 132.464 152.359 119.275 152.407Z" fill="#E2946A"/>
<path d="M145.9 123.771L145.87 122.938C145.254 123.353 144.986 123.527 144.986 123.527C144.986 123.527 145.308 123.573 145.9 123.771Z" fill="#E2946A"/>
<path d="M146.258 133.688L146.244 133.312C145.929 133.462 145.728 133.549 145.728 133.549C145.728 133.549 145.918 133.587 146.258 133.688Z" fill="#E2946A"/>
<path d="M154.32 34.4235C154.269 33.5425 154.034 32.8117 153.698 32.2171C152.804 30.6404 151.171 30.0534 150.175 30.4019C148.937 30.8349 148.066 32.4199 148.066 32.4199C148.066 32.4199 147.159 30.6533 146.537 29.6757C145.211 27.5888 142.277 27.8382 140.969 29.1189C139.595 30.4638 138.482 32.7651 138.482 32.7651C138.482 32.7651 137.69 30.6658 136.514 29.0571C135.223 27.2895 132.369 26.9535 130.699 29.1189C128.851 31.5142 128.461 33.1259 128.461 33.1259C128.461 33.1259 128.1 32.2743 127.11 30.4182C126.09 28.5056 121.789 27.5721 120.676 32.398C120.611 32.6771 120.556 33.0194 120.508 33.4122C119.839 38.9059 120.666 54.7269 119.578 58.8186C119.398 59.4931 119.167 59.8521 118.869 59.79C117.425 59.4903 115.642 58.5812 115.642 58.5812L108.565 58.1542C108.565 58.1542 108.293 64.9615 109.395 73.4274C110.812 84.3095 122.264 102.877 122.264 102.877L122.233 103.39L121.812 110.375L121.435 116.617C127.002 117.019 140.82 115.263 144.726 115.714C145.045 115.751 145.341 115.805 145.616 115.872L145.114 101.94C145.114 101.94 150.441 82.8931 153.034 70.1386C153.637 67.1721 154.054 64.0415 154.337 60.9163C155.507 48.0066 154.364 35.1891 154.32 34.4235Z" fill="#E2946A"/>
<path d="M50.5851 24.9988L51.8562 0H21.0597L22.2897 24.6921C22.5513 24.5604 22.8574 24.4609 23.2178 24.4056C23.9572 24.2918 37.4532 23.7348 50.5851 24.9988Z" fill="#E2946A"/>
<path d="M22.5669 30.2578L22.6065 31.0514C22.9694 30.9454 23.2178 30.8964 23.2178 30.8964C23.2178 30.8964 22.9226 30.6247 22.5669 30.2578Z" fill="#E2946A"/>
<path d="M23.105 41.0605L23.1183 41.3293C23.4109 41.1835 23.5889 41.1042 23.5889 41.1042C23.5889 41.1042 23.4434 41.1444 23.105 41.0605Z" fill="#E2946A"/>
<path d="M23.6012 51.0195L23.6141 51.2805C23.9581 51.1334 24.1458 51.0649 24.1458 51.0649C24.1458 51.0649 23.9842 51.1166 23.6012 51.0195Z" fill="#E2946A"/>
<path d="M58.5383 123.666C59.9975 123.735 60.0844 126.297 60.0859 126.342C60.0859 126.343 60.0861 126.346 60.0861 126.346L68.391 125.908L68.3909 125.906C68.3869 125.865 67.4777 116.221 65.067 108.051C61.9614 97.5253 47.7387 80.9829 47.7387 80.9829L48.2483 70.9602C48.2273 70.9596 48.2132 70.9591 48.2132 70.9591L48.6396 63.263L48.6399 63.2581L48.8387 59.3498C43.8941 58.5703 28.955 59.6465 23.9975 58.9766L25.3184 85.4925C25.3184 85.4925 23.0443 105.139 22.4841 118.142C22.3415 121.45 22.4229 124.907 22.6398 128.309C23.3753 139.847 25.6839 150.74 26.2238 152.98C26.2712 153.176 26.3052 153.308 26.323 153.365C27.3552 156.71 29.6808 155.97 30.6344 154.873C31.1113 154.325 31.5287 153.303 31.8266 152.419C32.1246 151.534 32.3034 150.787 32.3034 150.787C32.3034 150.787 32.4839 151.427 32.7992 152.321C33.316 153.787 34.196 155.937 35.2456 157.086C36.9136 158.911 39.6667 158.889 40.8323 156.762C41.9566 154.711 42.3906 152.326 42.5302 151.347C42.5713 151.06 42.5881 150.888 42.5881 150.888C42.5881 150.888 42.6431 151.056 42.7388 151.326C43.1084 152.369 44.1192 155.01 45.2415 156.125C46.7944 157.668 49.6653 157.552 50.9756 155.152C51.8157 153.612 52.1174 151.709 52.2238 150.376C52.3008 149.411 52.2759 148.743 52.2759 148.743C52.2759 148.743 52.4594 149.427 52.7922 150.319C53.1443 151.264 53.6638 152.443 54.3159 153.306C55.6233 155.035 60.0172 155.282 60.3604 150.341C60.376 150.115 60.3815 149.853 60.3782 149.56C60.3259 144.88 57.9977 132.133 57.8869 126.458C57.8529 124.719 58.0265 123.642 58.5383 123.666Z" fill="#E2946A"/>
<path d="M46.4981 32.9254C47.3325 32.9987 47.3275 31.6965 46.4981 31.6235C39.0846 30.9707 31.658 30.4766 24.2234 30.1414C23.3859 30.1036 23.3877 31.4056 24.2234 31.4433C31.658 31.7784 39.0846 32.2725 46.4981 32.9254Z" fill="#E29377"/>
<path d="M45.7387 42.1955C46.5749 42.2523 46.5716 40.9502 45.7387 40.8938C38.7006 40.416 31.6426 40.2951 24.5925 40.5312C23.7569 40.5591 23.7531 41.8611 24.5925 41.833C31.6427 41.5968 38.7007 41.7178 45.7387 42.1955Z" fill="#E29377"/>
<path d="M47.2395 51.8199C48.0775 51.8416 48.077 50.5397 47.2395 50.518C39.8567 50.3271 32.4699 50.3508 25.0886 50.5892C24.2529 50.6161 24.2492 51.9181 25.0886 51.8911C32.4699 51.6527 39.8567 51.629 47.2395 51.8199Z" fill="#E29377"/>
<path d="M143.878 124.006C144.712 123.967 144.717 122.665 143.878 122.704C135.547 123.095 127.216 123.486 118.885 123.878C118.051 123.917 118.046 125.219 118.885 125.179C127.216 124.788 135.547 124.397 143.878 124.006Z" fill="#E29377"/>
<path d="M119.872 133.316C119.036 133.343 119.032 134.645 119.872 134.618C128.122 134.359 136.372 134.1 144.622 133.841C145.458 133.815 145.462 132.513 144.622 132.539C136.372 132.798 128.122 133.057 119.872 133.316Z" fill="#E29377"/>
<path d="M144.621 142.992C136.124 143.005 127.628 143.018 119.131 143.03C118.293 143.032 118.291 144.334 119.131 144.332C127.628 144.32 136.124 144.307 144.621 144.294C145.459 144.293 145.46 142.991 144.621 142.992Z" fill="#E29377"/>
<path d="M127.71 34.2831C127.744 42.9438 127.498 51.612 126.971 60.2568C126.92 61.0936 128.222 61.0905 128.273 60.2568C128.8 51.612 129.046 42.9438 129.012 34.2831C129.009 33.4455 127.707 33.4439 127.71 34.2831Z" fill="#C37055"/>
<path d="M138.015 33.6616C138.255 43.5217 138.07 53.3892 137.463 63.2335C137.411 64.0701 138.713 64.0671 138.764 63.2335C139.372 53.3892 139.557 43.5217 139.317 33.6616C139.297 32.8253 137.995 32.8222 138.015 33.6616Z" fill="#C37055"/>
<path d="M147.383 33.2983C146.587 42.8631 145.791 52.4279 144.995 61.9926C144.925 62.8275 146.227 62.8228 146.297 61.9926C147.093 52.4279 147.889 42.8631 148.685 33.2983C148.754 32.4633 147.452 32.468 147.383 33.2983Z" fill="#C37055"/>
<path d="M50.9904 123.994C51.0055 123.156 49.7039 123.156 49.6885 123.994C49.5474 131.798 50.1795 139.601 51.5566 147.284C51.7041 148.108 52.959 147.759 52.812 146.938C51.4554 139.369 50.8515 131.682 50.9904 123.994Z" fill="#C37055"/>
<path d="M41.1077 124.368C41.0766 123.533 39.7746 123.529 39.8059 124.368C40.1142 132.639 40.7715 140.895 41.7762 149.111C41.8766 149.932 43.1797 149.942 43.0781 149.111C42.0734 140.895 41.416 132.639 41.1077 124.368Z" fill="#C37055"/>
<path d="M32.0751 127.09C32.1401 126.254 30.8379 126.259 30.7732 127.09C30.1962 134.497 30.512 141.943 31.6815 149.28C31.8131 150.105 33.0677 149.755 32.9368 148.933C31.7863 141.716 31.5076 134.376 32.0751 127.09Z" fill="#C37055"/>
</svg>
