<svg width="15" height="15" viewBox="0 0 15 15" fill="none" xmlns="http://www.w3.org/2000/svg">
<path d="M13.0458 6.17426C13.0458 6.17426 8.73185 6.0807 8.1058 1.28681C7.90666 0.214227 7.00586 0.0813022 7.00586 0.0813022C7.00586 0.0813022 6.11031 0.234946 5.95018 1.31167C5.49971 6.18964 1.18968 6.31101 1.18968 6.31101C0.115756 6.53837 0.12745 7.18317 0.12745 7.18317C0.12745 7.18317 0.140466 7.8996 1.22089 8.03046C1.22089 8.03046 5.53482 8.12401 6.16087 12.9179C6.36001 13.9905 7.26076 14.1234 7.26076 14.1234C7.26076 14.1234 8.15636 13.9698 8.31648 12.893C8.76696 8.01507 13.077 7.89371 13.077 7.89371C14.1509 7.66634 14.1392 7.02155 14.1392 7.02155C14.1392 7.02155 14.2173 6.37572 13.0458 6.17426Z" fill="#F9DE59"/>
</svg>
