<svg width="254" height="190" viewBox="0 0 254 190" fill="none" xmlns="http://www.w3.org/2000/svg">
<path d="M163.722 120.934L136.677 113.927L144.068 60.4082L183.325 75.9121L163.722 120.934Z" fill="#ED871A"/>
<path d="M67.9689 124.659L93.0301 111.043L96.7918 77.3887L50.9658 87.5951L67.9689 124.659Z" fill="#1E1B38"/>
<path d="M90.0551 101.024C81.7775 100.59 73.5274 99.3647 65.4189 97.3719C66.9181 88.7378 67.6494 79.9255 67.5992 71.1131C77.2479 69.2803 86.8967 67.452 96.5455 65.6191C94.4887 78.5588 92.4319 91.4939 90.0551 101.024Z" fill="#CF4475"/>
<path d="M78.3128 155.965L74.8984 174.485L158.734 174.974L155.567 155.965H78.3128Z" fill="#26254A"/>
<path d="M158.552 158.172C124.578 178.072 75.0498 160 75.0498 160L75.3515 157.244L77.5363 137.352L85.0414 68.9146L124.162 60.2988L146.856 70.1761L154.333 126.423L157.835 152.783L158.552 158.172Z" fill="#E5567E"/>
<path d="M157.835 152.783C152.345 152.788 146.737 150.507 141.887 147.673C135.301 143.82 129.213 138.856 121.922 136.589C118.764 135.607 115.446 135.159 112.351 133.979C109.262 132.8 106.291 130.693 105.171 127.58C98.5021 127.224 91.9934 123.554 87.5781 118.133C111.049 123.247 132.837 126.1 154.333 126.424L157.835 152.783Z" fill="#CF4475"/>
<path d="M136.512 154.264C107.566 154.264 97.2818 165.01 75.3516 157.244L77.5364 137.353C96.7105 136.361 116.707 141.69 136.512 154.264Z" fill="#CF4475"/>
<path d="M96.792 81.0039C98.0032 87.2384 101.833 92.938 107.218 96.069C112.602 99.1999 119.463 99.6067 125.048 96.8871C130.638 94.1676 134.729 88.3079 135.186 81.9683C122.786 83.3167 110.248 83.3304 96.792 81.0039Z" fill="#8A3E2D"/>
<path d="M162.45 64.263C163.557 58.0342 160.668 52.3118 155.998 51.4817C151.327 50.6516 146.644 55.0281 145.537 61.2569C144.43 67.4857 147.318 73.2081 151.989 74.0382C156.659 74.8683 161.343 70.4918 162.45 64.263Z" fill="#8A3E2D"/>
<path d="M87.2662 73.7415C91.8038 72.3588 93.9873 66.332 92.1432 60.2803C90.2992 54.2286 85.1258 50.4437 80.5881 51.8264C76.0505 53.2092 73.867 59.2359 75.7111 65.2876C77.5552 71.3393 82.7286 75.1242 87.2662 73.7415Z" fill="#8A3E2D"/>
<path d="M83.0205 55.4818C83.0205 32.8156 98.2318 10.25 117.735 10.25C137.238 10.25 153.647 32.8156 153.647 55.4818C153.647 78.1479 137.238 92.3263 117.735 92.3263C98.2318 92.3263 83.0205 78.1479 83.0205 55.4818Z" fill="#AF5F45"/>
<path d="M83.8527 56.9176C86.5037 52.2326 88.4463 47.15 89.2964 42.2456C93.1084 40.6916 96.1068 37.2727 97.3957 32.8482C100.787 35.3621 105.289 36.3265 109.883 35.4078C114.796 39.6266 122.233 40.6459 128.435 38.0131C132.554 42.2685 139.323 43.7082 145.74 41.752C149.301 46.7706 151.842 52.5114 153.172 58.5219C154.237 50.6192 155.06 41.752 150.169 35.4535C146.695 30.9788 141.064 28.8488 135.666 27.1303C127.764 24.6164 119.724 22.5413 111.592 20.9187C106.51 19.904 101.107 19.0949 96.2485 20.9004C90.1694 23.1583 86.1381 29.2099 84.5749 35.5084C83.0117 41.8022 83.5236 48.4069 83.8527 56.9176Z" fill="#8A3E2D"/>
<path d="M159.27 42.7334C160.472 51.8749 157.825 59.0189 152.811 64.0284C152.464 55.1475 150.96 46.2483 146.847 39.0723C140.85 39.991 134.926 38.2359 131.009 34.3462C124.948 35.9322 118.472 35.2466 113.563 32.0334C106.67 33.2446 99.7865 30.4794 96.0659 24.67C94.8455 32.3396 87.9255 39.1637 87.9255 39.1637C87.9255 39.1637 85.1739 48.8171 83.8027 64.0284C80.0958 57.3552 77.4722 47.4001 79.4377 40.0276C78.0573 37.9022 77.3717 35.658 77.2849 33.4458C77.2346 32.166 77.3854 30.9044 77.7191 29.6841C78.6286 26.3657 80.8957 23.4405 83.8804 21.731C83.1308 17.7774 84.3329 13.6591 86.9839 10.8253C89.6303 8.0006 93.6663 6.53797 97.5103 7.00875C99.3477 3.60357 102.725 1.05768 106.51 0.239527C110.299 -0.57863 116.332 0.815437 119.418 3.16021C122.699 0.783442 127.416 -0.601487 131.206 0.550332C134.995 1.69758 138.761 3.92352 140.621 7.41554C144.355 7.35613 148.771 9.45865 151.65 12.2148C154.53 14.9755 155.837 18.8423 156.075 22.8234C158.799 24.6471 160.568 27.7689 161.29 31.165C162.136 35.1918 161.519 39.6117 159.27 42.7334Z" fill="#181533"/>
<path d="M161.285 31.1656C159.452 28.8163 156.719 27.2028 153.592 27.1023C154.26 23.6102 153.446 19.8577 151.385 16.9553C149.323 14.0575 146.046 12.0601 142.86 11.7721C143.825 13.9158 144.784 16.064 145.744 18.2031C142.527 14.2723 137.595 11.7995 132.521 11.571C133.883 9.94381 136.123 9.1028 138.216 9.44104C133.824 3.72307 124.989 2.04105 118.805 5.74332C113.279 2.01362 104.964 3.28428 100.81 8.49946C102.697 7.27908 105.449 7.65388 106.944 9.33591C101.614 8.59545 95.9784 11.635 93.6565 16.4891C93.2268 14.1534 93.8759 11.6441 95.3842 9.81126C89.6068 10.4694 85.3012 17.0421 87.0015 22.6001C82.5634 24.8306 79.0896 28.8163 77.2888 33.4418C77.2385 32.162 77.3893 30.9005 77.723 29.6802C78.6325 26.3618 80.8996 23.4366 83.8843 21.7271C83.1347 17.7734 84.3368 13.6552 86.9878 10.8214C89.6343 7.99669 93.6702 6.53406 97.5142 7.00485C99.3516 3.59966 102.729 1.05378 106.514 0.235621C110.303 -0.582537 116.336 0.81153 119.422 3.15631C122.703 0.779536 127.42 -0.605394 131.209 0.546426C134.999 1.69368 138.765 3.91961 140.625 7.41164C144.359 7.35222 148.775 9.45475 151.654 12.2109C154.534 14.9716 155.841 18.8384 156.079 22.8195C158.794 24.6478 160.563 27.7696 161.285 31.1656Z" fill="#312B54"/>
<path d="M90.6455 47.8219C91.9573 44.5813 95.3031 42.2731 98.7951 42.1954C102.292 42.1177 105.733 44.2751 107.187 47.4563C104.426 45.5914 100.966 44.7779 97.6615 45.2258C94.3569 45.6737 91.2397 47.3694 90.6455 47.8219Z" fill="#181533"/>
<path d="M128.289 47.7261C130.492 44.8877 134.4 43.4891 137.901 44.2935C141.402 45.098 144.314 48.0552 145.054 51.5747C140.872 47.3422 133.852 46.2589 128.289 47.7261Z" fill="#181533"/>
<path d="M105.126 60.4106C106.262 60.4106 107.183 59.1828 107.183 57.6682C107.183 56.1536 106.262 54.9258 105.126 54.9258C103.99 54.9258 103.069 56.1536 103.069 57.6682C103.069 59.1828 103.99 60.4106 105.126 60.4106Z" fill="#181533"/>
<path d="M128.29 60.4106C129.426 60.4106 130.347 59.1828 130.347 57.6682C130.347 56.1536 129.426 54.9258 128.29 54.9258C127.154 54.9258 126.233 56.1536 126.233 57.6682C126.233 59.1828 127.154 60.4106 128.29 60.4106Z" fill="#181533"/>
<path d="M116.712 57.127C116.534 60.6693 116.355 64.2116 116.182 67.7493C114.751 66.2684 113.974 64.175 114.093 62.1227C114.212 60.0705 115.226 58.0822 116.712 57.127Z" fill="#78241F"/>
<path d="M107.301 70.9216C114.075 72.9648 121.461 72.9145 128.207 70.7754C128.792 73.271 127.202 75.8854 125.012 77.2155C122.823 78.5456 120.172 78.8473 117.608 78.9295C114.897 79.021 112.05 78.8656 109.705 77.5035C107.36 76.1368 105.715 73.2299 107.301 70.9216Z" fill="white"/>
<path d="M252.49 113.059C251.073 115.564 248.742 117.57 245.99 118.434C244.043 119.047 241.954 119.138 240.021 119.796C238.083 120.459 236.209 121.945 236.008 123.979C235.861 125.45 236.625 126.858 236.78 128.33C237.073 131.091 235.13 133.714 232.671 135.008C230.212 136.292 227.342 136.507 224.567 136.521C220.819 136.539 216.916 136.214 213.657 134.368C210.393 132.517 207.944 128.782 208.629 125.094C209.37 121.145 213.415 117.918 212.688 113.969C211.842 109.366 205.727 108.434 202.111 105.458C198.304 102.327 197.431 96.6594 198.674 91.8876C199.922 87.1158 202.893 83.0113 205.772 79.0119C208.647 75.0034 210.014 69.6785 215.01 64.6278C217.286 62.3242 220.339 60.921 223.539 60.4685C227.652 59.8834 232.004 60.8616 235.249 63.4669C241.017 68.1016 242.498 77.2659 238.476 83.4775C237.169 85.4977 235.299 87.4631 235.427 89.8627C235.555 92.2944 237.763 94.1318 240.044 94.9957C242.32 95.8641 244.811 96.0881 247.051 97.0479C251.301 98.8716 254.185 103.488 253.957 108.109C253.87 109.85 253.349 111.546 252.49 113.059Z" fill="#823724"/>
<path opacity="0.502" d="M252.49 113.058C252.668 111.632 252.622 110.179 252.339 108.771C251.187 103.067 246.141 98.3636 240.368 97.6186C237.882 97.2986 235.153 97.5912 233.069 96.2017C230.902 94.7482 230.148 91.8138 230.56 89.2405C230.966 86.6672 232.324 84.359 233.649 82.1147C234.98 79.8751 236.332 77.5577 236.721 74.9798C237.205 71.8123 236.099 68.4437 233.828 66.1812C231.556 63.9233 228.178 62.8263 225.011 63.3245C224.759 62.4607 224.257 61.4323 223.553 60.4724C227.666 59.8874 232.018 60.8655 235.263 63.4708C241.031 68.1055 242.512 77.2698 238.49 83.4814C237.183 85.5016 235.313 87.467 235.441 89.8667C235.569 92.2983 237.777 94.1357 240.058 94.9996C242.334 95.868 244.825 96.092 247.064 97.0518C251.315 98.8755 254.199 103.492 253.971 108.113C253.87 109.85 253.349 111.546 252.49 113.058Z" fill="#A15A32"/>
<path d="M219.429 152.334C219.429 152.334 224.014 152.01 229.453 171.335C234.887 190.66 168.278 185.947 168.278 185.947L168.905 169.036L219.429 152.334Z" fill="#E5567E"/>
<path d="M224.451 153.089C221.809 157.294 218.569 160.759 214.972 163.607C194.737 179.627 163.163 176.263 163.163 176.263L158.647 123.467C158.583 122.74 158.551 122.013 158.551 121.296C158.574 109.229 167.747 98.9356 179.987 97.7335L192.822 96.4766C202.608 112.991 224.451 153.089 224.451 153.089Z" fill="#FDAC27"/>
<path opacity="0.2902" d="M214.972 163.606C194.737 179.626 163.163 176.262 163.163 176.262L158.647 123.466C158.583 122.739 158.551 122.013 158.551 121.295C164.159 118.607 170.613 117.529 176.834 116.546C180.55 115.961 184.33 115.376 188.055 115.888C191.784 116.4 195.514 118.178 202.937 124.115C196.113 136.433 183.708 145.511 169.904 148.28C168.213 153.418 171.193 159.218 175.668 162.253C180.143 165.288 185.756 166.088 191.158 166.275C199.171 166.554 207.215 165.635 214.972 163.606Z" fill="#ED871A"/>
<path d="M144.656 66.4507C150.817 45.7316 172.542 27.3208 191.099 32.8377C209.656 38.3545 215.754 63.9916 209.592 84.7107C203.431 105.43 179.681 110.078 161.865 105.114C146.973 100.964 138.495 87.1697 144.656 66.4507Z" fill="#FD9F7F"/>
<path d="M146.293 61.8351C149.991 57.8723 151.878 55.9115 155.54 53.1554C162.537 49.9924 170.207 48.0133 177.826 47.3871C180.08 59.856 189.317 69.7562 200.771 75.9267C201.717 76.2923 204.798 82.248 205.584 85.1047C207.376 78.2714 207.344 68.0924 206.242 61.113C205.141 54.1335 202.001 47.3506 196.763 42.6107C188.878 35.4713 176.77 33.8395 166.861 37.7018C156.952 41.564 149.383 50.4221 146.293 61.8351Z" fill="#F2836B"/>
<path d="M213.24 89.8303C210.978 90.7216 205.383 91.2152 204.935 91.0187C205.072 86.096 204.217 80.049 201.699 75.46C190.524 66.5425 182.584 55.5454 180.646 42.5417C166.829 43.7758 153.629 52.1905 153.629 52.1905C153.629 52.1905 148.322 58.4249 144.656 66.4465C144.222 58.9551 147.426 49.864 152.258 42.56C154.762 38.7663 157.706 35.4525 160.809 33.0986C169.896 26.2105 179.49 23.6555 193.033 29.3735C209.684 33.4551 219.214 42.4137 220.718 53.5114C221.006 55.6276 221.189 57.785 221.257 59.947C221.577 70.4276 219.214 81.1688 213.24 89.8303Z" fill="#8C4328"/>
<path d="M221.252 59.9515C219.726 53.3971 216.302 47.2815 211.439 42.6331C205.017 36.4901 196.164 32.966 187.278 33.0209C179.522 28.5827 169.818 30.2602 162.29 34.6663C158.593 36.8237 155.302 39.5616 152.253 42.56C154.758 38.7663 157.701 35.4525 160.805 33.0986C169.891 26.2105 179.485 23.6555 193.028 29.3735C209.679 33.4551 219.209 42.4137 220.713 53.5114C221.001 55.6322 221.188 57.7896 221.252 59.9515Z" fill="#A15A32"/>
<path d="M216.893 96.6627C220.801 91.9801 220.749 85.4976 216.778 82.1836C212.806 78.8697 206.419 79.9793 202.512 84.6619C198.604 89.3446 198.656 95.8271 202.627 99.141C206.599 102.455 212.986 101.345 216.893 96.6627Z" fill="#FD9F7F"/>
<path d="M176.021 66.265C178.353 63.262 182.654 62.3068 185.94 64.0619C189.226 65.8171 191.196 70.1135 190.483 73.9758C188.189 68.8977 182.695 65.7348 176.021 66.265Z" fill="#8C4328"/>
<path d="M179.902 76.9698C180.23 75.3645 181.418 74.2516 182.556 74.4838C183.693 74.7159 184.35 76.206 184.022 77.8108C183.694 79.416 182.506 80.529 181.368 80.2963C180.23 80.0646 179.574 78.575 179.902 76.9698Z" fill="#301E1A"/>
<path d="M156.683 72.2272C157.011 70.622 158.199 69.509 159.337 69.7417C160.475 69.9739 161.131 71.4635 160.803 73.0687C160.475 74.6739 159.288 75.7869 158.149 75.5543C157.012 75.3221 156.355 73.8325 156.683 72.2272Z" fill="#301E1A"/>
<path d="M164.178 62.1874C163.954 58.3982 160.764 55.0662 157.185 54.8834C153.606 54.696 150.123 57.6852 149.552 61.4286C151.586 59.1067 154.666 57.8543 157.647 58.1377C160.631 58.4257 163.447 60.2448 164.178 62.1874Z" fill="#8C4328"/>
<path d="M160.019 85.0189C166.153 85.2932 172.328 84.763 178.325 83.4512C179.746 86.8015 178.467 91.0066 175.578 93.2188C172.689 95.4356 168.498 95.6504 165.253 94.0049C162.007 92.3595 159.754 89.0229 160.019 85.0189Z" fill="white"/>
<path d="M166.148 72.7598C164.823 75.6805 164.055 78.8525 163.904 82.0566C162.574 80.8499 161.948 78.9119 162.318 77.1522C162.684 75.3925 164.041 73.8704 166.148 72.7598Z" fill="#DB6156"/>
<path d="M5.92688 150.131C5.92688 150.131 0.144926 157.823 1.17334 173.908C2.19718 189.992 66.8819 189.037 66.8819 189.037L67.0967 166.343L5.92688 150.131Z" fill="#2A60D0"/>
<path d="M74.8206 127.46L68.705 176.554C68.705 176.554 22.9019 182.661 0.65625 155.429L3.29355 150.245L29.7626 98.217C32.7564 91.978 39.6719 89.103 45.856 91.5209L56.716 95.7671C66.9042 99.7528 73.8105 109.507 74.8938 120.582C75.1177 122.835 75.0994 125.139 74.8206 127.46Z" fill="#26254A"/>
<path opacity="0.3686" d="M74.8206 127.461L68.705 176.555C68.705 176.555 22.9019 182.661 0.65625 155.429L3.29355 150.246C15.0494 164.356 35.2611 171.129 53.0915 166.412C57.0223 165.37 61.4147 163.108 61.8901 159.072C62.434 154.474 57.6988 151.26 53.8548 148.683C42.8896 141.333 34.5252 130.171 30.5441 117.579C41.9709 110.284 50.4313 112.601 58.5032 114.9C64.0018 116.468 69.6923 118.159 74.8938 120.582C75.1177 122.835 75.0994 125.139 74.8206 127.461Z" fill="#1E1B38"/>
<path d="M85.0543 62.0496C89.6661 82.3618 78.349 93.7886 64.5363 97.1161C43.3876 102.212 23.2079 95.0684 16.0913 73.5678C13.9157 66.9951 15.2503 59.6042 16.6444 52.9264C19.7479 38.0625 28.6608 25.4199 42.2587 23.0385C59.248 20.063 69.523 26.7225 76.1322 37.6328C80.3144 44.53 83.0294 53.1275 85.0543 62.0496Z" fill="#FFC4B3"/>
<path opacity="0.4588" d="M76.1327 37.6367C76.1235 37.8378 76.0961 38.039 76.0687 38.2401C74.1856 36.4803 71.8271 35.228 69.3132 34.6612C69.7611 35.1 70.3324 35.973 70.8992 36.846C65.4189 38.2812 59.5593 38.2721 54.0836 36.8186C54.2161 38.1532 53.9282 39.9724 53.6402 41.7869C49.9745 40.6991 46.2036 39.9404 42.4008 39.5336C43.0224 40.4294 43.4795 41.4121 43.5481 42.4314C39.5213 44.3557 35.042 45.3338 30.581 45.2607C31.0883 54.2741 28.5241 63.0956 23.3638 70.034C18.6925 64.8828 16.6586 58.854 16.6494 52.9303C19.7529 38.0664 28.6658 25.4238 42.2637 23.0424C59.253 20.0669 69.5234 26.7264 76.1327 37.6367Z" fill="#ED9F98"/>
<path d="M84.2046 32.3256C84.2595 32.5496 84.3098 32.7781 84.36 33.0112C83.2128 32.9061 82.0701 32.7964 80.9274 32.6913C83.359 40.2375 84.1452 48.3186 83.1991 56.1893C80.1778 48.2637 76.8229 40.9414 72.8875 33.9482C70.689 32.2845 68.4082 31.3841 66.0452 30.8722C65.7481 31.9554 66.1137 33.2261 66.4794 34.4967C60.478 34.8441 55.7428 34.5013 51.3549 33.0844C52.0359 34.4373 51.9994 36.613 51.2406 38.5052C46.9899 37.7876 42.7483 37.0746 38.5066 36.3616C39.0323 37.6962 39.503 38.5921 39.9693 39.4971C36.3355 42.0064 31.2895 42.2944 27.3998 40.2147C27.6512 53.9771 25.7772 67.1271 22.0566 79.7331C20.818 79.7376 18.8891 79.3583 16.9649 78.9789C9.42319 75.2766 3.92005 64.5583 2.48485 56.7927C1.84495 53.3326 1.42444 49.8635 1.45186 46.4491C1.48843 42.1984 2.21061 38.0253 4.07089 34.0579C2.94192 33.546 1.79924 32.5359 0.661133 31.5258C2.5854 30.6162 4.68336 30.0769 6.80417 29.9626C10.5476 19.7653 22.7514 10.4959 33.168 7.39697C32.5921 8.53051 32.5007 10.5736 31.9248 11.7117C43.0408 6.23601 57.4522 3.59414 68.1386 9.86972C66.7765 10.4593 64.9162 12.6807 63.5496 13.2658C72.3573 15.0712 80.7629 17.6628 84.2046 32.3256Z" fill="#FDAC27"/>
<path d="M84.2046 32.3256C81.1103 28.1754 76.183 25.3599 70.9953 25.0811C72.3162 24.784 73.6326 24.4914 74.9444 24.1898C66.8268 17.8319 55.9439 15.3454 45.9249 17.4343C48.1371 16.0173 50.3494 14.6004 52.5616 13.1881C43.3882 11.7254 33.68 14.0108 26.12 19.4088C26.6868 17.3383 27.2581 15.2723 27.8249 13.2063C19.3234 17.448 12.417 24.7931 8.70559 33.5369C5.34612 37.3397 2.89164 41.7642 1.45186 46.4491C1.48843 42.1984 2.21061 38.0253 4.07089 34.0579C2.94192 33.546 1.79924 32.5359 0.661133 31.5258C2.5854 30.6162 4.68336 30.0768 6.80417 29.9626C10.5476 19.7653 22.7514 10.4959 33.168 7.39697C32.5921 8.53051 32.5007 10.5736 31.9248 11.7117C43.0408 6.23601 57.4522 3.59414 68.1386 9.86972C66.7765 10.4593 64.9162 12.6807 63.5496 13.2658C72.3573 15.0712 80.7629 17.6628 84.2046 32.3256Z" fill="#FFC145"/>
<path d="M20.3221 86.2447C24.8493 83.4061 25.8051 76.7761 22.457 71.4361C19.1088 66.0962 12.7245 64.0685 8.19729 66.9071C3.67005 69.7457 2.71423 76.3757 6.06239 81.7157C9.41055 87.0556 15.7948 89.0833 20.3221 86.2447Z" fill="#FFC4B3"/>
<path d="M33.2959 60.3592C33.4513 56.4513 34.9505 52.3742 38.1591 50.13C41.3678 47.8903 46.4321 48.2103 48.6169 51.4555C41.738 50.9847 34.8728 55.8982 33.2959 60.3592Z" fill="#FDAC27"/>
<path d="M66.0498 47.2953C66.2829 44.3198 68.7374 41.6596 71.6901 41.1934C74.6427 40.7272 77.7965 42.5006 78.9346 45.2613C74.076 43.625 68.3854 44.7403 66.0498 47.2953Z" fill="#FDAC27"/>
<path d="M45.3552 66.0119C46.6652 65.8103 47.923 66.921 48.1648 68.4929C48.4066 70.0647 47.5409 71.5022 46.231 71.7038C44.921 71.9054 43.6631 70.7947 43.4213 69.2228C43.1796 67.651 44.0457 66.2135 45.3552 66.0119Z" fill="#30261D"/>
<path d="M69.5398 60.6506C70.8498 60.449 72.1076 61.5597 72.3494 63.1315C72.5912 64.7034 71.7255 66.1414 70.4155 66.3425C69.1056 66.5441 67.8477 65.4334 67.6059 63.8615C67.3641 62.2901 68.2298 60.8526 69.5398 60.6506Z" fill="#30261D"/>
<path d="M63.7461 63.4902C64.9939 66.9411 65.8029 70.552 66.1503 74.204C67.3707 72.5722 67.8369 70.4011 67.4072 68.4129C66.973 66.4246 65.6429 64.6512 63.7461 63.4902Z" fill="#CC6E74"/>
<path d="M71.3417 77.4199C68.7136 79.6184 65.1667 80.5463 61.7432 80.3909C58.3198 80.2355 55.0014 79.0791 51.9619 77.4931C54.4347 80.72 58.5163 82.6443 62.5751 82.498C66.6339 82.3563 70.5693 80.1486 71.3417 77.4199Z" fill="#CC6E74"/>
<path d="M114.05 113.562C113.145 108.269 111.952 103.017 110.476 97.8246C110.233 96.979 109.923 96.0603 109.086 95.5895C107.774 94.8536 105.919 95.7769 105.357 97.0476C104.794 98.3228 105.142 99.7489 105.507 101.079C105.873 102.409 106.252 103.821 105.75 105.115C102.463 102.158 98.6878 99.6117 94.5742 97.5915C92.9653 96.8008 90.8171 96.1243 89.4139 97.1756C87.805 98.3777 88.6826 100.745 90.1543 102.071C91.6261 103.396 93.6281 104.402 94.3868 106.13C92.8922 106.733 91.1233 106.28 89.6378 105.65C88.1523 105.019 86.7034 104.21 85.0625 104.086C83.4217 103.968 81.5157 104.877 81.4563 106.322C81.4014 107.638 82.7955 108.602 84.0478 109.329C82.3475 109.686 81.1455 111.326 81.4883 112.83C81.8265 114.334 83.6548 115.449 85.3779 115.212C84.2352 116.245 84.4775 118.032 85.4922 119.165C86.5069 120.299 88.0747 120.925 89.6013 121.455C95.7672 123.603 102.258 124.915 108.721 126.222C110.485 122.104 114.845 118.21 114.05 113.562Z" fill="#FD9F7F"/>
<path d="M84.5273 109.658C88.1519 111.477 92.2564 112.387 96.3335 112.268" stroke="#CC5C52" stroke-miterlimit="10" stroke-linecap="round"/>
<path d="M85.7607 115.467C89.1659 116.756 92.7676 117.542 96.4151 117.798" stroke="#CC5C52" stroke-miterlimit="10" stroke-linecap="round"/>
<path d="M167.806 137.965C163.82 138.979 159.757 139.637 155.662 139.948C136.401 141.425 116.513 135.272 101.951 122.868C103.661 118.169 105.658 114.279 108.213 110.773C122.044 117.684 138.243 120.052 153.714 117.694C156.384 117.291 159.035 116.743 161.645 116.053C162.44 115.847 163.226 115.623 164.012 115.39C164.556 123.078 166.055 130.062 167.596 137.014C167.664 137.329 167.733 137.649 167.806 137.965Z" fill="#FD9F7F"/>
<path d="M167.806 137.964C163.821 138.979 159.757 139.637 155.662 139.948C153.399 132.776 152.732 125.134 153.715 117.698C156.384 117.295 159.035 116.747 161.645 116.057C162.582 123.274 164.593 130.358 167.596 137.018C167.665 137.329 167.733 137.649 167.806 137.964Z" fill="#F2836B"/>
<path d="M188.556 103.145C176.43 104.151 165.246 110.12 153.472 114.06C154.166 124.362 157.028 134.514 162.371 145.059C171.8 143.824 181.038 141.151 189.672 137.165C194.777 134.806 199.96 131.698 202.406 126.634C204.709 121.876 204.097 115.98 201.341 111.468C198.58 106.962 193.909 102.702 188.556 103.145Z" fill="#FFC042"/>
<path d="M111.769 137.416C114.909 133.06 118.296 128.869 121.907 124.856C122.492 124.202 123.178 123.512 124.138 123.462C125.641 123.38 126.903 125.025 126.844 126.415C126.784 127.804 125.847 128.938 124.938 129.966C124.023 130.999 123.064 132.101 122.945 133.481C127.2 132.27 131.711 131.648 136.291 131.639C138.083 131.634 140.309 131.977 141.109 133.536C142.023 135.323 140.195 137.064 138.289 137.608C136.383 138.152 134.143 138.171 132.699 139.391C133.777 140.593 135.564 140.963 137.173 141.05C138.782 141.137 140.441 141.045 141.968 141.663C143.495 142.275 144.802 143.934 144.221 145.26C143.691 146.466 142.014 146.718 140.569 146.818C141.941 147.888 142.293 149.89 141.328 151.092C140.364 152.294 138.234 152.491 136.785 151.517C137.356 152.948 136.351 154.447 134.943 155.018C133.535 155.589 131.848 155.462 130.244 155.265C123.763 154.479 117.355 152.801 110.979 151.128C111.212 146.658 109.009 141.242 111.769 137.416Z" fill="#FFC4B3"/>
<path d="M139.998 146.906C135.94 146.942 131.858 145.95 128.247 144.049" stroke="#CC5C52" stroke-miterlimit="10" stroke-linecap="round"/>
<path d="M136.333 151.577C132.708 151.234 129.125 150.356 125.742 148.98" stroke="#CC5C52" stroke-miterlimit="10" stroke-linecap="round"/>
<path d="M52.7607 135.67C55.8917 138.335 59.2511 140.717 62.7934 142.796C79.44 152.596 100.004 155.827 118.542 151.101C119.077 146.133 118.995 141.759 118.245 137.485C102.787 137.604 87.1965 132.599 74.3391 123.672C72.1177 122.137 69.9832 120.477 67.9401 118.709C67.3185 118.174 66.706 117.63 66.1072 117.072C62.2358 123.736 57.8159 129.349 53.3732 134.912C53.163 135.163 52.9619 135.419 52.7607 135.67Z" fill="#FFC4B3"/>
<path d="M52.7607 135.671C55.8917 138.336 59.2511 140.717 62.7934 142.797C67.9812 137.353 71.944 130.785 74.3391 123.673C72.1177 122.137 69.9832 120.478 67.9401 118.709C63.9224 124.779 58.9998 130.255 53.3732 134.912C53.163 135.164 52.9619 135.42 52.7607 135.671Z" fill="#F7B3A7"/>
<path d="M49.4521 95.2704C59.8962 101.509 67.3145 111.794 76.1542 120.514C70.9985 129.459 63.9596 137.316 54.5211 144.433C46.6 139.172 39.4788 132.709 33.4821 125.332C29.9352 120.967 26.6534 115.893 26.6808 110.271C26.7083 104.988 29.8529 99.9599 34.3139 97.1261C38.7658 94.2877 44.8403 92.5188 49.4521 95.2704Z" fill="#343059"/>
<path d="M14.82 98.136C17.6447 93.9263 22.1377 90.8914 27.6591 89.5065C30.0633 88.9031 32.6412 89.4288 34.5289 91.0331C35.9001 92.1986 36.9697 93.7709 37.5776 95.4667C38.7705 98.7896 38.446 102.483 37.5547 105.902C37.2211 107.186 36.7777 108.498 35.6899 109.343C35.0637 109.832 34.241 110.066 33.4776 109.86C31.7911 109.412 31.4117 107.328 31.5168 105.646C31.6174 104.032 31.8505 102.204 30.7672 100.956C28.8704 104.645 28.0522 108.882 28.4407 113.009C28.5733 114.421 28.8429 115.847 28.6053 117.246C28.3676 118.645 27.4717 120.053 26.0868 120.372C24.7065 120.692 23.0701 119.367 23.4769 118.009C23.4084 119.202 23.3352 120.414 22.8873 121.52C22.4394 122.626 21.5481 123.622 20.3826 123.874C19.217 124.125 17.8367 123.394 17.6538 122.214C17.7772 123.069 17.3293 123.974 16.5797 124.399C15.8301 124.824 14.0978 124.605 13.6499 124.189C12.5849 123.202 12.3655 119.856 12.2101 118.814C11.7713 115.98 11.6205 102.899 14.82 98.136Z" fill="#AF5F45"/>
<path d="M23.3211 118.274C21.4517 113.749 21.0769 108.616 22.2699 103.867" stroke="#4F1A1B" stroke-miterlimit="10" stroke-linecap="round"/>
<path d="M17.7908 122.058C15.6288 117.414 15.0301 112.057 16.1225 107.057" stroke="#4F1A1B" stroke-miterlimit="10" stroke-linecap="round"/>
<path d="M215.265 108.872C212.44 104.663 207.947 101.628 202.425 100.243C200.021 99.6395 197.443 100.165 195.556 101.769C194.184 102.935 193.115 104.507 192.507 106.203C191.314 109.526 191.639 113.219 192.53 116.638C192.863 117.922 193.307 119.234 194.395 120.08C195.021 120.569 195.844 120.802 196.607 120.596C198.293 120.148 198.673 118.064 198.568 116.382C198.467 114.769 198.234 112.94 199.317 111.692C201.214 115.381 202.032 119.618 201.644 123.745C201.511 125.158 201.242 126.584 201.479 127.982C201.717 129.381 202.613 130.789 203.998 131.109C205.378 131.429 207.014 130.103 206.608 128.746C206.676 129.939 206.749 131.15 207.197 132.256C207.645 133.362 208.536 134.359 209.702 134.61C210.868 134.861 212.248 134.13 212.431 132.951C212.307 133.806 212.755 134.711 213.505 135.136C214.254 135.561 215.987 135.341 216.435 134.925C217.5 133.938 217.719 130.592 217.874 129.55C218.313 126.716 218.464 113.635 215.265 108.872Z" fill="#AF5F45"/>
<path d="M206.763 129.016C208.632 124.491 209.007 119.358 207.814 114.609" stroke="#4F1A1B" stroke-miterlimit="10" stroke-linecap="round"/>
<path d="M212.294 132.8C214.456 128.156 215.055 122.799 213.962 117.799" stroke="#4F1A1B" stroke-miterlimit="10" stroke-linecap="round"/>
</svg>
