<svg width="136" height="83" viewBox="0 0 136 83" fill="none" xmlns="http://www.w3.org/2000/svg">
<path d="M97.9706 34.3617C97.9706 34.3617 105.344 21.3903 97.2879 14.7681C89.232 8.14589 78.2405 21.5951 78.2405 21.5951C78.2405 21.5951 78.5135 -1.41195 64.1085 0.0899939C49.7035 1.59194 47.9284 18.9326 47.9284 18.9326C47.9284 18.9326 38.985 5.89297 26.7647 11.3546C14.5443 16.8162 17.9578 30.1289 17.9578 30.1289C17.9578 30.1289 1.846 28.3539 0.139238 40.9839C-1.70406 53.6139 15.3635 55.662 15.3635 55.662C15.3635 55.662 6.48837 66.4487 14.3395 73.2075C22.1223 79.8979 32.2945 69.6574 32.2945 69.6574C32.2945 69.6574 36.5273 81.7412 45.9486 81.4682C55.3699 81.1951 60.7633 68.0189 60.7633 68.0189C60.7633 68.0189 69.9115 81.8095 81.927 77.2354C93.9426 72.6613 92.1676 60.3727 92.1676 60.3727C92.1676 60.3727 109.577 62.3525 111.01 49.7908C112.307 37.1608 97.9706 34.3617 97.9706 34.3617Z" fill="white"/>
<path d="M93.8062 46.2412C93.8062 49.1085 90.2561 51.498 85.9551 51.498C81.5858 51.498 78.104 49.1768 78.104 46.2412C78.104 43.3738 81.6541 40.9844 85.9551 40.9844C90.2561 40.9844 93.8062 43.3738 93.8062 46.2412Z" fill="#FFC7D8"/>
<path d="M42.3985 49.7216C42.3985 52.589 38.8484 54.9785 34.5474 54.9785C30.1781 54.9785 26.6963 52.6573 26.6963 49.7216C26.6963 46.8543 30.2463 44.4648 34.5474 44.4648C38.8484 44.5331 42.3985 46.8543 42.3985 49.7216Z" fill="#FFC7D8"/>
<path d="M74.1442 42.4171C74.2124 41.7344 74.2807 41.0516 74.5538 40.4372C74.7586 39.9593 75.0317 39.0718 75.6461 39.0035C75.6461 39.0035 76.124 40.0959 76.124 40.3007C76.124 41.3247 76.3971 42.4171 76.875 43.3728C77.5577 44.8065 79.8106 44.3969 80.2202 42.9632C80.6298 41.393 80.0837 39.4814 79.4692 38.0477C78.7865 36.4775 77.4211 35.7266 75.7144 35.7266C72.2326 35.7266 71.3451 39.8911 71.5499 42.5536C71.6182 44.1238 74.0076 44.1238 74.1442 42.4171Z" fill="#222A42"/>
<path d="M41.5791 46.9242C41.4426 46.1049 41.5108 45.2174 41.7156 44.3982C41.8522 43.7838 42.057 42.5549 42.6032 42.4184C43.0128 42.2818 43.4907 44.3982 43.4907 44.603C43.7638 45.8319 43.9686 46.9925 45.1292 47.7434C45.8801 48.2213 46.8359 47.6069 46.8359 46.7877C46.9042 44.0568 45.5388 38.5269 41.7839 39.4827C38.5752 40.302 38.3704 44.6713 38.9848 47.2655C39.3262 48.6992 41.7839 48.4261 41.5791 46.9242Z" fill="#222A42"/>
<path d="M53.0488 47.6736C53.2536 49.79 53.5266 51.0189 55.0969 52.5891C56.7354 54.2276 58.9883 55.0468 61.2412 54.9786C65.1326 54.842 68.7509 50.2679 67.5903 46.5131C67.1807 45.2842 65.5422 45.0111 64.7912 46.1717C63.8355 47.6736 63.3576 49.4487 61.9239 50.541C59.4662 52.3843 56.2575 49.7218 55.4382 47.4688C54.9603 46.1717 52.9122 46.24 53.0488 47.6736Z" fill="#222A42"/>
<path d="M104.798 52.3846C108.757 54.8423 113.331 56.0712 117.701 57.5048C121.729 58.802 127.122 60.0308 131.082 57.8462C131.355 57.7096 131.355 57.2318 131.082 57.027C127.805 55.1837 123.231 55.5933 119.68 54.7058C115.106 53.6134 110.191 52.5894 105.89 50.6096C104.661 50.0634 103.637 51.7019 104.798 52.3846Z" fill="#222A42"/>
<path d="M131.013 52.7269C130.262 53.4779 129.511 54.1606 128.692 54.775C128.351 55.0481 127.873 55.4577 127.668 55.8673C127.463 56.2087 127.327 56.55 127.054 56.8231C126.78 57.0962 126.985 57.5058 127.327 57.5058C127.736 57.5058 128.214 57.5741 128.624 57.5741C129.17 57.5741 129.784 57.1645 130.262 56.8914C131.218 56.3452 132.037 55.3212 132.788 54.5702C133.949 53.3414 132.174 51.5663 131.013 52.7269Z" fill="#222A42"/>
<path d="M127.259 57.8463C128.214 58.7339 129.375 59.2118 130.604 59.6896C131.901 60.1675 133.062 60.7137 134.495 60.3723C134.837 60.3041 134.905 59.8945 134.768 59.6214C133.676 57.3002 130.604 57.7781 128.829 56.2761C127.736 55.3886 126.234 56.8906 127.259 57.8463Z" fill="#222A42"/>
<path d="M127.668 57.8467C128.692 57.8467 129.784 57.7102 130.877 57.6419C131.423 57.5737 132.037 57.3689 132.584 57.3689C133.198 57.3689 134.017 57.3689 134.563 57.0958C135.997 56.2765 134.905 54.365 133.471 55.1842C133.744 55.1159 134.017 55.1159 134.359 55.0477C131.969 54.5698 129.784 55.389 127.463 55.7986C126.166 55.8669 126.508 57.8467 127.668 57.8467Z" fill="#222A42"/>
<path d="M15.8415 53.6129C12.0866 57.0947 8.94619 60.9179 6.42019 65.4237C5.25959 67.4718 4.91824 69.9295 4.37208 72.2507C3.89418 74.2306 3.41629 76.2104 5.12305 77.5758C5.60094 77.9172 6.21537 77.8489 6.42019 77.2345C7.71732 73.5479 8.12694 69.6565 9.8337 66.1747C11.7453 62.215 14.4761 58.4601 17.2069 54.9783C17.8896 54.0226 16.729 52.7254 15.8415 53.6129Z" fill="#222A42"/>
<path d="M4.71346 74.6417C3.14324 75.6658 2.59708 77.0312 2.18746 78.7379C2.05091 79.4206 1.98264 80.1716 1.98264 80.8543C1.91437 81.537 2.46053 81.8784 2.80189 82.3563C3.14324 82.7659 3.75767 82.4245 3.75767 81.9467C3.75767 82.2197 4.23556 81.4005 4.30383 81.1957C4.50864 80.7178 4.78172 80.3082 4.84999 79.762C5.12308 78.4649 5.60097 77.3725 6.2154 76.212C6.82983 75.2562 5.73751 74.0273 4.71346 74.6417Z" fill="#222A42"/>
<path d="M5.32788 75.5979C5.32788 76.6902 5.60096 77.7825 5.94231 78.8066C6.28367 79.8306 6.4202 81.1278 7.23945 81.947C7.85388 82.5614 8.87794 82.0835 8.94621 81.2643C9.01448 79.2845 7.5808 77.5094 7.37599 75.5979C7.30772 74.3007 5.32788 74.3007 5.32788 75.5979Z" fill="#222A42"/>
<path d="M5.73736 76.4171C6.55661 76.895 7.44412 77.1681 8.26336 77.646C9.01434 78.0556 10.1749 78.1239 10.9259 77.646C11.3355 77.3729 11.4038 76.895 11.0624 76.4854C10.448 75.871 10.1067 75.4613 9.15088 75.3248C9.35569 75.3931 9.5605 75.4614 9.83358 75.5296C8.94607 74.9835 7.92202 74.7104 7.0345 74.1642C5.60083 73.2767 4.30369 75.5296 5.73736 76.4171Z" fill="#222A42"/>
</svg>
