<svg width="17" height="12" viewBox="0 0 17 12" fill="none" xmlns="http://www.w3.org/2000/svg">
<path d="M13.0611 3.12479C13.0611 3.12479 13.0053 0.520887 11.221 0.0474508C9.43679 -0.425985 7.90344 2.7993 7.90344 2.7993C7.90344 2.7993 6.06343 -0.366806 4.00038 0.639246C1.96521 1.6453 3.10824 4.33796 3.10824 4.33796C3.10824 4.33796 -0.543911 4.69304 0.069428 7.08981C0.682767 9.51617 3.41491 9.07232 3.41491 9.07232C3.41491 9.07232 3.41491 11.2916 5.47796 11.6762C7.54101 12.0609 8.4889 9.19069 8.4889 9.19069C8.4889 9.19069 10.301 12.8302 12.3641 11.8242C14.3993 10.8181 13.535 8.12545 13.535 8.12545C13.535 8.12545 17.5496 7.4153 16.9363 5.01853C16.3508 2.59217 13.0611 3.12479 13.0611 3.12479Z" fill="white"/>
</svg>
