<svg width="137" height="79" viewBox="0 0 137 79" fill="none" xmlns="http://www.w3.org/2000/svg">
<path d="M33.6707 34.7905C33.6707 34.7905 29.5062 20.4537 37.4256 16.6306C45.2767 12.8074 54.9028 22.9114 54.9028 22.9114C54.9028 22.9114 53.8105 0.996687 68.2838 0.0409028C82.7571 -0.914881 84.3955 15.1969 84.3955 15.1969C84.3955 15.1969 91.0178 0.86013 103.989 4.20537C116.96 7.55062 113.479 22.5018 113.479 22.5018C113.479 22.5018 132.458 17.245 133.618 30.0116C134.779 42.7098 122.559 45.9868 122.559 45.9868C122.559 45.9868 132.731 51.9946 127.815 61.1428C122.968 70.2228 109.997 63.9419 109.997 63.9419C109.997 63.9419 110.065 74.319 96.6842 76.5719C83.3032 78.8248 79.8897 65.7169 79.8897 65.7169C79.8897 65.7169 73.1992 80.8729 60.5692 78.3469C47.9392 75.8209 47.6661 63.3957 47.6661 63.3957C47.6661 63.3957 30.1889 67.3554 23.9081 54.0427C17.6272 40.7982 33.6707 34.7905 33.6707 34.7905Z" fill="white"/>
<path d="M58.9308 39.842C58.8626 41.0709 57.7702 42.0267 56.4731 41.9584C55.2442 41.8901 54.2884 40.7978 54.3567 39.5007C54.425 38.2718 55.5173 37.316 56.8144 37.3843C58.0433 37.5208 58.9991 38.6132 58.9308 39.842Z" fill="#222A42"/>
<path d="M97.8449 39.3655C97.7766 40.5943 96.6843 41.5501 95.3872 41.4818C94.1583 41.4136 93.2025 40.3212 93.2708 39.0241C93.339 37.7952 94.4314 36.8395 95.7285 36.9077C97.0256 37.0443 97.9132 38.1366 97.8449 39.3655Z" fill="#222A42"/>
<path d="M71.0827 46.6011C71.151 46.5328 71.2193 46.3963 71.2193 46.328C70.6048 46.0549 69.9904 45.7818 69.3077 45.5087C66.3721 55.7493 86.4435 57.3195 86.3753 46.6011C86.3753 44.8943 83.9175 44.0751 83.03 45.7136C82.4839 46.7376 82.2108 47.8982 81.4598 48.7857C80.2309 50.2194 77.6367 50.4925 75.9299 50.2194C73.1308 49.7415 72.2433 48.0348 71.2875 45.577C70.7414 44.2116 68.8298 45.0309 69.376 46.3963C69.4442 46.4645 69.4442 46.6011 69.5125 46.6694C69.9221 47.2155 70.8096 47.079 71.0827 46.6011Z" fill="#222A42"/>
<path d="M116.483 48.1028C116.278 50.9701 112.591 53.0865 108.222 52.7452C103.921 52.4038 100.576 49.8095 100.78 46.9422C100.985 44.0748 104.672 41.9585 109.041 42.2998C113.342 42.5729 116.687 45.1672 116.483 48.1028Z" fill="#FFC7D8"/>
<path d="M56.3363 51.1067C56.1315 53.9741 52.4449 56.0904 48.0756 55.7491C43.7746 55.4077 40.4294 52.8135 40.6342 49.9461C40.839 47.0787 44.5256 44.9624 48.8949 45.3037C53.1959 45.5768 56.5411 48.1711 56.3363 51.1067Z" fill="#FFC7D8"/>
<path d="M6.70407 59.5716C10.732 60.1178 14.7599 59.7082 18.7879 59.0255C21.587 58.5476 26.0246 57.2505 27.1852 54.3148C27.3217 53.9735 26.9803 53.6321 26.639 53.6321C23.7716 53.4956 20.6312 54.9293 17.9004 55.8168C14.6234 56.9091 10.5272 56.7043 7.04542 57.0456C5.74828 57.2505 5.20212 59.3668 6.70407 59.5716Z" fill="#222A42"/>
<path d="M2.47104 55.6125C3.08547 56.2952 3.69991 56.9097 4.24607 57.5924C4.92877 58.2751 5.33839 58.9578 6.36244 59.0943C6.97687 59.1626 7.45476 58.5482 7.45476 58.002C7.52303 57.0462 6.70379 56.3635 6.15763 55.6808C5.61147 54.9981 4.99703 54.3154 4.45087 53.6327C3.35855 52.199 1.24217 54.2471 2.47104 55.6125Z" fill="#222A42"/>
<path d="M1.31054 58.2759C2.33459 58.8903 3.22211 59.2317 4.3827 59.3682C5.61157 59.4365 6.9087 59.7095 7.93275 58.9586C8.61546 58.4807 8.61546 57.3883 7.72795 57.1153C6.90871 56.9105 6.08946 57.1153 5.27022 57.047C4.17789 56.9787 3.49519 56.8422 2.53941 56.296C1.174 55.5451 0.0134025 57.5249 1.31054 58.2759Z" fill="#222A42"/>
<path d="M4.17775 62.029C3.76813 62.4386 3.42678 62.2338 4.04121 62.3021C4.31429 62.3021 4.58737 62.1656 4.86045 62.1656C5.54315 62.0973 6.02105 61.8925 6.63548 61.6194C7.31818 61.278 8.00088 60.8684 8.54704 60.3905C8.88839 60.0492 9.0932 59.7078 9.22974 59.2299C9.29802 58.8886 9.0932 58.6155 9.16147 58.3424C9.22974 57.8645 8.82013 57.3184 8.27396 57.4549C7.59126 57.6597 7.0451 57.7962 6.43067 58.1376C6.08932 58.3424 5.74796 58.6155 5.33834 58.8886C5.2018 59.0251 4.99699 59.0934 4.79218 59.1617C4.45082 59.2982 4.45083 59.3665 4.92872 59.2299C3.76813 59.2982 2.12964 59.8444 2.12964 61.278C2.19791 62.2338 3.42677 62.7117 4.17775 62.029Z" fill="#222A42"/>
<path d="M122.217 47.8308C125.221 51.5857 128.567 55.4088 130.137 60.0512C131.502 64.2157 130.546 68.4485 130.956 72.6812C131.024 73.1591 131.707 73.637 132.048 73.1591C134.711 69.6773 134.233 64.3522 133.072 60.3926C131.366 54.7261 127.542 50.6982 123.583 46.4654C122.695 45.5097 121.398 46.8751 122.217 47.8308Z" fill="#222A42"/>
<path d="M129.659 74.8668C130.137 74.2524 130.614 73.638 131.161 73.0918C131.502 72.7504 131.843 72.4091 132.185 71.9995C132.321 71.8629 132.39 71.6581 132.458 71.4533C132.458 71.3168 132.526 71.1802 132.526 71.1119C132.458 70.7706 132.458 70.7706 132.526 71.1802C132.458 71.3168 132.321 71.4533 132.253 71.5898C132.321 71.5898 132.321 71.5216 132.39 71.5216C132.731 71.2485 132.799 70.5658 132.253 70.4975C132.321 70.5658 132.39 70.6341 132.458 70.7023C132.39 70.5658 132.253 70.4293 132.116 70.361C131.912 70.2244 131.57 70.0879 131.297 70.0879C130.615 70.1562 130.068 70.4292 129.522 70.8389C128.839 71.385 128.157 72.3408 127.747 72.887C127.269 73.5014 127.133 74.3207 127.747 74.9351C128.157 75.413 129.181 75.4812 129.659 74.8668Z" fill="#222A42"/>
<path d="M133.414 76.9139C133.619 75.4119 134.028 73.9783 134.028 72.4763C134.028 71.5205 133.482 69.882 132.799 69.1993C132.663 69.0628 132.39 68.9945 132.185 69.1311C131.229 69.8138 131.161 70.9061 131.297 72.0667C131.502 73.5686 131.161 75.0706 131.093 76.5725C131.093 77.8697 133.209 78.211 133.414 76.9139Z" fill="#222A42"/>
<path d="M132.321 72.2716C133.004 72.5446 133.277 72.9543 133.823 73.4322C134.028 73.5687 134.369 73.91 134.438 73.9783C134.643 74.2514 134.779 74.3879 135.052 74.5245C135.257 74.661 135.462 74.7293 135.735 74.7293C135.53 74.661 135.53 74.7293 135.803 74.7293C136.076 74.7976 136.349 74.7293 136.486 74.5245C138.193 72.5446 135.257 70.1552 133.414 69.609C132.799 69.4725 132.117 69.7456 131.843 70.2917C131.502 70.9061 131.639 71.9302 132.321 72.2716Z" fill="#222A42"/>
</svg>
