<svg width="17" height="21" viewBox="0 0 17 21" fill="none" xmlns="http://www.w3.org/2000/svg">
<path d="M14.8329 8.80595C14.8329 8.80595 9.92798 8.67251 9.21618 1.83469C8.98975 0.304807 7.96555 0.115209 7.96555 0.115209C7.96555 0.115209 6.94733 0.33436 6.76527 1.87016C6.25308 8.82789 1.35265 9.00101 1.35265 9.00101C0.131613 9.32531 0.144909 10.245 0.144909 10.245C0.144909 10.245 0.159708 11.2669 1.38814 11.4536C1.38814 11.4536 6.29301 11.587 7.00481 18.4248C7.23124 19.9547 8.25537 20.1443 8.25537 20.1443C8.25537 20.1443 9.27365 19.9251 9.45572 18.3894C9.96791 11.4316 14.8683 11.2585 14.8683 11.2585C16.0894 10.9342 16.0761 10.0145 16.0761 10.0145C16.0761 10.0145 16.1649 9.09331 14.8329 8.80595Z" fill="#F9DE59"/>
</svg>
