<svg width="73" height="80" viewBox="0 0 73 80" fill="none" xmlns="http://www.w3.org/2000/svg">
<path d="M48.3677 67.6314C48.3677 74.4703 42.8313 80.0008 36.0096 80.0008C29.1878 80.0008 23.6514 74.4593 23.6514 67.6314L36.394 65.1465L48.3677 67.6314Z" fill="#FFC82C"/>
<path d="M72.018 62.0231V64.8488C72.018 66.3771 70.7767 67.6196 69.2498 67.6196H2.76824C1.24131 67.6196 0 66.3771 0 64.8488V62.0231C0 61.0335 0.527283 60.1209 1.37313 59.6262L8.04106 55.7229L8.52441 55.4371C8.70017 55.3381 8.87593 55.2281 9.04071 55.1072C11.3586 53.5239 12.7537 50.8851 12.7537 48.0594V29.1149C12.7537 18.2628 20.1686 9.14788 30.2089 6.57504C30.176 6.33315 30.165 6.09126 30.165 5.84937C30.165 2.61682 32.7794 0 36.009 0C39.2386 0 41.8531 2.61682 41.8531 5.84937C41.8531 6.09126 41.8421 6.34414 41.8091 6.57504C45.8956 7.63056 49.5536 9.7636 52.4537 12.6663C56.6609 16.8774 59.2644 22.6938 59.2644 29.1259V48.0704C59.2644 50.8961 60.6595 53.5349 62.9773 55.1182C63.1421 55.2281 63.3179 55.3381 63.4936 55.448L63.977 55.7339L70.6449 59.6372C71.5017 60.1319 72.018 61.0335 72.018 62.0231Z" fill="#FFC82C"/>
<path d="M38.2283 5.78339C38.2722 4.62891 37.9537 3.45244 37.3055 2.49587C36.5695 1.41836 35.4271 0.615721 34.1748 0.296864C34.757 0.109949 35.3722 0 36.0093 0C39.2389 0 41.8534 2.61682 41.8534 5.84937C41.8534 6.09126 41.8424 6.34414 41.8094 6.57504L38.2283 5.78339Z" fill="#EFA31D"/>
<path d="M31.3073 12.2807C30.2527 10.6644 28.1216 10.1586 26.4409 11.1152C21.6734 13.864 17.9275 18.3829 16.2028 23.6166C15.8733 24.6281 15.6096 25.7606 16.06 26.7172C16.6862 28.0806 18.3669 28.5204 19.8389 28.8062C21.7063 29.1581 23.8704 29.444 25.2875 28.1795C26.5837 27.036 26.6935 25.1009 27.056 23.4077C27.5943 20.9338 28.9235 18.6468 30.758 16.9096C32.0433 15.7111 32.2739 13.754 31.3073 12.2807Z" fill="#FFE473"/>
<path d="M23.9692 35.4033C24.1999 34.0619 23.1454 32.8524 21.7942 32.8854C20.5309 32.9184 19.2457 32.9624 18.1362 32.9074C17.521 32.8744 16.8399 32.8634 16.3676 33.2593C15.8513 33.6881 15.7744 34.4357 15.7414 35.1064C15.6755 36.151 15.6206 37.1845 15.5547 38.229C15.4778 39.5484 15.4558 41.0328 16.3346 42.0223C17.1915 42.9899 18.7074 43.1438 19.9048 42.682C21.3987 42.1103 22.4863 40.7469 23.0904 39.2626C23.409 38.4929 23.7276 36.8327 23.9692 35.4033Z" fill="#FFE473"/>
<path d="M6.66807 60.0113C6.87679 59.5715 6.39345 59.1207 5.96503 59.3626L4.72372 60.0993C4.10855 60.4621 3.46043 60.858 3.07596 61.4627C2.53769 62.3093 2.59262 63.3978 2.66952 64.3984C2.6805 64.4973 2.69148 64.5963 2.70247 64.6952C2.79035 65.3219 3.32862 65.7947 3.96575 65.7947C4.62486 65.7947 5.17411 65.3 5.24002 64.6403C5.39381 62.947 6.08586 61.2098 6.66807 60.0113Z" fill="#FFE473"/>
<path d="M31.5048 6.17969C31.4279 4.49745 32.1309 2.77122 33.0427 1.90262C33.3832 1.58376 33.9215 1.77068 34.0204 2.24346C34.0643 2.44137 33.9874 2.63929 33.8775 2.80421C32.7681 4.39849 32.9768 5.86083 32.9768 5.86083H32.9328C32.4824 5.91581 32.0321 6.01477 31.6036 6.14671L31.5048 6.17969Z" fill="#FFE473"/>
<path d="M54.2549 22.5954C60.0851 22.5954 64.8115 17.8647 64.8115 12.0291C64.8115 6.19356 60.0851 1.46289 54.2549 1.46289C48.4246 1.46289 43.6982 6.19356 43.6982 12.0291C43.6982 17.8647 48.4246 22.5954 54.2549 22.5954Z" fill="#E23333"/>
<path d="M64.8225 12.0291C64.8225 17.8675 60.099 22.5954 54.2659 22.5954C49.3007 22.5954 45.1373 19.1649 44.0059 14.547C45.5328 17.8235 48.8613 20.0995 52.717 20.0995C58.0228 20.0995 62.3289 15.7895 62.3289 10.4788C62.3289 6.61958 60.055 3.28808 56.7815 1.75977C61.3952 2.89226 64.8225 7.05938 64.8225 12.0291Z" fill="#B52C2C"/>
<path d="M45.0162 9.91867C46.2246 5.88349 49.1137 3.73945 50.9811 2.87085C51.4205 2.66194 51.9478 2.83786 52.1675 3.27766L52.1785 3.31065C52.3982 3.72846 52.2554 4.23423 51.8709 4.48712C49.7398 5.90548 48.7292 8.23643 48.4436 10.5674C48.3777 11.1391 47.8504 11.5459 47.2792 11.447L45.8181 11.2051C45.214 11.0951 44.8405 10.5014 45.0162 9.91867Z" fill="#EA684E"/>
</svg>
