<svg width="20" height="20" viewBox="0 0 20 20" fill="none" xmlns="http://www.w3.org/2000/svg">
<path d="M0.5 10.5237H1H0.5ZM0.5 18.0439H0H0.5ZM18.0385 19.5V19V19.5ZM1.96154 19.5V20H1.96154L1.96154 19.5ZM19.5 10.5238H19H19.5ZM19.5 18.0439H20H19.5ZM18.7266 8.55042L18.3595 8.88991L18.7266 8.55042ZM12.1497 1.43887L11.7826 1.77836L12.1497 1.43887ZM7.85031 1.43887L8.21739 1.77835L7.85031 1.43887ZM1.27339 8.55039L0.906305 8.2109H0.906305L1.27339 8.55039ZM7.07692 12.2194H7.57692H7.07692ZM7.07692 18.7719H6.57692H7.07692ZM12.1923 19.5V19V19.5ZM7.80769 19.5V20V19.5ZM12.9231 12.2195L13.4231 12.2195V12.2195H12.9231ZM12.9231 18.7719H12.4231H12.9231ZM12.1923 11.4914L12.1923 11.9914L12.1923 11.4914ZM7.80769 11.4914L7.80769 11.9914H7.80769L7.80769 11.4914ZM3.27826e-07 10.5237L0 18.0439H1L1 10.5237H3.27826e-07ZM18.0385 19L1.96154 19L1.96154 20L18.0385 20V19ZM19 10.5238V18.0439H20V10.5238H19ZM19.0937 8.21094L12.5168 1.09939L11.7826 1.77836L18.3595 8.88991L19.0937 8.21094ZM7.48322 1.09938L0.906305 8.2109L1.64047 8.88987L8.21739 1.77835L7.48322 1.09938ZM12.5168 1.09939C11.1611 -0.366458 8.83888 -0.366465 7.48322 1.09938L8.21739 1.77835C9.17718 0.740546 10.8228 0.740549 11.7826 1.77836L12.5168 1.09939ZM20 10.5238C20 9.66649 19.6763 8.84089 19.0937 8.21094L18.3595 8.88991C18.7715 9.33542 19 9.91868 19 10.5238H20ZM1 10.5237C1 9.91865 1.22845 9.33538 1.64047 8.88987L0.906305 8.2109C0.323705 8.84085 3.57628e-07 9.66645 3.27826e-07 10.5237H1ZM0 18.0439C-5.96046e-08 19.126 0.879965 20 1.96154 20V19C1.42874 19 1 18.5702 1 18.0439H0ZM18.0385 20C19.12 20 20 19.126 20 18.0439H19C19 18.5702 18.5713 19 18.0385 19V20ZM6.57692 12.2194L6.57692 18.7719H7.57692L7.57692 12.2194H6.57692ZM12.1923 19H7.80769V20H12.1923V19ZM12.4231 12.2195L12.4231 18.7719H13.4231L13.4231 12.2195L12.4231 12.2195ZM12.1923 10.9914L7.8077 10.9914L7.80769 11.9914L12.1923 11.9914L12.1923 10.9914ZM13.4231 12.2195C13.4231 11.5395 12.8703 10.9914 12.1923 10.9914L12.1923 11.9914C12.3215 11.9914 12.4231 12.0953 12.4231 12.2195H13.4231ZM7.57692 12.2194C7.57692 12.0952 7.67849 11.9914 7.80769 11.9914L7.8077 10.9914C7.12971 10.9914 6.57692 11.5395 6.57692 12.2194H7.57692ZM6.57692 18.7719C6.57692 19.4519 7.12971 20 7.80769 20V19C7.67849 19 7.57692 18.8961 7.57692 18.7719H6.57692ZM12.1923 20C12.8703 20 13.4231 19.4519 13.4231 18.7719H12.4231C12.4231 18.8961 12.3215 19 12.1923 19V20Z" fill="#7E8083"/>
</svg>
