<svg width="24" height="24" viewBox="0 0 24 24" fill="none" xmlns="http://www.w3.org/2000/svg">
<path d="M18 1C17.3919 1 16.6925 1.45651 16.3028 2.06108C16.0036 2.52528 15.5523 3 15 3H9C8.44772 3 7.99643 2.52528 7.6972 2.06108C7.30748 1.45651 6.60809 1 6 1H3C2.44772 1 2 1.44772 2 2V10C2 11 3 12 4 12H5.3802C5.85688 12 6.25707 12.3407 6.41345 12.791C6.9162 14.2387 8.01271 15.4258 10.1018 15.8647C10.6058 15.9705 11 16.3929 11 16.9079V17.2216C11 17.7154 10.6325 18.1213 10.1653 18.2809C9.01251 18.6747 8.47346 19.4199 8.2214 20.0307C8.01072 20.5412 8.44772 21 9 21H15C15.5523 21 15.9893 20.5412 15.7786 20.0307C15.5265 19.4199 14.9875 18.6747 13.8347 18.2809C13.3675 18.1213 13 17.7154 13 17.2216V16.9079C13 16.3929 13.3942 15.9705 13.8982 15.8647C15.9873 15.4258 17.0838 14.2387 17.5866 12.791C17.7429 12.3407 18.1431 12 18.6198 12H20C21 12 22 11 22 10V2C22 1.44772 21.5523 1 21 1H18ZM6 9.5C6 10.0523 5.55228 10.5 5 10.5C4.44772 10.5 4 10.0523 4 9.5V3.5C4 2.94772 4.44772 2.5 5 2.5C5.55228 2.5 6 2.94772 6 3.5V9.5ZM16 10.5C16 12.43 15.42 14 12 14C8.59 14 8 12.43 8 10.5V5.5C8 4.94772 8.44772 4.5 9 4.5H15C15.5523 4.5 16 4.94772 16 5.5V10.5ZM20 9.5C20 10.0523 19.5523 10.5 19 10.5C18.4477 10.5 18 10.0523 18 9.5V3.5C18 2.94772 18.4477 2.5 19 2.5C19.5523 2.5 20 2.94772 20 3.5V9.5Z" fill="#171D1C"/>
</svg>
