<svg width="24" height="24" viewBox="0 0 24 24" fill="none" xmlns="http://www.w3.org/2000/svg">
<path d="M17.39 1.76L16.31 2.84M8.30996 1.76L9.30996 2.76M12.85 1V2.41M14.582 22.545C16.691 22.799 18.89 22.123 20.508 20.504C22.202 18.81 22.937 16.381 22.468 14.032L21.226 7.824C21.081 7.098 20.443 6.575 19.702 6.575C18.844 6.575 18.148 7.271 18.148 8.129V9.612M15.37 8.039L13.552 6.221C12.966 5.635 12.016 5.635 11.431 6.221C10.845 6.807 10.845 7.757 11.431 8.342M6.78196 7.937C6.19596 7.351 6.19596 6.401 6.78196 5.816C7.36796 5.23 8.31796 5.23 8.90296 5.816L14.913 11.826V9.137C14.913 8.279 15.609 7.583 16.467 7.583C17.208 7.583 17.846 8.106 17.991 8.832L19.11 14.429C19.58 16.778 18.845 19.207 17.15 20.901C14.352 23.699 9.81496 23.699 7.01696 20.901L1.83196 15.715C1.24596 15.129 1.24596 14.179 1.83196 13.594C2.41796 13.008 3.36796 13.008 3.95296 13.594M7.13596 16.776L2.53996 12.18C1.95396 11.594 1.95396 10.644 2.53996 10.059C3.12596 9.473 4.07596 9.473 4.66096 10.059M9.25696 14.654L3.24696 8.644C2.66096 8.058 2.66096 7.108 3.24696 6.523C3.83296 5.937 4.78296 5.937 5.36796 6.523L11.378 12.533" stroke="#12285A" stroke-width="2" stroke-linecap="round" stroke-linejoin="round"/>
</svg>
