<svg width="24" height="24" viewBox="0 0 24 24" fill="none" xmlns="http://www.w3.org/2000/svg">
<path fill-rule="evenodd" clip-rule="evenodd" d="M22 12C22 17.5229 17.5229 22 12 22C6.47715 22 2 17.5229 2 12C2 6.47715 6.47715 2 12 2C17.5229 2 22 6.47715 22 12ZM10.9067 8.27126C11.3139 8.03194 11.7927 7.94446 12.2582 8.02431C12.7237 8.10416 13.146 8.34618 13.4501 8.70752C13.7543 9.06885 13.9208 9.52618 13.9201 9.9985L13.9201 9.99999C13.9201 10.4691 13.555 10.9582 12.8654 11.4179C12.551 11.6275 12.2295 11.789 11.9827 11.8987C11.8607 11.9529 11.7604 11.9929 11.693 12.0186C11.6594 12.0314 11.6342 12.0406 11.6188 12.0461L11.6033 12.0515C11.6024 12.0518 11.6018 12.052 11.6016 12.0521L11.6022 12.0519L11.6028 12.0517C11.0795 12.2267 10.7969 12.7926 10.9714 13.3162C11.1461 13.8402 11.7124 14.1233 12.2363 13.9487L11.9201 13C12.2363 13.9487 12.2366 13.9486 12.2369 13.9485L12.2376 13.9483L12.2391 13.9477L12.243 13.9464L12.2541 13.9426L12.2888 13.9305C12.3174 13.9203 12.3566 13.906 12.405 13.8876C12.5016 13.8508 12.6357 13.7971 12.795 13.7263C13.1106 13.586 13.5392 13.3725 13.9748 13.082C14.7849 12.5419 15.9194 11.5315 15.9201 10.0015L14.9201 9.99999H15.9201V10.0009C15.9214 9.05647 15.5884 8.14204 14.9802 7.41952C14.3718 6.69685 13.5274 6.21279 12.5963 6.0531C11.6653 5.8934 10.7078 6.06836 9.89336 6.54699C9.07896 7.02562 8.46023 7.77704 8.14675 8.66815C7.96348 9.18914 8.23726 9.76005 8.75824 9.94332C9.27923 10.1266 9.85015 9.85282 10.0334 9.33183C10.1902 8.88628 10.4995 8.51057 10.9067 8.27126ZM12.0001 16C11.4478 16 11.0001 16.4477 11.0001 17C11.0001 17.5523 11.4478 18 12.0001 18H12.0101C12.5624 18 13.0101 17.5523 13.0101 17C13.0101 16.4477 12.5624 16 12.0101 16H12.0001Z" fill="#1F79FF"/>
</svg>
