<svg width="24" height="24" viewBox="0 0 24 24" fill="none" xmlns="http://www.w3.org/2000/svg">
<path fill-rule="evenodd" clip-rule="evenodd" d="M11.293 3.29279C11.4806 3.10532 11.7349 3 12 3C12.2652 3 12.5195 3.10532 12.707 3.29279L18.707 9.29279L20.707 11.2928C20.8892 11.4814 20.99 11.734 20.9877 11.9962C20.9854 12.2584 20.8803 12.5092 20.6949 12.6946C20.5095 12.88 20.2586 12.9852 19.9964 12.9875C19.7342 12.9897 19.4816 12.8889 19.293 12.7068L19 12.4138V18.9998C19 19.5302 18.7893 20.0389 18.4143 20.414C18.0392 20.7891 17.5305 20.9998 17 20.9998H14C13.7348 20.9998 13.4805 20.8944 13.2929 20.7069C13.1054 20.5194 13 20.265 13 19.9998V16.9998H11V19.9998C11 20.265 10.8947 20.5194 10.7071 20.7069C10.5196 20.8944 10.2653 20.9998 10 20.9998H7.00004C6.46961 20.9998 5.9609 20.7891 5.58583 20.414C5.21075 20.0389 5.00004 19.5302 5.00004 18.9998V12.4138L4.70704 12.7068C4.51844 12.8889 4.26584 12.9897 4.00364 12.9875C3.74144 12.9852 3.49063 12.88 3.30522 12.6946C3.11981 12.5092 3.01465 12.2584 3.01237 11.9962C3.01009 11.734 3.11088 11.4814 3.29304 11.2928L5.29304 9.29279L11.293 3.29279Z" fill="#171D1C"/>
</svg>
