<svg width="24" height="24" viewBox="0 0 24 24" fill="none" xmlns="http://www.w3.org/2000/svg">
<path fill-rule="evenodd" clip-rule="evenodd" d="M3.32698 4.63803C3 5.27976 3 6.11984 3 7.8V16.2C3 17.8802 3 18.7202 3.32698 19.362C3.6146 19.9265 4.07354 20.3854 4.63803 20.673C5.27976 21 6.11984 21 7.8 21H16.2C17.8802 21 18.7202 21 19.362 20.673C19.9265 20.3854 20.3854 19.9265 20.673 19.362C21 18.7202 21 17.8802 21 16.2V7.8C21 6.11984 21 5.27976 20.673 4.63803C20.3854 4.07354 19.9265 3.6146 19.362 3.32698C18.7202 3 17.8802 3 16.2 3H7.8C6.11984 3 5.27976 3 4.63803 3.32698C4.07354 3.6146 3.6146 4.07354 3.32698 4.63803ZM9.59974 8.11633C9.5 8.24955 9.5 8.4882 9.5 8.96548V15.0348C9.5 15.5121 9.5 15.7507 9.59974 15.884C9.68666 16.0001 9.81971 16.0727 9.96438 16.083C10.1304 16.0949 10.3311 15.9659 10.7326 15.7078L15.4532 12.6731C15.8016 12.4491 15.9758 12.3371 16.0359 12.1948C16.0885 12.0703 16.0885 11.93 16.0359 11.8055C15.9758 11.6631 15.8016 11.5512 15.4532 11.3272L10.7326 8.29254C10.3311 8.03444 10.1304 7.9054 9.96438 7.91725C9.81971 7.92759 9.68666 8.00022 9.59974 8.11633Z" fill="#1F79FF"/>
<path d="M3.32698 4.63803L2.65873 4.29754L3.32698 4.63803ZM3.32698 19.362L2.65873 19.7025H2.65873L3.32698 19.362ZM4.63803 20.673L4.29754 21.3413H4.29754L4.63803 20.673ZM19.362 20.673L19.7025 21.3413H19.7025L19.362 20.673ZM20.673 19.362L21.3413 19.7025V19.7025L20.673 19.362ZM20.673 4.63803L21.3413 4.29754V4.29754L20.673 4.63803ZM19.362 3.32698L19.7025 2.65873V2.65873L19.362 3.32698ZM4.63803 3.32698L4.29754 2.65873L4.63803 3.32698ZM9.59974 8.11633L8.99936 7.66684L9.59974 8.11633ZM9.59974 15.884L8.99935 16.3335L8.99936 16.3335L9.59974 15.884ZM9.96438 16.083L10.0178 15.335H10.0178L9.96438 16.083ZM10.7326 15.7078L10.327 15.0769L10.7326 15.7078ZM15.4532 12.6731L15.8588 13.304L15.8588 13.304L15.4532 12.6731ZM16.0359 12.1948L16.7268 12.4867L16.7268 12.4867L16.0359 12.1948ZM16.0359 11.8055L16.7268 11.5136L16.7268 11.5136L16.0359 11.8055ZM15.4532 11.3272L15.8588 10.6963H15.8588L15.4532 11.3272ZM10.7326 8.29254L11.1382 7.66166L10.7326 8.29254ZM9.96438 7.91725L9.91095 7.16916H9.91095L9.96438 7.91725ZM3.75 7.8C3.75 6.94755 3.75058 6.35331 3.78838 5.89068C3.82546 5.4368 3.8946 5.17604 3.99524 4.97852L2.65873 4.29754C2.43238 4.74175 2.33803 5.22189 2.29336 5.76853C2.24942 6.30641 2.25 6.9723 2.25 7.8H3.75ZM3.75 16.2V7.8H2.25V16.2H3.75ZM3.99524 19.0215C3.8946 18.824 3.82546 18.5632 3.78838 18.1093C3.75058 17.6467 3.75 17.0525 3.75 16.2H2.25C2.25 17.0277 2.24942 17.6936 2.29336 18.2315C2.33803 18.7781 2.43238 19.2582 2.65873 19.7025L3.99524 19.0215ZM4.97852 20.0048C4.55516 19.789 4.21095 19.4448 3.99524 19.0215L2.65873 19.7025C3.01825 20.4081 3.59193 20.9817 4.29754 21.3413L4.97852 20.0048ZM7.8 20.25C6.94755 20.25 6.35331 20.2494 5.89068 20.2116C5.4368 20.1745 5.17604 20.1054 4.97852 20.0048L4.29754 21.3413C4.74175 21.5676 5.22189 21.662 5.76853 21.7066C6.30641 21.7506 6.9723 21.75 7.8 21.75V20.25ZM16.2 20.25H7.8V21.75H16.2V20.25ZM19.0215 20.0048C18.824 20.1054 18.5632 20.1745 18.1093 20.2116C17.6467 20.2494 17.0525 20.25 16.2 20.25V21.75C17.0277 21.75 17.6936 21.7506 18.2315 21.7066C18.7781 21.662 19.2582 21.5676 19.7025 21.3413L19.0215 20.0048ZM20.0048 19.0215C19.789 19.4448 19.4448 19.789 19.0215 20.0048L19.7025 21.3413C20.4081 20.9817 20.9817 20.4081 21.3413 19.7025L20.0048 19.0215ZM20.25 16.2C20.25 17.0525 20.2494 17.6467 20.2116 18.1093C20.1745 18.5632 20.1054 18.824 20.0048 19.0215L21.3413 19.7025C21.5676 19.2582 21.662 18.7781 21.7066 18.2315C21.7506 17.6936 21.75 17.0277 21.75 16.2H20.25ZM20.25 7.8V16.2H21.75V7.8H20.25ZM20.0048 4.97852C20.1054 5.17604 20.1745 5.4368 20.2116 5.89068C20.2494 6.35331 20.25 6.94755 20.25 7.8H21.75C21.75 6.9723 21.7506 6.30641 21.7066 5.76853C21.662 5.22189 21.5676 4.74175 21.3413 4.29754L20.0048 4.97852ZM19.0215 3.99524C19.4448 4.21095 19.789 4.55516 20.0048 4.97852L21.3413 4.29754C20.9817 3.59193 20.4081 3.01825 19.7025 2.65873L19.0215 3.99524ZM16.2 3.75C17.0525 3.75 17.6467 3.75058 18.1093 3.78838C18.5632 3.82546 18.824 3.8946 19.0215 3.99524L19.7025 2.65873C19.2582 2.43238 18.7781 2.33803 18.2315 2.29336C17.6936 2.24942 17.0277 2.25 16.2 2.25V3.75ZM7.8 3.75H16.2V2.25H7.8V3.75ZM4.97852 3.99524C5.17604 3.8946 5.4368 3.82546 5.89068 3.78838C6.35331 3.75058 6.94755 3.75 7.8 3.75V2.25C6.9723 2.25 6.30641 2.24942 5.76853 2.29336C5.22189 2.33803 4.74175 2.43238 4.29754 2.65873L4.97852 3.99524ZM3.99524 4.97852C4.21095 4.55516 4.55516 4.21095 4.97852 3.99524L4.29754 2.65873C3.59193 3.01825 3.01825 3.59193 2.65873 4.29754L3.99524 4.97852ZM10.25 8.96548C10.25 8.84427 10.25 8.74682 10.2515 8.66294C10.2529 8.57861 10.2556 8.52119 10.2593 8.48036C10.2632 8.43848 10.2666 8.43248 10.2626 8.4462C10.2576 8.46344 10.2413 8.51076 10.2001 8.56581L8.99936 7.66684C8.82107 7.90499 8.78136 8.17158 8.7656 8.3434C8.74925 8.52178 8.75 8.74171 8.75 8.96548H10.25ZM10.25 15.0348V8.96548H8.75V15.0348H10.25ZM10.2001 15.4345C10.2413 15.4895 10.2576 15.5369 10.2626 15.5541C10.2666 15.5678 10.2632 15.5618 10.2593 15.5199C10.2556 15.4791 10.2529 15.4217 10.2515 15.3374C10.25 15.2535 10.25 15.156 10.25 15.0348H8.75C8.75 15.2586 8.74925 15.4785 8.7656 15.6569C8.78136 15.8287 8.82107 16.0953 8.99935 16.3335L10.2001 15.4345ZM10.0178 15.335C10.0901 15.3401 10.1567 15.3764 10.2001 15.4345L8.99936 16.3335C9.21665 16.6237 9.54928 16.8053 9.91095 16.8311L10.0178 15.335ZM10.327 15.0769C10.2251 15.1424 10.1431 15.1951 10.0718 15.2393C10 15.2837 9.95028 15.3124 9.91392 15.3314C9.87661 15.3508 9.86972 15.3511 9.8834 15.3471C9.90059 15.3419 9.94922 15.3301 10.0178 15.335L9.91095 16.8311C10.2077 16.8523 10.4534 16.7416 10.6065 16.6619C10.7653 16.5792 10.9499 16.4596 11.1382 16.3386L10.327 15.0769ZM15.0476 12.0422L10.327 15.0769L11.1382 16.3386L15.8588 13.304L15.0476 12.0422ZM15.3451 11.9028C15.3898 11.797 15.4524 11.7644 15.3914 11.8119C15.3654 11.8322 15.3266 11.8599 15.2665 11.9C15.2066 11.94 15.1363 11.9852 15.0476 12.0422L15.8588 13.304C16.0207 13.1998 16.1859 13.0946 16.3139 12.9948C16.4421 12.8947 16.6219 12.7349 16.7268 12.4867L15.3451 11.9028ZM15.3451 12.0975C15.3188 12.0352 15.3188 11.9651 15.3451 11.9028L16.7268 12.4867C16.8582 12.1756 16.8582 11.8247 16.7268 11.5136L15.3451 12.0975ZM15.0476 11.9581C15.1363 12.0151 15.2066 12.0603 15.2665 12.1003C15.3266 12.1404 15.3654 12.1681 15.3914 12.1884C15.4524 12.2359 15.3898 12.2033 15.3451 12.0975L16.7268 11.5136C16.6219 11.2654 16.4421 11.1056 16.3139 11.0055C16.1859 10.9057 16.0207 10.8005 15.8588 10.6963L15.0476 11.9581ZM10.327 8.92342L15.0476 11.9581L15.8588 10.6963L11.1382 7.66166L10.327 8.92342ZM10.0178 8.66535C9.94922 8.67025 9.90059 8.65837 9.8834 8.65324C9.86972 8.64916 9.87661 8.64952 9.91392 8.66894C9.95028 8.68787 10 8.71665 10.0718 8.76104C10.1431 8.8052 10.2251 8.85788 10.327 8.92342L11.1382 7.66166C10.9499 7.54065 10.7653 7.42108 10.6065 7.33838C10.4534 7.25872 10.2077 7.14797 9.91095 7.16916L10.0178 8.66535ZM10.2001 8.56581C10.1567 8.62386 10.0901 8.66018 10.0178 8.66535L9.91095 7.16916C9.54928 7.19499 9.21666 7.37659 8.99936 7.66684L10.2001 8.56581Z" fill="#1F79FF"/>
</svg>
