<svg width="20" height="20" viewBox="0 0 20 20" fill="none" xmlns="http://www.w3.org/2000/svg">
<path fill-rule="evenodd" clip-rule="evenodd" d="M20 10C20 15.5229 15.5229 20 10 20C4.47715 20 0 15.5229 0 10C0 4.47715 4.47715 0 10 0C15.5229 0 20 4.47715 20 10ZM8.90673 6.27126C9.31393 6.03194 9.79269 5.94446 10.2582 6.02431C10.7237 6.10416 11.146 6.34618 11.4501 6.70752C11.7543 7.06885 11.9208 7.52618 11.9201 7.9985L11.9201 7.99999C11.9201 8.46912 11.555 8.95821 10.8654 9.41794C10.551 9.62752 10.2295 9.78897 9.9827 9.89868C9.8607 9.9529 9.76043 9.99294 9.693 10.0186C9.65937 10.0314 9.63415 10.0406 9.61877 10.0461L9.60333 10.0515C9.60239 10.0518 9.60181 10.052 9.60161 10.0521L9.60217 10.0519L9.60281 10.0517C9.07954 10.2267 8.79687 10.7926 8.97141 11.3162C9.14605 11.8402 9.71237 12.1233 10.2363 11.9487L9.92009 11C10.2363 11.9487 10.2366 11.9486 10.2369 11.9485L10.2376 11.9483L10.2391 11.9477L10.243 11.9464L10.2541 11.9426L10.2888 11.9305C10.3174 11.9203 10.3566 11.906 10.405 11.8876C10.5016 11.8508 10.6357 11.7971 10.795 11.7263C11.1106 11.586 11.5392 11.3725 11.9748 11.082C12.7849 10.5419 13.9194 9.53151 13.9201 8.00148L12.9201 7.99999H13.9201V8.0009C13.9214 7.05647 13.5884 6.14204 12.9802 5.41952C12.3718 4.69685 11.5274 4.21279 10.5963 4.0531C9.66528 3.8934 8.70776 4.06836 7.89336 4.54699C7.07896 5.02562 6.46023 5.77704 6.14675 6.66815C5.96348 7.18914 6.23726 7.76005 6.75824 7.94332C7.27923 8.1266 7.85015 7.85282 8.03342 7.33183C8.19016 6.88628 8.49952 6.51057 8.90673 6.27126ZM10.0001 14C9.4478 14 9.00009 14.4477 9.00009 15C9.00009 15.5523 9.4478 16 10.0001 16H10.0101C10.5624 16 11.0101 15.5523 11.0101 15C11.0101 14.4477 10.5624 14 10.0101 14H10.0001Z" fill="white"/>
</svg>
