<svg width="24" height="24" viewBox="0 0 24 24" fill="none" xmlns="http://www.w3.org/2000/svg">
<path d="M2 18.084C3.056 14.553 7.769 16.174 11.5 18.084C15.232 19.995 19 21.211 21 18.084M10.718 6.86201L15 16C12.833 16 12.174 14.857 9.913 13.714C8.104 12.8 5.58 12.952 4.826 13.143L7.857 11C8.166 10.782 8.32 10.673 8.369 10.507C8.419 10.341 8.349 10.165 8.209 9.81401L7.785 8.74601C7.627 8.34601 7.547 8.14601 7.404 8.00201C7.35392 7.95161 7.2986 7.90669 7.239 7.86801C7.069 7.75601 6.857 7.71801 6.434 7.64401L3.184 7.06701C2.81905 6.99553 2.49614 6.78508 2.28341 6.48005C2.07068 6.17502 1.98476 5.79928 2.0438 5.43211C2.10283 5.06494 2.30219 4.73507 2.59981 4.5121C2.89743 4.28912 3.27004 4.19049 3.639 4.23701L8.034 4.87201C8.826 4.98601 9.222 5.04301 9.552 5.23201C9.68938 5.31064 9.81694 5.4053 9.932 5.51401C10.209 5.77501 10.379 6.13701 10.718 6.86201ZM22 10C22 11.6569 20.6569 13 19 13C17.3431 13 16 11.6569 16 10C16 8.34315 17.3431 7.00001 19 7.00001C20.6569 7.00001 22 8.34315 22 10Z" stroke="#12285A" stroke-width="2" stroke-linecap="round" stroke-linejoin="round"/>
</svg>
