<svg width="24" height="24" viewBox="0 0 24 24" fill="none" xmlns="http://www.w3.org/2000/svg">
<g clip-path="url(#clip0_74_1051)">
<path d="M5.70049 18.7185L5.69879 18.7182C5.43118 18.6736 5.25 18.4417 5.25 18.188V17C5.25 16.2707 5.53973 15.5712 6.05546 15.0555C6.57118 14.5397 7.27065 14.25 8 14.25H8.34067H8.341V14.75C8.36713 14.75 8.39311 14.754 8.418 14.762L5.70049 18.7185ZM5.70049 18.7185C9.87281 19.3992 14.1282 19.3992 18.2995 18.7185L18.3 18.7184C18.4269 18.6976 18.5421 18.6319 18.6246 18.5334C18.7061 18.4361 18.7504 18.3133 18.75 18.1866M5.70049 18.7185L18.75 18.1866M18.75 18.1866V17C18.75 16.2707 18.4603 15.5712 17.9445 15.0555C17.4288 14.5397 16.7293 14.25 16 14.25H15.6615M18.75 18.1866L14.5608 14.5697L15.4255 14.2868L15.4288 14.2857L15.4288 14.2857C15.504 14.2617 15.5825 14.2496 15.6615 14.25M15.6615 14.25H15.66V14.75L15.6639 14.25C15.6631 14.25 15.6623 14.25 15.6615 14.25ZM9.59469 14.0943L9.59485 14.0943C11.1577 14.6045 12.8423 14.6045 14.4052 14.0943L14.4053 14.0943L15.2709 13.8114C15.271 13.8114 15.2711 13.8113 15.2712 13.8113C15.3958 13.7708 15.5273 13.75 15.659 13.75H16C16.862 13.75 17.6886 14.0924 18.2981 14.7019C18.9076 15.3114 19.25 16.138 19.25 17V18.188C19.25 18.6969 18.8817 19.1298 18.3797 19.2115L18.3794 19.2115C14.1544 19.9013 9.84555 19.9013 5.62056 19.2115L5.62035 19.2115C5.37741 19.1719 5.15646 19.0473 4.99701 18.8598C4.83756 18.6722 4.75 18.4341 4.75 18.188V17C4.75 16.138 5.09241 15.3114 5.7019 14.7019C6.3114 14.0924 7.13805 13.75 8 13.75H8.34C8.47071 13.75 8.6029 13.7712 8.73028 13.8118C8.73073 13.8119 8.73117 13.8121 8.73161 13.8122L9.59469 14.0943ZM8.25 7.5C8.25 7.00754 8.347 6.51991 8.53545 6.06494C8.72391 5.60997 9.00013 5.19657 9.34835 4.84835C9.69657 4.50013 10.11 4.22391 10.5649 4.03545C11.0199 3.847 11.5075 3.75 12 3.75C12.4925 3.75 12.9801 3.847 13.4351 4.03545C13.89 4.22391 14.3034 4.50013 14.6517 4.84835C14.9999 5.19657 15.2761 5.60997 15.4645 6.06494C15.653 6.51991 15.75 7.00754 15.75 7.5C15.75 8.49456 15.3549 9.44839 14.6517 10.1517C13.9484 10.8549 12.9946 11.25 12 11.25C11.0054 11.25 10.0516 10.8549 9.34835 10.1517C8.64509 9.44839 8.25 8.49456 8.25 7.5ZM12 4.25C11.138 4.25 10.3114 4.59241 9.7019 5.2019C9.09241 5.8114 8.75 6.63805 8.75 7.5C8.75 8.36195 9.09241 9.1886 9.7019 9.7981C10.3114 10.4076 11.138 10.75 12 10.75C12.862 10.75 13.6886 10.4076 14.2981 9.7981C14.9076 9.1886 15.25 8.36195 15.25 7.5C15.25 6.63805 14.9076 5.8114 14.2981 5.2019C13.6886 4.59241 12.862 4.25 12 4.25Z" fill="#171D1C" stroke="#171D1C"/>
<path d="M12 3.75C11.0054 3.75 10.0516 4.14509 9.34835 4.84835C8.64509 5.55161 8.25 6.50544 8.25 7.5C8.25 8.49456 8.64509 9.44839 9.34835 10.1517C10.0516 10.8549 11.0054 11.25 12 11.25C12.9946 11.25 13.9484 10.8549 14.6517 10.1517C15.3549 9.44839 15.75 8.49456 15.75 7.5C15.75 6.50544 15.3549 5.55161 14.6517 4.84835C13.9484 4.14509 12.9946 3.75 12 3.75ZM8 13.25C7.00544 13.25 6.05161 13.6451 5.34835 14.3483C4.64509 15.0516 4.25 16.0054 4.25 17V18.188C4.25 18.942 4.796 19.584 5.54 19.705C9.818 20.404 14.182 20.404 18.46 19.705C18.8201 19.6464 19.1476 19.4616 19.3839 19.1837C19.6202 18.9057 19.75 18.5528 19.75 18.188V17C19.75 16.0054 19.3549 15.0516 18.6517 14.3483C17.9484 13.6451 16.9946 13.25 16 13.25H15.66C15.475 13.25 15.291 13.28 15.116 13.336L14.25 13.619C12.788 14.0962 11.212 14.0962 9.75 13.619L8.884 13.336C8.70865 13.2789 8.5254 13.2499 8.341 13.25H8Z" fill="black"/>
</g>
<defs>
<clipPath id="clip0_74_1051">
<rect width="24" height="24" fill="white"/>
</clipPath>
</defs>
</svg>
