<svg width="24" height="24" viewBox="0 0 24 24" fill="none" xmlns="http://www.w3.org/2000/svg">
<path d="M12 12C10.5 9.18749 10.5 5.81249 12 2.99999M12 12C15.1857 12.1072 18.1085 13.7947 19.7942 16.5M12 12C10.3143 14.7053 7.39144 16.3928 4.20574 16.5M7.10727 4.45244C6.3434 8.11455 6.89511 11.9287 8.66538 15.2243M20.9827 11.5366C18.1931 9.04398 14.6141 7.61468 10.875 7.49999M19.7861 16.5C21.9788 12.7179 21.1364 7.90715 17.7892 5.09506C14.4419 2.28297 9.558 2.28297 6.21075 5.09506C2.86351 7.90715 2.02118 12.7179 4.21384 16.5M21 20.625C19.8521 21.125 18.5479 21.125 17.4 20.625C16.2521 20.125 14.9479 20.125 13.8 20.625C12.6521 21.125 11.3479 21.125 10.2 20.625C9.05205 20.125 7.74789 20.125 6.59997 20.625C5.45205 21.125 4.14789 21.125 2.99997 20.625M16.4596 13.2757C15.7684 14.4856 14.8844 15.5746 13.8426 16.5" stroke="#12285A" stroke-width="2" stroke-linecap="round" stroke-linejoin="round"/>
</svg>
